<?xml version="1.0" encoding="utf-8"?>
<!-- Generator: Adobe Illustrator 25.0.0, SVG Export Plug-In . SVG Version: 6.00 Build 0)  -->
<svg version="1.1" xmlns="http://www.w3.org/2000/svg" xmlns:xlink="http://www.w3.org/1999/xlink" x="0px" y="0px"
	 viewBox="0 0 1061.19 736.97" style="enable-background:new 0 0 1061.19 736.97;" xml:space="preserve">
<style type="text/css">
	.st0{display:none;}
	.st1{display:inline;fill:#C0E4FF;}
	.st2{fill:#E9F6FF;}
	.st3{display:inline;fill:#FD821A;}
	.st4{display:inline;}
	.st5{fill:#FD821A;}
	.st6{fill:#F29D98;}
	.st7{fill:#332D6A;}
	.st8{fill:#3E3781;}
	.st9{fill:#FFFFFF;}
	.st10{fill:#ECEBF6;}
	.st11{fill:#4C509C;}
	.st12{fill:#F1928A;}
	.st13{fill:#D8D2E9;}
	.st14{fill:#2B3D5C;}
	.st15{fill:#EB837A;}
	.st16{fill:#DAD8ED;}
	.st17{fill:#DD7C74;}
	.st18{fill:#464394;}
	.st19{fill:#EA5A4E;}
	.st20{fill:#D85449;}
	.st21{fill:#FBFAFC;}
	.st22{fill:#E0E3F3;}
	.st23{fill-rule:evenodd;clip-rule:evenodd;fill:#4C509C;}
	.st24{fill-rule:evenodd;clip-rule:evenodd;fill:#EA5A4E;}
	.st25{clip-path:url(#SVGID_2_);}
	.st26{clip-path:url(#SVGID_2_);fill:#FD821A;}
	.st27{clip-path:url(#SVGID_4_);}
	.st28{fill:#68B6FF;}
	.st29{clip-path:url(#SVGID_4_);fill:#68B6FF;}
</style>
<g id="Laag_2" class="st0">
	<circle class="st1" cx="228.6" cy="475.93" r="203.86"/>
	<circle class="st1" cx="798.14" cy="220.92" r="253.7"/>
	<path class="st1" d="M294.91,283.1c0,0,148.7,90.08,275.28-173.67c50.99,144.86,50.99,144.86,50.99,144.86L474.11,393H344.7
		L294.91,283.1z"/>
	<path class="st1" d="M93.18,628.3h890.96c0,0,78.03-2.27,112.28-102.22c8.98-73.31-28.31-88.87-28.31-88.87
		s-67.76-35.27-32.28-127.39c35.47-92.12-465.64-79.5-465.64-79.5L237.49,451.5L93.18,628.3z"/>
</g>
<g id="Laag_6">
	<circle class="st2" cx="527.3" cy="271.21" r="271.21"/>
	<ellipse class="st2" cx="246.09" cy="481.72" rx="246.09" ry="260.96"/>
	<ellipse class="st2" cx="815.11" cy="476.01" rx="246.09" ry="260.96"/>
	<rect x="198.16" y="376.62" class="st2" width="616.94" height="360.35"/>
</g>
<g id="Laag_3">
</g>
<g id="Laag_1" class="st0">
	<polygon id="bottom" class="st3" points="1032.47,627.47 574.75,627.47 570.19,572.31 1037.49,572.31 	"/>
	<g id="birdhouse" class="st4">
		<g>
			<g>
				
					<rect x="851.02" y="427.95" transform="matrix(0.0872 -0.9962 0.9962 0.0872 531.4348 1437.3114)" class="st5" width="398.07" height="1.4"/>
			</g>
			<g>
				<polygon class="st5" points="1104.57,242.11 803.84,21.42 503.11,242.11 502.29,240.98 803.84,19.68 804.25,19.99 
					1105.4,240.98 				"/>
			</g>
			<g>
				<rect x="553.43" y="626.9" class="st5" width="500.81" height="1.4"/>
			</g>
			<g>
				
					<rect x="556.93" y="229.62" transform="matrix(0.9962 -0.0872 0.0872 0.9962 -35.255 50.2587)" class="st5" width="1.4" height="398.07"/>
			</g>
		</g>
		<g>
			<path class="st5" d="M803.84,183.83c-22.84,0-41.42-18.58-41.42-41.42s18.58-41.42,41.42-41.42c22.84,0,41.42,18.58,41.42,41.42
				S826.68,183.83,803.84,183.83z M803.84,102.38c-22.07,0-40.03,17.96-40.03,40.03s17.96,40.03,40.03,40.03
				c22.07,0,40.03-17.96,40.03-40.03S825.91,102.38,803.84,102.38z"/>
		</g>
	</g>
	<g id="man" class="st4">
		<g>
			<path class="st6" d="M711.5,568.18c1.68,7.7,0.64,19.25,3.05,21.96s18.72,10.95,28.27,12.38c8.43,1.27,10.1-6.01,4.39-8.42
				c-5.71-2.41-16.91-11.61-17.35-20.54S711.5,568.18,711.5,568.18z"/>
			<path class="st6" d="M647.94,573.64c-1.13,10.52-3.5,18.84-5.07,20.88c-1.57,2.04-11.2,1.27-15.84,6.34
				c-1.81,1.98-21.06,5.48-23.06,0.95c-2-4.53,0.78-2.59,6.54-8.13c5.76-5.54,17.38-7.2,18.15-16.45
				C629.48,567.34,647.94,573.64,647.94,573.64z"/>
			<path class="st6" d="M729.94,463.56c3.02,12.92,1.19,24.77,1.19,31.23c0,6.46,2.34,83.57-2.61,88.52
				c-4.95,4.95-8.2,10.14-14.66-3.22c-6.46-13.35-14.71-41.69-16.47-76.37c-0.75-14.76-5.05-24.79-5.05-24.79L729.94,463.56z"/>
			<path class="st6" d="M663.44,483.32c4.97,21.97-14.86,86.53-17.16,96.63s-9.84,8.97-14.83,8.08c-4.99-0.89-6.79-35.63-7.11-58.92
				c-0.32-23.28,2.38-53.16,2.38-53.16L663.44,483.32z"/>
			<path class="st7" d="M731.68,571.66c-0.18,3.21,0.92,5.31-3.16,5.7c-4.08,0.4-16.16,2.2-17.02-0.15
				c-0.86-2.35-0.81-4.53-0.81-4.53L731.68,571.66z"/>
			<path class="st7" d="M649.26,572.09c-0.66,4.56,0.66,4.34-2.87,5.02s-20.85,2.64-21.78-0.21c-0.93-2.85,0-4.82,0-4.82H649.26z"/>
			<path class="st8" d="M729.02,376.07c2.78,0,7.34,56.34,10.13,107.73c2.5,45.93-1.27,86.24-6.78,89.77
				c-3.83,2.45-21.6,4.29-24.25,0c-7.87-12.75-11.01-49.88-16.8-83.76c-5.34-31.22-9.34-57.44-10.62-53.23
				c-0.25,0.82-3.54,28.09-8.14,58.85c-6.09,40.7-16.82,78.79-23.47,79.6c-8.23,1.01-24.61,2.34-26.95-3.37
				c-1.93-4.72-0.81-41.74,2.18-82.74c2.46-33.76,7.69-68.51,12.03-91.02c4.34-22.47,11.65-28.47,11.65-28.47L729.02,376.07z"/>
			<g>
				<path class="st9" d="M731.12,578.86c-1.88-1.29-6.66-0.63-7.66,2.95c-1,3.58-1.74,5.21-3.94,2.43
					c-2.21-2.78-7.69-5.67-8.39-3.46c-0.7,2.21,1.21,12.11,2.51,14.12c1.31,2.01,27.35,12.79,35.37,10.27
					c9.2-2.89,9.08-7.3-0.42-12.68c-9.49-5.38-13.25-7.74-14.54-9.42C732.76,581.39,731.12,578.86,731.12,578.86z"/>
				<path class="st10" d="M714.02,590.85c2.2,2.63,5.82,4.99,11.57,5.79c5.75,0.8,12.38,5.33,17.99,4.26
					c5.61-1.07,3.93-2.62,8.34-3.16c3.87-0.47,3.58,0.76,3.58,0.76c1.15,2.69,0.97,5.33-4.51,7.05c-3.24,1.01-9.34,0.45-15.91-1.48
					c-9.7-2.86-21.56-7.11-22.34-8.3c-0.46-0.7-1.26-4.56-0.87-6.54C712.01,589.37,713.89,590.68,714.02,590.85z"/>
			</g>
			<g>
				<path class="st9" d="M626.47,579.67c1.84-1.36,6.63-0.85,7.75,2.69c1.12,3.54,1.91,5.15,4.02,2.3c2.11-2.85,7.5-5.93,8.27-3.74
					s-0.79,12.15-2.03,14.19s-26.9,13.71-35,11.46c-9.3-2.57-9.32-6.99-0.01-12.69c9.31-5.7,12.98-8.18,14.21-9.91
					C624.92,582.26,626.47,579.67,626.47,579.67z"/>
				<path class="st10" d="M643.96,591.07c-2.11,2.71-5.65,5.18-11.37,6.18c-5.72,1-12.19,5.75-17.84,4.87
					c-5.65-0.88-4.02-2.49-8.44-2.87c-3.89-0.34-3.55,0.88-3.55,0.88c-1.06,2.72-0.79,5.36,4.75,6.89c3.27,0.9,9.35,0.13,15.85-2.02
					c9.6-3.19,21.3-7.83,22.04-9.06c0.43-0.71,1.1-4.6,0.64-6.56C645.93,589.53,644.09,590.9,643.96,591.07z"/>
			</g>
		</g>
		<g>
			<g>
				<path class="st7" d="M684.46,416.42c-0.18,0-0.35-0.1-0.44-0.26c-1.71-3.15,0.87-11.84,1.08-12.54c0.09-0.48,0.4-0.89,0.84-1.1
					c0.46-0.22,0.99-0.19,1.42,0.07l1.04,0.62c0.24,0.14,0.32,0.45,0.17,0.69c-0.14,0.24-0.45,0.32-0.69,0.17l-1.04-0.62
					c-0.15-0.09-0.32-0.1-0.47-0.02c-0.15,0.07-0.26,0.21-0.28,0.38c0,0.02-0.01,0.05-0.02,0.07c-0.76,2.48-2.45,9.43-1.17,11.79
					c0.13,0.24,0.04,0.55-0.2,0.68C684.63,416.4,684.55,416.42,684.46,416.42z"/>
			</g>
			<g>
				<g>
					<path class="st7" d="M688.5,404.15c-5.2,0-11.57-1.63-13.71-4.76c-0.16-0.23-0.1-0.54,0.13-0.7c0.23-0.16,0.54-0.1,0.7,0.13
						c1.95,2.84,7.94,4.32,12.88,4.32c0.02,0,0.03,0,0.05,0c2.88-0.01,5.11-0.55,5.68-1.39c0.16-0.23,0.47-0.29,0.7-0.13
						c0.23,0.16,0.29,0.47,0.13,0.7c-1.12,1.64-4.93,1.83-6.51,1.83C688.54,404.15,688.52,404.15,688.5,404.15z"/>
				</g>
				<g>
					<path class="st7" d="M679.61,415.33c-0.22,0-0.42-0.14-0.48-0.36c-1.01-3.45,3.35-11.38,3.71-12.02
						c0.19-0.45,0.58-0.79,1.06-0.9c0.49-0.11,1.01,0.02,1.38,0.37l0.88,0.83c0.2,0.19,0.21,0.51,0.02,0.71
						c-0.19,0.2-0.51,0.21-0.71,0.02l-0.88-0.83c-0.12-0.12-0.29-0.16-0.46-0.12c-0.17,0.04-0.3,0.15-0.36,0.31
						c-0.01,0.02-0.02,0.05-0.03,0.07c-1.27,2.26-4.39,8.7-3.64,11.28c0.08,0.27-0.08,0.55-0.34,0.63
						C679.7,415.33,679.66,415.33,679.61,415.33z"/>
				</g>
			</g>
		</g>
		<path class="st11" d="M705.9,273.94c-17.43,6.92-41.38,23-53.07,68.41c-6.24,24.24-9.24,22.44-9.56,31.38
			c-0.15,4.03,17.57,17.43,37.28,22.38c19.71,4.95,50.52,1.65,51.23-7.41c1.33-16.97-15.11-22.29,5.56-42.95
			c19.01-19.01,20.55-29.77,10.82-39.5C738.44,296.52,710.47,272.12,705.9,273.94z"/>
		<g>
			<g>
				<path class="st6" d="M719,195.65c6.36-0.2,8.82-9.24,14-12.8c1.94-1.34,7.87-2.31,10.23-3.53c3.93-2.02,5.18-4.43,2.2-4.06
					c-2.05,0.26-9.39-0.54-15.54,2.04c-8.18,3.44-16.56,7.75-16.02,9.8C714.81,190.67,719,195.65,719,195.65z"/>
			</g>
			<path class="st11" d="M679.31,291.06c-3.53-14.64-20.07-60.13-11.73-67.47c12.93-11.4,47.71-44.55,50.75-40.38
				c3.04,4.17,12.82,7.85,3.69,15.75c-9.14,7.9-29.12,33.68-28.48,36.39c0.65,2.7,14.57,41.24,18.18,49.26
				C715.97,294.08,679.31,291.06,679.31,291.06z"/>
		</g>
		<g>
			<path class="st6" d="M700.14,390.46c-0.83,0.17-1.37,0.99-1.2,1.82l0,0c0.17,0.83,0.99,1.37,1.82,1.2l9.81-2.03
				c0.33-0.07,0.66,0.14,0.73,0.48l0,0c0.07,0.33-0.14,0.66-0.48,0.73l-12.22,2.53c-0.83,0.17-1.37,0.99-1.2,1.82l0,0
				c0.17,0.83,0.99,1.37,1.82,1.2l12.22-2.53c0.33-0.07,0.66,0.14,0.73,0.48l0,0c0.07,0.33-0.14,0.66-0.48,0.73l-9.81,2.03
				c-0.83,0.17-1.37,0.99-1.2,1.82l0,0c0.17,0.83,0.99,1.37,1.82,1.2l10.41-2.16c0.33-0.07,0.66,0.14,0.73,0.48l0,0
				c0.07,0.33-0.15,0.66-0.48,0.73l-6.19,1.28c-0.83,0.17-1.37,0.99-1.2,1.82v0c0.17,0.83,0.99,1.37,1.82,1.2l12.43-2.58
				c0,0,11.2-2.19,18.39-6.22c3.58-2.01,0.61-15.62-3.11-15.76C728.23,380.45,700.14,390.46,700.14,390.46z"/>
			<path class="st11" d="M748.17,306.25c14.95,7.9,53.83,57.24,41.45,67.73c-14.03,11.88-55,25.13-55,25.13l-4.4-17.47
				c-3.76-1.53,31.85-14.76,31.56-17.77c-0.67-6.87-24.75-23.17-24.75-30.41C737.03,326.22,748.17,306.25,748.17,306.25z"/>
		</g>
		<g>
			<path class="st6" d="M732.97,294.74c5.96,6.68-3.95,12.44-14.53,7.52c-11.43-5.32-12.9-21.77-5.32-21.77
				C720.7,280.48,732.97,294.74,732.97,294.74z"/>
			<g>
				<g>
					<path class="st12" d="M713.26,285.14c0.16,4.94,4.94,13.24,13.98,13.89c2.19,0.16,4.19-0.37,6.08-1.37l1.88-4.24l4.57-6.13
						l3.13-5.87l-17.83-11.05l-4.09,5.15l-4.32,5.44L713.26,285.14z"/>
					<path class="st6" d="M754.98,275.59c-8.79,8.42-14.7,19.58-23.79,18.92c-9.09-0.65-13.88-9.06-13.98-13.99
						c-0.1-4.93,7.36-19.13,8.49-22.8c1.27-4.15,14.03-12.64,23.8-5.15C759.26,260.07,759.37,271.39,754.98,275.59z"/>
					<g>
						<path class="st13" d="M758.67,258.74c0.34,5.71-10.61,3.13-17.58-0.4c-4.18-2.12-7.26-5.97-8.73-5.15
							c-4.33,2.4-6.51,9.4-7.47,7.35c-0.96-2.05,4.77-14.53,15.2-14.39C750.52,246.29,758.35,253.32,758.67,258.74z"/>
						<path class="st13" d="M754.23,260.56c0.72,3.33,1.01,6.43-1.5,12.47c-2.5,6.04,0.3,5.38,1.54,4.47
							c1.23-0.91,9.22-9.33,7.07-15.53C759.2,255.78,754.23,260.56,754.23,260.56z"/>
					</g>
					<path class="st6" d="M751.51,277.58c2.33,0.18,4.86,0.15,3.23,2.98c-1.63,2.83-6.57,8.7-9.18,7.16
						c-2.62-1.54-2.13-3.36-2.13-3.36L751.51,277.58z"/>
					<path class="st6" d="M725.41,262.94c-0.21-1.57-0.31-5.55-2.1-4.52c-3.7,2.13-6.02,11.37-4.83,12.71s2.7,1.25,2.7,1.25
						L725.41,262.94z"/>
				</g>
			</g>
			<path class="st14" d="M741.59,274.71c-0.27,0.41-0.16,0.97,0.26,1.24c0.41,0.27,0.97,0.16,1.24-0.26s0.16-0.97-0.26-1.24
				C742.41,274.18,741.86,274.3,741.59,274.71z"/>
			<path class="st14" d="M731.23,267.91c-0.27,0.41-0.16,0.97,0.26,1.24c0.41,0.27,0.97,0.16,1.24-0.26s0.16-0.97-0.26-1.24
				C732.05,267.39,731.5,267.5,731.23,267.91z"/>
			<g>
				<path class="st15" d="M733.6,279.05c-0.06,0-0.13-0.02-0.18-0.05l-1.81-1.19c-0.15-0.1-0.19-0.3-0.1-0.46
					c0.1-0.15,0.3-0.19,0.46-0.1l1.5,0.99l3.24-6.36c0.08-0.16,0.28-0.23,0.44-0.14c0.16,0.08,0.23,0.28,0.14,0.44l-3.41,6.69
					c-0.04,0.08-0.12,0.14-0.21,0.17C733.66,279.04,733.63,279.05,733.6,279.05z"/>
			</g>
			<g>
				<path class="st16" d="M747.14,274.26c-0.09,0-0.19-0.04-0.25-0.12c-1.34-1.65-3.46-2.74-5.81-3.01
					c-0.18-0.02-0.31-0.18-0.29-0.36c0.02-0.18,0.19-0.31,0.36-0.29c2.52,0.28,4.8,1.47,6.25,3.24c0.11,0.14,0.09,0.34-0.05,0.46
					C747.29,274.24,747.21,274.26,747.14,274.26z"/>
			</g>
			<g>
				<path class="st16" d="M736.23,267.11c-0.09,0-0.19-0.04-0.25-0.12c-1.34-1.65-3.46-2.74-5.81-3.01
					c-0.18-0.02-0.31-0.18-0.29-0.36c0.02-0.18,0.19-0.31,0.36-0.29c2.52,0.29,4.8,1.47,6.25,3.24c0.11,0.14,0.09,0.34-0.05,0.46
					C736.38,267.09,736.31,267.11,736.23,267.11z"/>
			</g>
			<path class="st17" d="M727.15,278.09c-1.56,5.72,3.61,9.1,8.23,5.39"/>
			<g>
				<path class="st13" d="M736.57,287.56c0.32-1.62-1.14-6.67-4.19-7c-3.05-0.33-2.47,2.84-0.66,4.52
					C733.53,286.74,736.57,287.56,736.57,287.56z"/>
				<path class="st13" d="M722.94,278.62c1.36-0.94,6.57-1.62,8.09,1.05c1.52,2.67-1.62,3.4-3.88,2.4
					C724.9,281.08,722.94,278.62,722.94,278.62z"/>
			</g>
		</g>
		<g>
			<g>
				<path class="st18" d="M741.8,341.51c-0.27,0-0.49-0.22-0.49-0.49c0-0.09-0.11-8.54-4.03-10.27c-0.25-0.11-0.36-0.4-0.25-0.64
					c0.11-0.25,0.4-0.36,0.64-0.25c4.5,1.98,4.61,10.78,4.61,11.15C742.29,341.29,742.07,341.51,741.8,341.51
					C741.8,341.51,741.8,341.51,741.8,341.51z"/>
			</g>
			<g>
				<path class="st18" d="M767.25,367.2c-0.17,0-0.34-0.09-0.43-0.25c-1.15-2.09-4.75-2.58-4.78-2.59c-0.2-0.03-0.37-0.17-0.41-0.37
					c-0.05-0.2,0.03-0.4,0.2-0.52c0.06-0.04,6.41-4.22,10.91-0.01c0.2,0.18,0.21,0.49,0.02,0.69c-0.18,0.2-0.49,0.21-0.69,0.02
					c-2.88-2.7-6.72-1.4-8.59-0.5c1.33,0.37,3.3,1.17,4.2,2.8c0.13,0.24,0.04,0.53-0.19,0.66
					C767.41,367.18,767.33,367.2,767.25,367.2z"/>
			</g>
			<g>
				<path class="st18" d="M708.07,283.1c-0.07,0-0.13-0.02-0.19-0.06c-2.15-1.57-0.67-7.48-0.4-8.5c-0.04-0.05-0.08-0.08-0.1-0.08
					c-0.01,0-0.71,0.08-1.54,4.88c-0.03,0.18-0.2,0.3-0.38,0.27c-0.18-0.03-0.3-0.2-0.27-0.38c0.8-4.66,1.54-5.34,2.09-5.42
					c0.43-0.06,0.72,0.31,0.83,0.54c0.03,0.07,0.04,0.15,0.02,0.23c-0.51,1.81-1.49,6.76,0.12,7.93c0.15,0.11,0.18,0.31,0.07,0.46
					C708.27,283.05,708.17,283.1,708.07,283.1z"/>
			</g>
		</g>
	</g>
	<g id="woman" class="st4">
		<g>
			<path class="st6" d="M921.11,288.17l-18.57,28.85l-6.53-30.16c2.51-3.14,1.28-7.85,0.61-11.42l21-0.73
				C918.55,278.88,918.86,287.24,921.11,288.17z"/>
		</g>
		<path class="st6" d="M946.76,553.04c-0.07,9.11-2.19,26.38-2.68,33.9c-0.53,8.1-1.78,14.05-4.76,15.23
			c-3.5,1.39-5.2,4.58-7.03-3.28c-0.41-1.78-0.81-5.02-1.19-8.75c-0.62-6.19-4.23-33.74-4.65-38.01
			C924.89,536.08,946.76,553.04,946.76,553.04z"/>
		<path class="st6" d="M911.83,553.56c0.41,10.64-1.11,28.62-0.63,35.83c0.49,7.43-0.12,9.23-4.36,11.15
			c-1.59,0.72-6.08-0.17-7.57-2.22c-4.86-6.68-6.12-25.68-8.51-41.37C888.02,538.89,911.83,553.56,911.83,553.56z"/>
		<g>
			<path class="st9" d="M882.66,598.3c1.21-0.65,2.4-1.27,3.43-2.04c2.39-1.79,4.72-4.78,6.45-8.24c1.3-2.6,1.86-3.16,3.92-2.42
				c2.07,0.74,5.44,0.24,5.35,1.52c-0.02,0.33-0.27,0.83-0.71,1.43c2.76,0.67,7.9,1.09,10.09,0.09c1.49-0.68,2.98,7.51,3.05,11.58
				c0.09,5.23-2.16,6.09-5.7,6.54c0,0-33.84,5.56-35.47,1.76C870.32,602.09,876.82,601.41,882.66,598.3z"/>
		</g>
		<path class="st9" d="M930.86,593.5c0.33-2.26,0.75-1.58,2.85-1.18c0.01-0.59,0.04-1.07,0.06-1.38c0.07-1.12,3.12,0.06,6.87-0.69
			c1.5-0.3,1.57-0.04,1.8,1.19c0.35-0.18,0.53-0.29,0.97-0.23c0.83,0.12,2.64,5.21,4.07,8.64c1.43,3.42,3.87,7.32,3.97,10.07
			c0.13,3.43-1.14,7.82-9.02,7.92c-7.89,0.1-10.18-3.56-10.72-7.54C931.27,607.04,930.15,598.28,930.86,593.5z"/>
		<path class="st8" d="M956.21,385.38c-7.14-19.71-17.05,14.3-37.72,13.73c-20.67-0.57-38.52-10.91-42.35,2.32
			c-9.23,31.9-0.91,65.09,2.06,91.04c2.58,22.57,7.88,86.59,7.93,87.26c0.3,3.94,27.13,1.4,27.66-2.92
			c0.08-0.61,1.88-137.99,4.85-137.25c2.98,0.73,4.81,136.69,4.85,137.13c0.56,5.49,26.19,5.86,26.64,0.74
			C950.22,576.6,963.32,405,956.21,385.38z"/>
		<path class="st7" d="M926.03,437.21c-5.12,0.17-8.32,0.66-14.87,2.83c-0.46,0.15-0.26,0.88,0.2,0.73
			c4.78-1.59,9.61-2.63,14.67-2.8C926.52,437.95,926.52,437.19,926.03,437.21z"/>
		
			<ellipse transform="matrix(0.3401 -0.9404 0.9404 0.3401 330.6861 1026.881)" class="st13" cx="897" cy="277.83" rx="13.52" ry="11.25"/>
		<g>
			<path class="st19" d="M916.98,277.78c12.33,7.73,38.04,47.47,37.62,73.32c-0.43,26.02,3.42,30.23,2.61,39.35
				c-0.37,4.1-17.41,15.93-38.03,18.42c-20.61,2.49-40.69-4.83-44.6-13.25c-9.64-20.78,11.78-21.47-6.53-45.05
				c-16.84-21.69-17.03-32.8-5.92-41.42S909.82,273.29,916.98,277.78z"/>
			<path class="st6" d="M900.05,400.63c0.82,0.28,1.26,1.18,0.98,2l0,0c-0.28,0.82-1.18,1.26-2,0.98l-9.68-3.31
				c-0.33-0.11-0.69,0.06-0.8,0.39l0,0c-0.11,0.33,0.06,0.69,0.39,0.8l12.06,4.13c0.82,0.28,1.26,1.18,0.98,2l0,0
				c-0.28,0.82-1.18,1.26-2,0.98l-12.06-4.13c-0.33-0.11-0.69,0.06-0.8,0.39l0,0c-0.11,0.33,0.06,0.69,0.39,0.8l9.68,3.31
				c0.82,0.28,1.26,1.18,0.98,2l0,0c-0.28,0.82-1.18,1.26-2,0.98l-10.27-3.52c-0.33-0.11-0.69,0.06-0.8,0.39l0,0
				c-0.11,0.33,0.06,0.69,0.39,0.8l6.11,2.09c0.82,0.28,1.26,1.18,0.98,2l0,0c-0.28,0.82-1.18,1.26-2,0.98l-12.27-4.2
				c0,0-11.07-3.65-17.84-8.66c-3.38-2.49,1.37-15.91,5.17-15.58C872.86,386.89,900.05,400.63,900.05,400.63z"/>
			<g>
				<g>
					<g>
						<path class="st6" d="M892.52,201.05c-6.55-1.3-7.55-11.08-12.29-15.66c-1.78-1.72-7.75-3.75-9.99-5.41
							c-3.72-2.77-4.6-5.48-1.58-4.58c2.08,0.62,9.82,1.05,15.74,4.78c7.88,4.97,15.81,10.88,14.91,12.9
							C897.72,196.62,892.52,201.05,892.52,201.05z"/>
					</g>
					<path class="st19" d="M930.27,302.66c5.62-16.29,25.79-66.12,17-73.78c-13.64-11.88-50.35-46.45-53.52-42.06
						c-3.16,4.4-13.41,8.32-3.77,16.55c9.64,8.24,30.78,35.17,30.12,38.01c-0.66,2.84-15.03,43.38-18.76,51.82
						C896.92,303.18,930.27,302.66,930.27,302.66z"/>
				</g>
				<path class="st19" d="M862.13,309.14c-16.16,6.09-61.88,51.14-50.67,63.35c12.7,13.84,52.54,32.51,52.54,32.51l6.69-17.14
					c4.01-1.07-30.4-19.03-29.71-22.05c1.55-6.88,28.05-20.33,28.97-27.67C870.88,330.81,862.13,309.14,862.13,309.14z"/>
				<g>
					<path class="st6" d="M876.87,298.62c-6.89,6.01,4.55,13.92,15.9,10.28c12.26-3.93,15.86-20.42,8.18-21.39
						C893.27,286.54,876.87,298.62,876.87,298.62z"/>
				</g>
				<g>
					<path class="st20" d="M864.15,345.7c-0.02,0-0.04,0-0.07,0c-0.27-0.04-0.47-0.29-0.43-0.56c0.05-0.38,1.29-9.29,6.1-10.72
						c0.26-0.08,0.54,0.07,0.62,0.34c0.08,0.26-0.07,0.54-0.34,0.62c-4.19,1.24-5.38,9.8-5.39,9.89
						C864.61,345.52,864.4,345.7,864.15,345.7z"/>
				</g>
				<g>
					<path class="st20" d="M835.07,368.48c-0.1,0-0.2-0.03-0.29-0.1c-0.22-0.16-0.27-0.47-0.11-0.7c1.12-1.54,3.22-2.1,4.62-2.3
						c-1.77-1.15-5.5-2.96-8.77-0.59c-0.22,0.16-0.54,0.11-0.7-0.11c-0.16-0.22-0.11-0.54,0.11-0.7c5.09-3.69,10.99,1.35,11.05,1.4
						c0.16,0.14,0.21,0.36,0.14,0.55c-0.07,0.2-0.26,0.32-0.46,0.33c-0.04,0-3.76,0.05-5.18,2.01
						C835.38,368.41,835.22,368.48,835.07,368.48z"/>
				</g>
				<g>
					<path class="st20" d="M908.38,291.01c-0.06,0-0.13-0.01-0.19-0.04c-0.26-0.1-0.38-0.39-0.28-0.65
						c0.65-1.62-2.36-5.89-4.42-8.19c-0.07-0.08-0.11-0.17-0.12-0.27c-0.05-0.4,0.09-0.9,0.52-1.09c0.61-0.27,1.67-0.06,4.94,3.6
						c0.18,0.21,0.17,0.52-0.04,0.71c-0.21,0.18-0.52,0.17-0.71-0.04c-2.23-2.5-3.22-3.14-3.6-3.3c1.17,1.35,5.36,6.46,4.36,8.96
						C908.76,290.89,908.58,291.01,908.38,291.01z"/>
				</g>
			</g>
		</g>
		<g>
			
				<ellipse transform="matrix(0.9425 -0.3342 0.3342 0.9425 -37.6095 303.4774)" class="st13" cx="863.03" cy="261.02" rx="13.7" ry="13.7"/>
			
				<ellipse transform="matrix(0.9306 -0.3661 0.3661 0.9306 -32.0149 339.7439)" class="st13" cx="879.92" cy="254.3" rx="13.7" ry="13.7"/>
			
				<ellipse transform="matrix(0.4488 -0.8936 0.8936 0.4488 218.7363 934.3495)" class="st13" cx="866.81" cy="289.85" rx="11.25" ry="13.52"/>
		</g>
		<g>
			<path class="st12" d="M889.59,270.96l7.36,19.86c-1.58,4.1-4.37,7.51-8.27,8.96c-0.8,0.3-1.61,0.5-2.44,0.61
				c-2.79,0.4-5.72-0.17-8.46-1.42l-7.7-20.78L889.59,270.96z"/>
			<path class="st6" d="M890.69,257.37l5.26,14.18c3.19,8.61,0.01,21.43-8.61,24.62c-0.8,0.3-1.61,0.5-2.44,0.61
				c-8.1,1.15-17.24-5.86-20.13-13.68l-5.26-14.18c-1.43-3.85,0.54-8.12,4.38-9.54l17.26-6.4
				C884.99,251.56,889.26,253.52,890.69,257.37z"/>
			<path class="st14" d="M874.12,276.99c0.19,0.51-0.07,1.08-0.58,1.27c-0.51,0.19-1.08-0.07-1.27-0.58
				c-0.19-0.51,0.07-1.08,0.58-1.27S873.93,276.48,874.12,276.99z"/>
			<path class="st14" d="M885.87,272.11c0.19,0.51-0.07,1.08-0.58,1.27c-0.51,0.19-1.08-0.07-1.27-0.58
				c-0.19-0.51,0.07-1.08,0.58-1.27C885.12,271.34,885.68,271.6,885.87,272.11z"/>
			<path class="st9" d="M879.53,286.96c2.83,3.58,8.6,1.45,8.41-3.12"/>
			
				<ellipse transform="matrix(0.929 -0.3701 0.3701 0.929 -33.5195 340.9068)" class="st13" cx="871.53" cy="257.79" rx="17.03" ry="10.19"/>
			
				<ellipse transform="matrix(0.9946 -0.1034 0.1034 0.9946 -23.7983 89.9272)" class="st13" cx="855.11" cy="274.41" rx="9.33" ry="11.84"/>
			
				<ellipse transform="matrix(0.7932 -0.6089 0.6089 0.7932 27.5544 598.3394)" class="st13" cx="894.79" cy="258.6" rx="9.33" ry="11.84"/>
			<g>
				<path class="st15" d="M882.05,282.09c-0.59,0-1.12-0.37-1.32-0.94l-2.6-7.13c-0.07-0.18,0.03-0.38,0.21-0.45
					c0.18-0.07,0.38,0.03,0.45,0.21l2.6,7.13c0.12,0.33,0.45,0.52,0.78,0.46l0.93-0.16c0.19-0.03,0.37,0.1,0.4,0.29
					c0.03,0.19-0.09,0.37-0.29,0.4l-0.93,0.16C882.21,282.08,882.13,282.09,882.05,282.09z"/>
			</g>
		</g>
	</g>
	<g id="cat" class="st4">
		<g>
			<path class="st21" d="M813.51,593.54c-0.92-0.13-1.87-0.31-2.85-0.54l0.94-3.95c5.04,1.2,8.74,0.76,11.3-1.37
				c5.91-4.9,5.27-18.1,4.75-28.71c-0.44-9.17-0.59-14.49,1.93-16.77c3.4-3.07,4.15,1.68,2.81,3.02c-0.02,0.02-0.74,0.87-0.9,3.94
				c-0.13,2.58,0.04,6,0.21,9.62c0.56,11.51,1.25,25.84-6.22,32.03C822.49,593.3,818.47,594.21,813.51,593.54z"/>
		</g>
		<g>
			<path class="st9" d="M790.36,593.84c-10.65-12.99-4.04-15.68,0.46-11.89c-2.2-7.19,4.29-18.49,4.29-18.49l8.6,0.31l8.6-0.31
				c0,0,6.49,11.29,4.29,18.49c4.5-3.79,11.11-1.1,0.46,11.89c0,0,5.13,1.09,2.64,3.57c-2.48,0-6.55,0-10.5,0c0,0-5.35,0-10.98,0
				c-3.94,0-8.02,0-10.5,0C785.23,594.93,790.36,593.84,790.36,593.84z"/>
			<g>
				<path class="st9" d="M812.49,584.26l-3.93,13.07h0.31c1.75,0,3.2,1.28,3.5,2.95h-6.85h-0.34V588.3"/>
				<path class="st9" d="M801.81,588.3v11.99h-0.34h-6.85c0.29-1.67,1.73-2.95,3.5-2.95h0.3l-3.93-13.07"/>
			</g>
			<g>
				<path class="st9" d="M812.49,584.26l-3.93,13.07h0.31c1.75,0,3.2,1.28,3.5,2.95h-6.85h-0.34V588.3"/>
				<path class="st9" d="M801.81,588.3v11.99h-0.34h-6.85c0.29-1.67,1.73-2.95,3.5-2.95h0.3l-3.93-13.07"/>
			</g>
		</g>
		<path class="st9" d="M790.21,542.55L789,530l9.86,8.12c1.59-0.37,3.25-0.58,4.98-0.58c1.92,0,3.75,0.26,5.49,0.71l-0.05-0.03
			l9.98-8.22l-1.26,13.02c2.63,2.61,4.21,5.96,4.21,9.62c0,8.34-8.23,16.49-18.38,16.49s-18.38-8.15-18.38-16.49
			C785.47,548.76,787.27,545.22,790.21,542.55z"/>
		<g>
			<g>
				<path class="st22" d="M806.34,556.63c-1.64,0-2.97-1.03-2.97-2.31v-0.92h0.93v0.92c0,0.75,0.93,1.37,2.04,1.37V556.63z"/>
			</g>
			<g>
				<path class="st22" d="M801.34,556.63v-0.93c1.1,0,2.04-0.63,2.04-1.37v-1.85h0.93v1.85
					C804.31,555.6,802.98,556.63,801.34,556.63z"/>
			</g>
		</g>
		<g>
			<g>
				<g>
					<path class="st13" d="M795.1,551.66c-0.04,0-0.08-0.01-0.12-0.02l-12.64-4.33c-0.2-0.07-0.31-0.29-0.24-0.49
						c0.07-0.2,0.29-0.31,0.49-0.24l12.64,4.33c0.2,0.07,0.31,0.29,0.24,0.49C795.41,551.56,795.26,551.66,795.1,551.66z"/>
				</g>
				<g>
					<path class="st13" d="M782.17,557.08c-0.17,0-0.32-0.11-0.37-0.28c-0.06-0.2,0.06-0.42,0.27-0.48l12.93-3.67
						c0.2-0.06,0.42,0.06,0.48,0.27c0.06,0.2-0.06,0.42-0.27,0.48l-12.93,3.67C782.24,557.07,782.2,557.08,782.17,557.08z"/>
				</g>
			</g>
			<g>
				<g>
					<path class="st13" d="M812.59,551.66c-0.16,0-0.31-0.1-0.36-0.26c-0.07-0.2,0.04-0.42,0.24-0.49l12.64-4.33
						c0.2-0.07,0.42,0.04,0.49,0.24c0.07,0.2-0.04,0.42-0.24,0.49l-12.64,4.33C812.67,551.66,812.63,551.66,812.59,551.66z"/>
				</g>
				<g>
					<path class="st13" d="M825.51,557.08c-0.03,0-0.07,0-0.1-0.01l-12.93-3.67c-0.2-0.06-0.32-0.27-0.27-0.48
						c0.06-0.2,0.27-0.32,0.48-0.27l12.93,3.67c0.2,0.06,0.32,0.27,0.27,0.48C825.84,556.97,825.68,557.08,825.51,557.08z"/>
				</g>
			</g>
		</g>
		<g>
			<path class="st8" d="M796.43,547.88c0.04-0.91,0.75-1.63,1.63-1.63c0.88,0,1.59,0.72,1.63,1.63H796.43z"/>
			<path class="st8" d="M808.92,547.88c0.03-0.91,0.75-1.63,1.63-1.63s1.59,0.72,1.63,1.63H808.92z"/>
		</g>
		<path class="st19" d="M805.93,550.99c-0.04-0.47-0.44-0.85-0.95-0.88c-0.53-0.04-0.99,0.31-1.14,0.79
			c-0.16-0.48-0.61-0.83-1.14-0.79c-0.51,0.03-0.91,0.41-0.95,0.88c-0.05,0.62,0.36,1.33,0.92,1.93c0.63,0.67,1.71,0.67,2.34,0
			C805.57,552.32,805.98,551.6,805.93,550.99z"/>
	</g>
	<g id="bird_1_" class="st4">
		<g id="bird">
			<g>
				<polygon class="st8" points="814.04,179.72 810.49,179.96 814.62,179.38 813.69,167.32 814.28,167.28 815.2,179.2 815.23,179.6 
					815.15,179.65 811.73,182.22 814.48,179.83 810.82,181.2 				"/>
				<polygon class="st8" points="819.73,177.46 819.1,167.83 819.69,167.79 820.31,177.19 820.35,177.77 818.42,181.35 
					819.84,178.07 817.11,180.92 819.53,177.96 816.24,179.98 				"/>
			</g>
			<path class="st23" d="M833.78,156.81c4.12-3.64,10.13-6.22,10.88-3.51C845.84,157.61,835.86,157.14,833.78,156.81L833.78,156.81z
				 M832.81,157.13c-5.68-0.94-11.83-4.46-9.95-6.49C825.53,147.78,831.58,155.26,832.81,157.13L832.81,157.13z M833.26,156.75
				c-2.13-1.52-1.32-13.72,2.38-12.09C838.9,146.11,834.23,155.36,833.26,156.75L833.26,156.75z"/>
			<g>
				<path class="st24" d="M803.29,173.51c15.04,9.63,26.34-6.99,30.33-16.94c-10.28,5.81-25.51-10.91-35.27,2.17
					C794.17,164.33,798.5,170.04,803.29,173.51L803.29,173.51z"/>
				<path class="st23" d="M797.17,165.91c-0.59,0.63-1.13,1.25-1.58,2.12l-0.07,0.02c0.94,0.3,2.73,0.79,3.95,0.65
					C798.62,167.85,797.82,166.91,797.17,165.91L797.17,165.91z"/>
			</g>
		</g>
		<path class="st8" d="M803.34,166.83c-1.25-0.18-2.11-1.33-1.93-2.58c0.03-0.18,0.07-0.35,0.14-0.51c0.1,1.03,0.88,1.9,1.95,2.05
			c1.07,0.15,2.07-0.46,2.44-1.42c0.02,0.17,0.01,0.35-0.01,0.53C805.74,166.15,804.59,167.01,803.34,166.83z"/>
	</g>
</g>
<g id="Laag_4">
	<g>
		<defs>
			<rect id="SVGID_1_" x="545.75" y="82.31" width="301.14" height="620.96"/>
		</defs>
		<clipPath id="SVGID_2_">
			<use xlink:href="#SVGID_1_"  style="overflow:visible;"/>
		</clipPath>
		<g id="birdhouse_4_" class="st25">
			<g>
				<g>
					
						<rect x="592.52" y="490.28" transform="matrix(0.0872 -0.9962 0.9962 0.0872 233.3898 1236.6793)" class="st5" width="398.07" height="1.4"/>
				</g>
				<g>
					<polygon class="st5" points="846.06,304.43 545.33,83.74 244.61,304.43 243.78,303.31 545.33,82.01 545.75,82.31 
						846.89,303.31 					"/>
				</g>
				<g>
					<rect x="294.93" y="689.23" class="st5" width="500.81" height="1.4"/>
				</g>
				<g>
					
						<rect x="298.42" y="291.94" transform="matrix(0.9962 -0.0872 0.0872 0.9962 -41.6748 27.9538)" class="st5" width="1.4" height="398.07"/>
				</g>
			</g>
			<g>
				<path class="st5" d="M545.33,246.16c-22.84,0-41.42-18.58-41.42-41.42s18.58-41.42,41.42-41.42c22.84,0,41.42,18.58,41.42,41.42
					S568.18,246.16,545.33,246.16z M545.33,164.7c-22.07,0-40.03,17.96-40.03,40.03s17.96,40.03,40.03,40.03
					c22.07,0,40.03-17.96,40.03-40.03S567.41,164.7,545.33,164.7z"/>
			</g>
			<g>
				<path class="st5" d="M545.13,246.44c-22.84,0-41.42-18.58-41.42-41.42s18.58-41.42,41.42-41.42c22.84,0,41.42,18.58,41.42,41.42
					S567.98,246.44,545.13,246.44z M545.13,164.99c-22.07,0-40.03,17.96-40.03,40.03s17.96,40.03,40.03,40.03
					c22.07,0,40.03-17.96,40.03-40.03S567.21,164.99,545.13,164.99z"/>
			</g>
		</g>
		<polygon id="bottom_4_" class="st26" points="773.96,689.8 316.24,689.8 311.68,634.64 778.98,634.64 		"/>
		<g id="man_4_" class="st25">
			<g>
				<path class="st6" d="M452.99,630.51c1.68,7.7,0.64,19.25,3.05,21.96c2.41,2.71,18.72,10.95,28.27,12.38
					c8.43,1.27,10.1-6.01,4.39-8.42c-5.71-2.41-16.91-11.61-17.35-20.54C470.89,626.97,452.99,630.51,452.99,630.51z"/>
				<path class="st6" d="M389.43,635.96c-1.13,10.52-3.5,18.84-5.07,20.88c-1.57,2.04-11.2,1.27-15.84,6.34
					c-1.81,1.98-21.06,5.48-23.06,0.95c-2-4.53,0.78-2.59,6.54-8.13c5.76-5.54,17.38-7.2,18.15-16.45
					C370.97,629.66,389.43,635.96,389.43,635.96z"/>
				<path class="st6" d="M471.43,525.89c3.02,12.92,1.19,24.77,1.19,31.23s2.34,83.57-2.61,88.52c-4.95,4.95-8.2,10.14-14.66-3.22
					c-6.46-13.35-14.71-41.69-16.47-76.37c-0.75-14.76-5.05-24.79-5.05-24.79L471.43,525.89z"/>
				<path class="st6" d="M404.93,545.64c4.97,21.97-14.86,86.53-17.16,96.63c-2.3,10.11-9.84,8.97-14.83,8.08
					c-4.99-0.89-6.79-35.63-7.11-58.92c-0.32-23.28,2.38-53.16,2.38-53.16L404.93,545.64z"/>
				<path class="st7" d="M473.17,633.98c-0.18,3.21,0.92,5.31-3.16,5.7c-4.08,0.4-16.16,2.2-17.02-0.15
					c-0.86-2.35-0.81-4.53-0.81-4.53L473.17,633.98z"/>
				<path class="st7" d="M390.75,634.41c-0.66,4.56,0.66,4.34-2.87,5.02c-3.53,0.68-20.85,2.64-21.78-0.21c-0.93-2.85,0-4.82,0-4.82
					H390.75z"/>
				<path class="st8" d="M470.51,438.4c2.78,0,7.34,56.34,10.13,107.73c2.5,45.93-1.27,86.24-6.78,89.77
					c-3.83,2.45-21.6,4.29-24.25,0c-7.87-12.75-11.01-49.88-16.8-83.76c-5.34-31.22-9.34-57.44-10.62-53.23
					c-0.25,0.82-3.54,28.09-8.14,58.85c-6.09,40.7-16.82,78.79-23.47,79.6c-8.23,1.01-24.61,2.34-26.95-3.37
					c-1.93-4.72-0.81-41.74,2.18-82.74c2.46-33.76,7.69-68.51,12.03-91.02c4.34-22.47,11.65-28.47,11.65-28.47L470.51,438.4z"/>
				<g>
					<path class="st9" d="M472.61,641.19c-1.88-1.29-6.66-0.63-7.66,2.95c-1,3.58-1.74,5.21-3.94,2.43
						c-2.21-2.78-7.69-5.67-8.39-3.46c-0.7,2.21,1.21,12.11,2.51,14.12c1.31,2.01,27.35,12.79,35.37,10.27
						c9.2-2.89,9.08-7.3-0.42-12.68c-9.49-5.38-13.25-7.74-14.54-9.42C474.25,643.72,472.61,641.19,472.61,641.19z"/>
					<path class="st10" d="M455.52,653.18c2.2,2.63,5.82,4.99,11.57,5.79c5.75,0.8,12.38,5.33,17.99,4.26
						c5.61-1.07,3.93-2.62,8.34-3.16c3.87-0.47,3.58,0.76,3.58,0.76c1.15,2.69,0.97,5.33-4.51,7.05c-3.24,1.01-9.34,0.45-15.91-1.48
						c-9.7-2.86-21.56-7.11-22.34-8.3c-0.46-0.7-1.26-4.56-0.87-6.54C453.5,651.7,455.38,653.01,455.52,653.18z"/>
				</g>
				<g>
					<path class="st9" d="M367.97,642c1.84-1.36,6.63-0.85,7.75,2.69c1.12,3.54,1.91,5.15,4.02,2.3c2.11-2.85,7.5-5.93,8.27-3.74
						c0.77,2.18-0.79,12.15-2.03,14.19c-1.24,2.05-26.9,13.71-35,11.46c-9.3-2.57-9.32-6.99-0.01-12.69
						c9.31-5.7,12.98-8.18,14.21-9.91C366.41,644.58,367.97,642,367.97,642z"/>
					<path class="st10" d="M385.45,653.4c-2.11,2.71-5.65,5.18-11.37,6.18c-5.72,1-12.19,5.75-17.84,4.87
						c-5.65-0.88-4.02-2.49-8.44-2.87c-3.89-0.34-3.55,0.88-3.55,0.88c-1.06,2.72-0.79,5.36,4.75,6.89
						c3.27,0.9,9.35,0.13,15.85-2.02c9.6-3.19,21.3-7.83,22.04-9.06c0.43-0.71,1.1-4.6,0.64-6.56
						C387.42,651.85,385.59,653.23,385.45,653.4z"/>
				</g>
			</g>
			<g>
				<g>
					<path class="st7" d="M425.96,478.75c-0.18,0-0.35-0.1-0.44-0.26c-1.71-3.15,0.87-11.84,1.08-12.54c0.09-0.48,0.4-0.89,0.84-1.1
						c0.46-0.22,0.99-0.19,1.42,0.07l1.04,0.62c0.24,0.14,0.32,0.45,0.17,0.69c-0.14,0.24-0.45,0.32-0.69,0.17l-1.04-0.62
						c-0.15-0.09-0.32-0.1-0.47-0.02c-0.15,0.07-0.26,0.21-0.28,0.38c0,0.02-0.01,0.05-0.02,0.07c-0.76,2.48-2.45,9.43-1.17,11.79
						c0.13,0.24,0.04,0.55-0.2,0.68C426.12,478.73,426.04,478.75,425.96,478.75z"/>
				</g>
				<g>
					<g>
						<path class="st7" d="M429.99,466.48c-5.2,0-11.57-1.63-13.71-4.76c-0.16-0.23-0.1-0.54,0.13-0.7c0.23-0.16,0.54-0.1,0.7,0.13
							c1.95,2.84,7.94,4.32,12.88,4.32c0.02,0,0.03,0,0.05,0c2.88-0.01,5.11-0.55,5.68-1.39c0.16-0.23,0.47-0.29,0.7-0.13
							c0.23,0.16,0.29,0.47,0.13,0.7c-1.12,1.64-4.93,1.83-6.51,1.83C430.03,466.48,430.01,466.48,429.99,466.48z"/>
					</g>
					<g>
						<path class="st7" d="M421.1,477.66c-0.22,0-0.42-0.14-0.48-0.36c-1.01-3.45,3.35-11.38,3.71-12.02
							c0.19-0.45,0.58-0.79,1.06-0.9c0.49-0.11,1.01,0.02,1.38,0.37l0.88,0.83c0.2,0.19,0.21,0.51,0.02,0.71
							c-0.19,0.2-0.51,0.21-0.71,0.02l-0.88-0.83c-0.12-0.12-0.29-0.16-0.46-0.12c-0.17,0.04-0.3,0.15-0.36,0.31
							c-0.01,0.02-0.02,0.05-0.03,0.07c-1.27,2.26-4.39,8.7-3.64,11.28c0.08,0.27-0.08,0.55-0.34,0.63
							C421.2,477.66,421.15,477.66,421.1,477.66z"/>
					</g>
				</g>
			</g>
			<path class="st11" d="M447.4,336.26c-17.43,6.92-41.38,23-53.07,68.41c-6.24,24.24-9.24,22.44-9.56,31.38
				c-0.15,4.03,17.57,17.43,37.28,22.38c19.71,4.95,50.52,1.65,51.23-7.41c1.33-16.97-15.11-22.29,5.56-42.95
				c19.01-19.01,20.55-29.77,10.82-39.5C479.93,358.85,451.97,334.45,447.4,336.26z"/>
			<g>
				<g>
					<path class="st6" d="M460.5,257.98c6.36-0.2,8.82-9.24,14-12.8c1.94-1.34,7.87-2.31,10.23-3.53c3.93-2.02,5.18-4.43,2.2-4.06
						c-2.05,0.26-9.39-0.54-15.54,2.04c-8.18,3.44-16.56,7.75-16.02,9.8C456.3,253,460.5,257.98,460.5,257.98z"/>
				</g>
				<path class="st11" d="M420.8,353.38c-3.53-14.64-20.07-60.13-11.73-67.47c12.93-11.4,47.71-44.55,50.75-40.38
					c3.04,4.17,12.82,7.85,3.69,15.75c-9.14,7.9-29.12,33.68-28.48,36.39c0.65,2.7,14.57,41.24,18.18,49.26
					C457.46,356.41,420.8,353.38,420.8,353.38z"/>
			</g>
			<g>
				<path class="st6" d="M441.64,452.79c-0.83,0.17-1.37,0.99-1.2,1.82l0,0c0.17,0.83,0.99,1.37,1.82,1.2l9.81-2.03
					c0.33-0.07,0.66,0.14,0.73,0.48l0,0c0.07,0.33-0.14,0.66-0.48,0.73l-12.22,2.53c-0.83,0.17-1.37,0.99-1.2,1.82l0,0
					c0.17,0.83,0.99,1.37,1.82,1.2l12.22-2.53c0.33-0.07,0.66,0.14,0.73,0.48l0,0c0.07,0.33-0.14,0.66-0.48,0.73l-9.81,2.03
					c-0.83,0.17-1.37,0.99-1.2,1.82l0,0c0.17,0.83,0.99,1.37,1.82,1.2l10.41-2.16c0.33-0.07,0.66,0.14,0.73,0.48l0,0
					c0.07,0.33-0.14,0.66-0.48,0.73l-6.19,1.28c-0.83,0.17-1.37,0.99-1.2,1.82v0c0.17,0.83,0.99,1.37,1.82,1.2l12.43-2.58
					c0,0,11.2-2.19,18.39-6.22c3.58-2.01,0.61-15.62-3.11-15.76C469.73,442.77,441.64,452.79,441.64,452.79z"/>
				<path class="st11" d="M489.66,368.58c14.95,7.9,53.83,57.24,41.45,67.73c-14.03,11.88-55,25.13-55,25.13l-4.4-17.47
					c-3.76-1.53,31.85-14.76,31.56-17.77c-0.67-6.87-24.75-23.17-24.75-30.41C478.52,388.55,489.66,368.58,489.66,368.58z"/>
			</g>
			<g>
				<path class="st6" d="M474.46,357.07c5.96,6.68-3.95,12.44-14.53,7.52c-11.43-5.32-12.9-21.77-5.32-21.77
					C462.19,342.81,474.46,357.07,474.46,357.07z"/>
				<g>
					<g>
						<path class="st12" d="M454.75,347.47c0.16,4.94,4.94,13.24,13.98,13.89c2.19,0.16,4.19-0.37,6.08-1.37l1.88-4.24l4.57-6.13
							l3.13-5.87l-17.83-11.05l-4.09,5.15l-4.32,5.44L454.75,347.47z"/>
						<path class="st6" d="M496.47,337.92c-8.79,8.42-14.7,19.58-23.79,18.92c-9.09-0.65-13.88-9.06-13.98-13.99
							c-0.1-4.93,7.36-19.13,8.49-22.8c1.27-4.15,14.03-12.64,23.8-5.15C500.76,322.4,500.86,333.72,496.47,337.92z"/>
						<g>
							<path class="st13" d="M500.17,321.06c0.34,5.71-10.61,3.13-17.58-0.4c-4.18-2.12-7.26-5.97-8.73-5.15
								c-4.33,2.4-6.51,9.4-7.47,7.35c-0.96-2.05,4.77-14.53,15.2-14.39C492.02,308.61,499.84,315.65,500.17,321.06z"/>
							<path class="st13" d="M495.72,322.89c0.72,3.33,1.01,6.43-1.5,12.47c-2.5,6.04,0.3,5.38,1.54,4.47
								c1.23-0.91,9.22-9.33,7.07-15.53C500.69,318.1,495.72,322.89,495.72,322.89z"/>
						</g>
						<path class="st6" d="M493,339.91c2.33,0.18,4.86,0.15,3.23,2.98c-1.63,2.83-6.57,8.7-9.18,7.16
							c-2.62-1.54-2.13-3.36-2.13-3.36L493,339.91z"/>
						<path class="st6" d="M466.9,325.27c-0.21-1.57-0.31-5.55-2.1-4.52c-3.7,2.13-6.02,11.37-4.83,12.71s2.7,1.25,2.7,1.25
							L466.9,325.27z"/>
					</g>
				</g>
				<path class="st14" d="M483.08,337.04c-0.27,0.41-0.16,0.97,0.26,1.24c0.41,0.27,0.97,0.16,1.24-0.26
					c0.27-0.41,0.16-0.97-0.26-1.24C483.91,336.51,483.35,336.62,483.08,337.04z"/>
				<path class="st14" d="M472.72,330.24c-0.27,0.41-0.16,0.97,0.26,1.24c0.41,0.27,0.97,0.16,1.24-0.26s0.16-0.97-0.26-1.24
					C473.55,329.71,472.99,329.83,472.72,330.24z"/>
				<g>
					<path class="st15" d="M475.09,341.38c-0.06,0-0.13-0.02-0.18-0.05l-1.81-1.19c-0.15-0.1-0.19-0.3-0.1-0.46
						c0.1-0.15,0.3-0.19,0.46-0.1l1.5,0.99l3.24-6.36c0.08-0.16,0.28-0.23,0.44-0.14c0.16,0.08,0.23,0.28,0.14,0.44l-3.41,6.69
						c-0.04,0.08-0.12,0.14-0.21,0.17C475.15,341.37,475.12,341.38,475.09,341.38z"/>
				</g>
				<g>
					<path class="st16" d="M488.63,336.59c-0.09,0-0.19-0.04-0.25-0.12c-1.34-1.65-3.46-2.74-5.81-3.01
						c-0.18-0.02-0.31-0.18-0.29-0.36c0.02-0.18,0.19-0.31,0.36-0.29c2.52,0.29,4.8,1.47,6.25,3.24c0.11,0.14,0.09,0.34-0.05,0.46
						C488.78,336.57,488.71,336.59,488.63,336.59z"/>
				</g>
				<g>
					<path class="st16" d="M477.73,329.44c-0.09,0-0.19-0.04-0.25-0.12c-1.34-1.65-3.46-2.74-5.81-3.01
						c-0.18-0.02-0.31-0.18-0.29-0.36c0.02-0.18,0.19-0.31,0.36-0.29c2.52,0.28,4.8,1.47,6.25,3.24c0.11,0.14,0.09,0.34-0.05,0.46
						C477.87,329.41,477.8,329.44,477.73,329.44z"/>
				</g>
				<path class="st17" d="M468.64,340.42c-1.56,5.72,3.61,9.1,8.23,5.39"/>
				<g>
					<path class="st13" d="M478.06,349.88c0.32-1.62-1.14-6.67-4.19-7c-3.05-0.33-2.47,2.84-0.66,4.52
						C475.03,349.07,478.06,349.88,478.06,349.88z"/>
					<path class="st13" d="M464.43,340.94c1.36-0.94,6.57-1.62,8.09,1.05c1.52,2.67-1.62,3.4-3.88,2.4
						C466.39,343.41,464.43,340.94,464.43,340.94z"/>
				</g>
			</g>
			<g>
				<g>
					<path class="st18" d="M483.29,403.84c-0.27,0-0.49-0.22-0.49-0.49c0-0.09-0.11-8.54-4.03-10.27c-0.25-0.11-0.36-0.4-0.25-0.64
						c0.11-0.25,0.4-0.36,0.64-0.25c4.5,1.98,4.61,10.78,4.61,11.15C483.78,403.62,483.57,403.84,483.29,403.84
						C483.29,403.84,483.29,403.84,483.29,403.84z"/>
				</g>
				<g>
					<path class="st18" d="M508.74,429.53c-0.17,0-0.34-0.09-0.43-0.25c-1.15-2.09-4.75-2.58-4.78-2.59
						c-0.2-0.03-0.37-0.17-0.41-0.37c-0.05-0.2,0.03-0.4,0.2-0.52c0.06-0.04,6.41-4.22,10.91-0.01c0.2,0.18,0.21,0.49,0.02,0.69
						c-0.18,0.2-0.49,0.21-0.69,0.02c-2.88-2.7-6.72-1.4-8.59-0.5c1.33,0.37,3.3,1.17,4.2,2.8c0.13,0.24,0.04,0.53-0.19,0.66
						C508.9,429.51,508.82,429.53,508.74,429.53z"/>
				</g>
				<g>
					<path class="st18" d="M449.56,345.43c-0.07,0-0.13-0.02-0.19-0.06c-2.15-1.57-0.67-7.48-0.4-8.5c-0.04-0.05-0.08-0.08-0.1-0.08
						c-0.01,0-0.71,0.08-1.54,4.88c-0.03,0.18-0.2,0.3-0.38,0.27c-0.18-0.03-0.3-0.2-0.27-0.38c0.8-4.66,1.54-5.34,2.09-5.42
						c0.43-0.06,0.72,0.31,0.83,0.54c0.03,0.07,0.04,0.15,0.02,0.23c-0.51,1.81-1.49,6.76,0.12,7.93c0.15,0.11,0.18,0.31,0.07,0.46
						C449.76,345.38,449.67,345.43,449.56,345.43z"/>
				</g>
			</g>
		</g>
		<g id="woman_4_" class="st25">
			<g>
				<path class="st6" d="M662.61,350.5l-18.57,28.85l-6.53-30.16c2.51-3.14,1.28-7.85,0.61-11.42l21-0.73
					C660.05,341.21,660.35,349.57,662.61,350.5z"/>
			</g>
			<path class="st6" d="M688.25,615.37c-0.07,9.11-2.19,26.38-2.68,33.9c-0.53,8.1-1.78,14.05-4.76,15.23
				c-3.5,1.39-5.2,4.58-7.03-3.28c-0.41-1.78-0.81-5.02-1.19-8.75c-0.62-6.19-4.23-33.74-4.65-38.01
				C666.38,598.41,688.25,615.37,688.25,615.37z"/>
			<path class="st6" d="M653.33,615.89c0.41,10.64-1.11,28.62-0.63,35.83c0.49,7.43-0.12,9.23-4.36,11.15
				c-1.59,0.72-6.08-0.17-7.57-2.22c-4.86-6.68-6.12-25.68-8.51-41.37C629.51,601.22,653.33,615.89,653.33,615.89z"/>
			<g>
				<path class="st9" d="M624.15,660.63c1.21-0.65,2.4-1.27,3.43-2.04c2.39-1.79,4.72-4.78,6.45-8.24c1.3-2.6,1.86-3.16,3.92-2.42
					s5.44,0.24,5.35,1.52c-0.02,0.33-0.27,0.83-0.71,1.43c2.76,0.67,7.9,1.09,10.09,0.09c1.49-0.68,2.98,7.51,3.05,11.58
					c0.09,5.23-2.16,6.09-5.7,6.54c0,0-33.84,5.56-35.47,1.76C611.81,664.42,618.31,663.74,624.15,660.63z"/>
			</g>
			<path class="st9" d="M672.35,655.83c0.33-2.26,0.75-1.58,2.85-1.18c0.01-0.59,0.04-1.07,0.06-1.38c0.07-1.12,3.12,0.06,6.87-0.69
				c1.5-0.3,1.57-0.04,1.8,1.19c0.35-0.18,0.53-0.29,0.97-0.23c0.83,0.12,2.64,5.21,4.07,8.64c1.43,3.42,3.87,7.32,3.97,10.07
				c0.13,3.43-1.14,7.82-9.02,7.92c-7.89,0.1-10.18-3.56-10.72-7.54C672.76,669.37,671.64,660.61,672.35,655.83z"/>
			<path class="st8" d="M697.71,447.71c-7.14-19.71-17.05,14.3-37.72,13.73c-20.67-0.57-38.52-10.91-42.35,2.32
				c-9.23,31.9-0.91,65.09,2.06,91.04c2.58,22.57,7.88,86.59,7.93,87.26c0.3,3.94,27.13,1.4,27.66-2.92
				c0.08-0.61,1.88-137.99,4.85-137.25c2.98,0.73,4.81,136.69,4.85,137.13c0.56,5.49,26.19,5.86,26.64,0.74
				C691.71,638.92,704.81,467.32,697.71,447.71z"/>
			<path class="st7" d="M667.53,499.54c-5.12,0.17-8.32,0.66-14.87,2.83c-0.46,0.15-0.26,0.88,0.2,0.73
				c4.78-1.59,9.61-2.63,14.67-2.8C668.01,500.28,668.01,499.52,667.53,499.54z"/>
			
				<ellipse transform="matrix(0.3401 -0.9404 0.9404 0.3401 101.4772 824.9122)" class="st13" cx="638.49" cy="340.15" rx="13.52" ry="11.25"/>
			<g>
				<path class="st19" d="M658.48,340.1c12.33,7.73,38.04,47.47,37.62,73.32c-0.43,26.02,3.42,30.23,2.61,39.35
					c-0.37,4.1-17.41,15.93-38.03,18.42c-20.61,2.49-40.69-4.83-44.6-13.25c-9.64-20.78,11.78-21.47-6.53-45.05
					c-16.84-21.69-17.03-32.8-5.92-41.42C614.73,362.85,651.31,335.61,658.48,340.1z"/>
				<path class="st6" d="M641.55,462.96c0.82,0.28,1.26,1.18,0.98,2l0,0c-0.28,0.82-1.18,1.26-2,0.98l-9.68-3.31
					c-0.33-0.11-0.69,0.06-0.8,0.39l0,0c-0.11,0.33,0.06,0.69,0.39,0.8l12.06,4.13c0.82,0.28,1.26,1.18,0.98,2l0,0
					c-0.28,0.82-1.18,1.26-2,0.98l-12.06-4.13c-0.33-0.11-0.69,0.06-0.8,0.39l0,0c-0.11,0.33,0.06,0.69,0.39,0.8l9.68,3.31
					c0.82,0.28,1.26,1.18,0.98,2l0,0c-0.28,0.82-1.18,1.26-2,0.98l-10.27-3.52c-0.33-0.11-0.69,0.06-0.8,0.39l0,0
					c-0.11,0.33,0.06,0.69,0.39,0.8l6.11,2.09c0.82,0.28,1.26,1.18,0.98,2l0,0c-0.28,0.82-1.18,1.26-2,0.98l-12.27-4.2
					c0,0-11.07-3.65-17.84-8.66c-3.38-2.49,1.37-15.91,5.17-15.58C614.35,449.22,641.55,462.96,641.55,462.96z"/>
				<g>
					<g>
						<g>
							<path class="st6" d="M634.01,263.38c-6.55-1.3-7.55-11.08-12.29-15.66c-1.78-1.72-7.75-3.75-9.99-5.41
								c-3.72-2.77-4.6-5.48-1.58-4.58c2.08,0.62,9.82,1.05,15.74,4.78c7.88,4.97,15.81,10.88,14.91,12.9
								C639.21,258.95,634.01,263.38,634.01,263.38z"/>
						</g>
						<path class="st19" d="M671.76,364.99c5.62-16.29,25.79-66.12,17-73.78c-13.64-11.88-50.35-46.45-53.52-42.06
							c-3.16,4.4-13.41,8.32-3.77,16.55c9.64,8.24,30.78,35.17,30.12,38.01c-0.66,2.84-15.03,43.38-18.76,51.82
							C638.42,365.51,671.76,364.99,671.76,364.99z"/>
					</g>
					<path class="st19" d="M603.63,371.47c-16.16,6.09-61.88,51.14-50.67,63.35c12.7,13.84,52.54,32.51,52.54,32.51l6.69-17.14
						c4.01-1.07-30.4-19.03-29.71-22.05c1.55-6.88,28.05-20.33,28.97-27.67C612.37,393.13,603.63,371.47,603.63,371.47z"/>
					<g>
						<path class="st6" d="M618.37,360.94c-6.89,6.01,4.55,13.92,15.9,10.28c12.26-3.93,15.86-20.42,8.18-21.39
							C634.76,348.86,618.37,360.94,618.37,360.94z"/>
					</g>
					<g>
						<path class="st20" d="M605.64,408.03c-0.02,0-0.04,0-0.07,0c-0.27-0.04-0.47-0.29-0.43-0.56c0.05-0.38,1.29-9.29,6.1-10.72
							c0.26-0.08,0.54,0.07,0.62,0.34c0.08,0.26-0.07,0.54-0.34,0.62c-4.19,1.24-5.38,9.8-5.39,9.89
							C606.1,407.85,605.89,408.03,605.64,408.03z"/>
					</g>
					<g>
						<path class="st20" d="M576.56,430.81c-0.1,0-0.2-0.03-0.29-0.1c-0.22-0.16-0.27-0.47-0.11-0.7c1.12-1.54,3.22-2.1,4.62-2.3
							c-1.77-1.15-5.5-2.96-8.77-0.59c-0.22,0.16-0.54,0.11-0.7-0.11c-0.16-0.22-0.11-0.54,0.11-0.7c5.09-3.69,10.99,1.35,11.05,1.4
							c0.16,0.14,0.21,0.36,0.14,0.55c-0.07,0.2-0.26,0.32-0.46,0.33c-0.04,0-3.76,0.05-5.18,2.01
							C576.87,430.74,576.72,430.81,576.56,430.81z"/>
					</g>
					<g>
						<path class="st20" d="M649.87,353.34c-0.06,0-0.13-0.01-0.19-0.04c-0.26-0.1-0.38-0.39-0.28-0.65
							c0.65-1.62-2.36-5.89-4.42-8.19c-0.07-0.08-0.11-0.17-0.12-0.27c-0.05-0.4,0.09-0.9,0.52-1.09c0.61-0.27,1.67-0.06,4.94,3.6
							c0.18,0.21,0.17,0.52-0.04,0.71c-0.21,0.18-0.52,0.17-0.71-0.04c-2.23-2.5-3.22-3.14-3.6-3.3c1.17,1.35,5.36,6.46,4.36,8.96
							C650.26,353.22,650.07,353.34,649.87,353.34z"/>
					</g>
				</g>
			</g>
			<g>
				
					<ellipse transform="matrix(0.9425 -0.3342 0.3342 0.9425 -73.3099 220.6572)" class="st13" cx="604.53" cy="323.35" rx="13.7" ry="13.7"/>
				
					<ellipse transform="matrix(0.9306 -0.3661 0.3661 0.9306 -72.7717 249.4427)" class="st13" cx="621.41" cy="316.62" rx="13.7" ry="13.7"/>
				
					<ellipse transform="matrix(0.4488 -0.8936 0.8936 0.4488 20.5614 737.6965)" class="st13" cx="608.31" cy="352.18" rx="11.25" ry="13.52"/>
			</g>
			<g>
				<path class="st12" d="M631.08,333.29l7.36,19.86c-1.58,4.1-4.37,7.51-8.27,8.96c-0.8,0.3-1.61,0.5-2.44,0.61
					c-2.79,0.4-5.72-0.17-8.46-1.42l-7.7-20.78L631.08,333.29z"/>
				<path class="st6" d="M632.18,319.69l5.26,14.18c3.19,8.61,0.01,21.43-8.61,24.62c-0.8,0.3-1.61,0.5-2.44,0.61
					c-8.1,1.15-17.24-5.86-20.13-13.68l-5.26-14.18c-1.43-3.85,0.54-8.12,4.38-9.54l17.26-6.4
					C626.48,313.89,630.76,315.85,632.18,319.69z"/>
				<path class="st14" d="M615.61,339.32c0.19,0.51-0.07,1.08-0.58,1.27c-0.51,0.19-1.08-0.07-1.27-0.58
					c-0.19-0.51,0.07-1.08,0.58-1.27S615.42,338.8,615.61,339.32z"/>
				<path class="st14" d="M627.37,334.44c0.19,0.51-0.07,1.08-0.58,1.27c-0.51,0.19-1.08-0.07-1.27-0.58
					c-0.19-0.51,0.07-1.08,0.58-1.27C626.61,333.67,627.18,333.93,627.37,334.44z"/>
				<path class="st9" d="M621.02,349.29c2.83,3.58,8.6,1.45,8.41-3.12"/>
				
					<ellipse transform="matrix(0.929 -0.3701 0.3701 0.929 -74.9512 249.6472)" class="st13" cx="613.02" cy="320.12" rx="17.03" ry="10.19"/>
				
					<ellipse transform="matrix(0.9946 -0.1034 0.1034 0.9946 -31.6325 63.5207)" class="st13" cx="596.6" cy="336.74" rx="9.33" ry="11.84"/>
				
					<ellipse transform="matrix(0.7932 -0.6089 0.6089 0.7932 -63.8524 453.8136)" class="st13" cx="636.28" cy="320.93" rx="9.33" ry="11.84"/>
				<g>
					<path class="st15" d="M623.54,344.41c-0.59,0-1.12-0.37-1.32-0.94l-2.6-7.13c-0.07-0.18,0.03-0.38,0.21-0.45
						c0.18-0.07,0.38,0.03,0.45,0.21l2.6,7.13c0.11,0.33,0.45,0.52,0.78,0.46l0.93-0.16c0.19-0.03,0.37,0.1,0.4,0.29
						c0.03,0.19-0.09,0.37-0.29,0.4l-0.93,0.16C623.7,344.41,623.62,344.41,623.54,344.41z"/>
				</g>
			</g>
		</g>
	</g>
	<g id="cat_4_">
		<g>
			<path class="st21" d="M742.25,647.37c-0.92-0.13-1.87-0.31-2.85-0.54l0.94-3.95c5.04,1.2,8.74,0.76,11.3-1.37
				c5.91-4.9,5.27-18.1,4.75-28.71c-0.44-9.17-0.59-14.49,1.93-16.77c3.4-3.07,4.15,1.68,2.81,3.02c-0.02,0.02-0.74,0.87-0.9,3.94
				c-0.13,2.58,0.04,6,0.21,9.62c0.56,11.51,1.25,25.84-6.22,32.03C751.22,647.13,747.2,648.05,742.25,647.37z"/>
		</g>
		<g>
			<path class="st9" d="M719.09,647.68c-10.65-12.99-4.04-15.68,0.46-11.89c-2.2-7.19,4.29-18.49,4.29-18.49l8.6,0.31l8.6-0.31
				c0,0,6.49,11.29,4.29,18.49c4.5-3.79,11.11-1.1,0.46,11.89c0,0,5.13,1.09,2.64,3.57c-2.48,0-6.55,0-10.5,0c0,0-5.35,0-10.98,0
				c-3.94,0-8.02,0-10.5,0C713.96,648.77,719.09,647.68,719.09,647.68z"/>
			<g>
				<path class="st9" d="M741.23,638.1l-3.93,13.07h0.31c1.75,0,3.2,1.28,3.5,2.95h-6.85h-0.34v-11.99"/>
				<path class="st9" d="M730.54,642.13v11.99h-0.34h-6.85c0.29-1.67,1.73-2.95,3.5-2.95h0.3l-3.93-13.07"/>
			</g>
			<g>
				<path class="st9" d="M741.23,638.1l-3.93,13.07h0.31c1.75,0,3.2,1.28,3.5,2.95h-6.85h-0.34v-11.99"/>
				<path class="st9" d="M730.54,642.13v11.99h-0.34h-6.85c0.29-1.67,1.73-2.95,3.5-2.95h0.3l-3.93-13.07"/>
			</g>
		</g>
		<path class="st9" d="M718.95,596.38l-1.21-12.54l9.86,8.12c1.59-0.37,3.25-0.58,4.98-0.58c1.92,0,3.75,0.26,5.49,0.71l-0.05-0.03
			l9.98-8.22l-1.25,13.02c2.63,2.61,4.21,5.96,4.21,9.62c0,8.34-8.23,16.49-18.38,16.49s-18.38-8.15-18.38-16.49
			C714.2,602.59,716.01,599.06,718.95,596.38z"/>
		<g>
			<g>
				<path class="st22" d="M735.08,610.47c-1.64,0-2.97-1.03-2.97-2.31v-0.92h0.93v0.92c0,0.75,0.93,1.37,2.04,1.37V610.47z"/>
			</g>
			<g>
				<path class="st22" d="M730.08,610.47v-0.93c1.1,0,2.04-0.63,2.04-1.37v-1.85h0.93v1.85
					C733.04,609.43,731.71,610.47,730.08,610.47z"/>
			</g>
		</g>
		<g>
			<g>
				<g>
					<path class="st13" d="M723.84,605.5c-0.04,0-0.08-0.01-0.12-0.02l-12.64-4.33c-0.2-0.07-0.31-0.29-0.24-0.49
						c0.07-0.2,0.29-0.31,0.49-0.24l12.64,4.33c0.2,0.07,0.31,0.29,0.24,0.49C724.14,605.4,724,605.5,723.84,605.5z"/>
				</g>
				<g>
					<path class="st13" d="M710.91,610.91c-0.17,0-0.32-0.11-0.37-0.28c-0.06-0.2,0.06-0.42,0.27-0.48l12.93-3.67
						c0.2-0.06,0.42,0.06,0.48,0.27c0.06,0.2-0.06,0.42-0.27,0.48l-12.93,3.67C710.98,610.91,710.94,610.91,710.91,610.91z"/>
				</g>
			</g>
			<g>
				<g>
					<path class="st13" d="M741.32,605.5c-0.16,0-0.31-0.1-0.36-0.26c-0.07-0.2,0.04-0.42,0.24-0.49l12.64-4.33
						c0.2-0.07,0.42,0.04,0.49,0.24c0.07,0.2-0.04,0.42-0.24,0.49l-12.64,4.33C741.41,605.49,741.36,605.5,741.32,605.5z"/>
				</g>
				<g>
					<path class="st13" d="M754.25,610.91c-0.03,0-0.07,0-0.11-0.01l-12.93-3.67c-0.2-0.06-0.32-0.27-0.27-0.48
						c0.06-0.2,0.27-0.32,0.48-0.27l12.93,3.67c0.2,0.06,0.32,0.27,0.27,0.48C754.57,610.8,754.42,610.91,754.25,610.91z"/>
				</g>
			</g>
		</g>
		<g>
			<path class="st8" d="M725.17,601.72c0.04-0.91,0.75-1.63,1.63-1.63c0.88,0,1.59,0.72,1.63,1.63H725.17z"/>
			<path class="st8" d="M737.65,601.72c0.03-0.91,0.75-1.63,1.63-1.63c0.88,0,1.59,0.72,1.63,1.63H737.65z"/>
		</g>
		<path class="st19" d="M734.67,604.82c-0.04-0.47-0.44-0.85-0.95-0.88c-0.53-0.04-0.99,0.31-1.14,0.79
			c-0.16-0.48-0.61-0.83-1.14-0.79c-0.51,0.03-0.91,0.41-0.95,0.88c-0.05,0.62,0.36,1.33,0.92,1.93c0.63,0.67,1.71,0.67,2.34,0
			C734.31,606.15,734.72,605.44,734.67,604.82z"/>
	</g>
</g>
<g id="Laag_5">
	<g>
		<defs>
			<rect id="SVGID_3_" x="206.44" y="81.77" width="301.14" height="621.5"/>
		</defs>
		<clipPath id="SVGID_4_">
			<use xlink:href="#SVGID_3_"  style="overflow:visible;"/>
		</clipPath>
		<g id="birdhouse_3_" class="st27">
			<g>
				<g>
					
						<rect x="555.46" y="489.73" transform="matrix(0.0872 -0.9962 0.9962 0.0872 200.1094 1199.2635)" class="st28" width="398.07" height="1.4"/>
				</g>
				<g>
					<polygon class="st28" points="809,303.89 508.28,83.2 207.55,303.89 206.72,302.76 508.28,81.46 508.69,81.77 809.83,302.76 
											"/>
				</g>
				<g>
					<rect x="257.87" y="688.68" class="st28" width="500.81" height="1.4"/>
				</g>
				<g>
					
						<rect x="261.36" y="291.4" transform="matrix(0.9962 -0.0872 0.0872 0.9962 -41.7683 24.7202)" class="st28" width="1.4" height="398.07"/>
				</g>
			</g>
			<g>
				<path class="st28" d="M508.28,245.61c-22.84,0-41.42-18.58-41.42-41.42s18.58-41.42,41.42-41.42
					c22.84,0,41.42,18.58,41.42,41.42S531.12,245.61,508.28,245.61z M508.28,164.16c-22.07,0-40.03,17.96-40.03,40.03
					s17.96,40.03,40.03,40.03c22.07,0,40.03-17.96,40.03-40.03S530.35,164.16,508.28,164.16z"/>
			</g>
			<g>
				<path class="st28" d="M508.08,245.89c-22.84,0-41.42-18.58-41.42-41.42s18.58-41.42,41.42-41.42
					c22.84,0,41.42,18.58,41.42,41.42S530.92,245.89,508.08,245.89z M508.08,164.44c-22.07,0-40.03,17.96-40.03,40.03
					s17.96,40.03,40.03,40.03c22.07,0,40.03-17.96,40.03-40.03S530.15,164.44,508.08,164.44z"/>
			</g>
		</g>
		<polygon id="bottom_3_" class="st29" points="736.91,689.25 279.18,689.25 274.63,634.09 741.93,634.09 		"/>
		<g id="man_3_" class="st27">
			<g>
				<path class="st6" d="M415.93,629.96c1.68,7.7,0.64,19.25,3.05,21.96c2.41,2.71,18.72,10.95,28.27,12.38
					c8.43,1.27,10.1-6.01,4.39-8.42c-5.71-2.41-16.91-11.61-17.35-20.54C433.83,626.43,415.93,629.96,415.93,629.96z"/>
				<path class="st6" d="M352.37,635.42c-1.13,10.52-3.5,18.84-5.07,20.88c-1.57,2.04-11.2,1.27-15.84,6.34
					c-1.81,1.98-21.06,5.48-23.06,0.95c-2-4.53,0.78-2.59,6.54-8.13c5.76-5.54,17.38-7.2,18.15-16.45
					C333.91,629.12,352.37,635.42,352.37,635.42z"/>
				<path class="st6" d="M434.37,525.34c3.02,12.92,1.19,24.77,1.19,31.23c0,6.46,2.34,83.57-2.61,88.52
					c-4.95,4.95-8.2,10.14-14.66-3.22c-6.46-13.35-14.71-41.69-16.47-76.37c-0.75-14.76-5.05-24.79-5.05-24.79L434.37,525.34z"/>
				<path class="st6" d="M367.88,545.1c4.97,21.97-14.86,86.53-17.16,96.63s-9.84,8.97-14.83,8.08c-4.99-0.89-6.79-35.63-7.11-58.92
					c-0.32-23.28,2.38-53.16,2.38-53.16L367.88,545.1z"/>
				<path class="st7" d="M436.11,633.44c-0.18,3.21,0.92,5.31-3.16,5.7s-16.16,2.2-17.02-0.15c-0.86-2.35-0.81-4.53-0.81-4.53
					L436.11,633.44z"/>
				<path class="st7" d="M353.69,633.87c-0.66,4.56,0.66,4.34-2.87,5.02c-3.53,0.68-20.85,2.64-21.78-0.21c-0.93-2.85,0-4.82,0-4.82
					H353.69z"/>
				<path class="st8" d="M433.46,437.85c2.78,0,7.34,56.34,10.13,107.73c2.5,45.93-1.27,86.24-6.78,89.77
					c-3.83,2.45-21.6,4.29-24.25,0c-7.87-12.75-11.01-49.88-16.8-83.76c-5.34-31.22-9.34-57.44-10.62-53.23
					c-0.25,0.82-3.54,28.09-8.14,58.85c-6.09,40.7-16.82,78.79-23.47,79.6c-8.23,1.01-24.61,2.34-26.95-3.37
					c-1.93-4.72-0.81-41.74,2.18-82.74c2.46-33.76,7.69-68.51,12.03-91.02c4.34-22.47,11.65-28.47,11.65-28.47L433.46,437.85z"/>
				<g>
					<path class="st9" d="M435.55,640.64c-1.88-1.29-6.66-0.63-7.66,2.95c-1,3.58-1.74,5.21-3.94,2.43
						c-2.21-2.78-7.69-5.67-8.39-3.46c-0.7,2.21,1.21,12.11,2.51,14.12c1.31,2.01,27.35,12.79,35.37,10.27
						c9.2-2.89,9.08-7.3-0.42-12.68c-9.49-5.38-13.25-7.74-14.54-9.42C437.19,643.17,435.55,640.64,435.55,640.64z"/>
					<path class="st10" d="M418.46,652.63c2.2,2.63,5.82,4.99,11.57,5.79c5.75,0.8,12.38,5.33,17.99,4.26
						c5.61-1.07,3.93-2.62,8.34-3.16c3.87-0.47,3.58,0.76,3.58,0.76c1.15,2.69,0.97,5.33-4.51,7.05c-3.24,1.01-9.34,0.45-15.91-1.48
						c-9.7-2.86-21.56-7.11-22.34-8.3c-0.46-0.7-1.26-4.56-0.87-6.54C416.44,651.15,418.32,652.46,418.46,652.63z"/>
				</g>
				<g>
					<path class="st9" d="M330.91,641.45c1.84-1.36,6.63-0.85,7.75,2.69c1.12,3.54,1.91,5.15,4.02,2.3c2.11-2.85,7.5-5.93,8.27-3.74
						c0.77,2.18-0.79,12.15-2.03,14.19c-1.24,2.05-26.9,13.71-35,11.46c-9.3-2.57-9.32-6.99-0.01-12.69
						c9.31-5.7,12.98-8.18,14.21-9.91C329.35,644.04,330.91,641.45,330.91,641.45z"/>
					<path class="st10" d="M348.4,652.85c-2.11,2.71-5.65,5.18-11.37,6.18c-5.72,1-12.19,5.75-17.84,4.87
						c-5.65-0.88-4.02-2.49-8.44-2.87c-3.89-0.34-3.55,0.88-3.55,0.88c-1.06,2.72-0.79,5.36,4.75,6.89
						c3.27,0.9,9.35,0.13,15.85-2.02c9.6-3.19,21.3-7.83,22.04-9.06c0.43-0.71,1.1-4.6,0.64-6.56
						C350.36,651.31,348.53,652.68,348.4,652.85z"/>
				</g>
			</g>
			<g>
				<g>
					<path class="st7" d="M388.9,478.2c-0.18,0-0.35-0.1-0.44-0.26c-1.71-3.15,0.87-11.84,1.08-12.54c0.09-0.48,0.4-0.89,0.84-1.1
						c0.46-0.22,0.99-0.19,1.42,0.07l1.04,0.62c0.24,0.14,0.32,0.45,0.17,0.69c-0.14,0.24-0.45,0.32-0.69,0.17l-1.04-0.62
						c-0.15-0.09-0.32-0.1-0.47-0.02c-0.15,0.07-0.26,0.21-0.28,0.38c0,0.02-0.01,0.05-0.02,0.07c-0.76,2.48-2.45,9.43-1.17,11.79
						c0.13,0.24,0.04,0.55-0.2,0.68C389.06,478.18,388.98,478.2,388.9,478.2z"/>
				</g>
				<g>
					<g>
						<path class="st7" d="M392.94,465.93c-5.2,0-11.57-1.63-13.71-4.76c-0.16-0.23-0.1-0.54,0.13-0.7c0.23-0.16,0.54-0.1,0.7,0.13
							c1.95,2.84,7.94,4.32,12.88,4.32c0.02,0,0.03,0,0.05,0c2.88-0.01,5.11-0.55,5.68-1.39c0.16-0.23,0.47-0.29,0.7-0.13
							c0.23,0.16,0.29,0.47,0.13,0.7c-1.12,1.64-4.93,1.83-6.51,1.83C392.97,465.93,392.95,465.93,392.94,465.93z"/>
					</g>
					<g>
						<path class="st7" d="M384.04,477.11c-0.22,0-0.42-0.14-0.48-0.36c-1.01-3.45,3.35-11.38,3.71-12.02
							c0.19-0.45,0.58-0.79,1.06-0.9c0.49-0.11,1.01,0.02,1.38,0.37l0.88,0.83c0.2,0.19,0.21,0.51,0.02,0.71
							c-0.19,0.2-0.51,0.21-0.71,0.02l-0.88-0.83c-0.12-0.12-0.29-0.16-0.46-0.12c-0.17,0.04-0.3,0.15-0.36,0.31
							c-0.01,0.02-0.02,0.05-0.03,0.07c-1.27,2.26-4.39,8.7-3.64,11.28c0.08,0.27-0.08,0.55-0.34,0.63
							C384.14,477.11,384.09,477.11,384.04,477.11z"/>
					</g>
				</g>
			</g>
			<path class="st11" d="M410.34,335.72c-17.43,6.92-41.38,23-53.07,68.41c-6.24,24.24-9.24,22.44-9.56,31.38
				c-0.15,4.03,17.57,17.43,37.28,22.38c19.71,4.95,50.52,1.65,51.23-7.41c1.33-16.97-15.11-22.29,5.56-42.95
				c19.01-19.01,20.55-29.77,10.82-39.5C442.88,358.3,414.91,333.9,410.34,335.72z"/>
			<g>
				<g>
					<path class="st6" d="M423.44,257.43c6.36-0.2,8.82-9.24,14-12.8c1.94-1.34,7.87-2.31,10.23-3.53c3.93-2.02,5.18-4.43,2.2-4.06
						c-2.05,0.26-9.39-0.54-15.54,2.04c-8.18,3.44-16.56,7.75-16.02,9.8C419.24,252.46,423.44,257.43,423.44,257.43z"/>
				</g>
				<path class="st11" d="M383.75,352.84c-3.53-14.64-20.07-60.13-11.73-67.47c12.93-11.4,47.71-44.55,50.75-40.38
					c3.04,4.17,12.82,7.85,3.69,15.75c-9.14,7.9-29.12,33.68-28.48,36.39c0.65,2.7,14.57,41.24,18.18,49.26
					C420.4,355.87,383.75,352.84,383.75,352.84z"/>
			</g>
			<g>
				<path class="st6" d="M404.58,452.24c-0.83,0.17-1.37,0.99-1.2,1.82l0,0c0.17,0.83,0.99,1.37,1.82,1.2l9.81-2.03
					c0.33-0.07,0.66,0.14,0.73,0.48l0,0c0.07,0.33-0.14,0.66-0.48,0.73l-12.22,2.53c-0.83,0.17-1.37,0.99-1.2,1.82l0,0
					c0.17,0.83,0.99,1.37,1.82,1.2l12.22-2.53c0.33-0.07,0.66,0.14,0.73,0.48l0,0c0.07,0.33-0.14,0.66-0.48,0.73l-9.81,2.03
					c-0.83,0.17-1.37,0.99-1.2,1.82l0,0c0.17,0.83,0.99,1.37,1.82,1.2l10.41-2.16c0.33-0.07,0.66,0.14,0.73,0.48l0,0
					c0.07,0.33-0.14,0.66-0.48,0.73l-6.19,1.28c-0.83,0.17-1.37,0.99-1.2,1.82v0c0.17,0.83,0.99,1.37,1.82,1.2l12.43-2.58
					c0,0,11.2-2.19,18.39-6.22c3.58-2.01,0.61-15.62-3.11-15.76C432.67,442.23,404.58,452.24,404.58,452.24z"/>
				<path class="st11" d="M452.6,368.03c14.95,7.9,53.83,57.24,41.45,67.73c-14.03,11.88-55,25.13-55,25.13l-4.4-17.47
					c-3.76-1.53,31.85-14.76,31.56-17.77c-0.67-6.87-24.75-23.17-24.75-30.41C441.46,388,452.6,368.03,452.6,368.03z"/>
			</g>
			<g>
				<path class="st6" d="M437.41,356.52c5.96,6.68-3.95,12.44-14.53,7.52c-11.43-5.32-12.9-21.77-5.32-21.77
					C425.14,342.27,437.41,356.52,437.41,356.52z"/>
				<g>
					<g>
						<path class="st12" d="M417.69,346.92c0.16,4.94,4.94,13.24,13.98,13.89c2.19,0.16,4.19-0.37,6.08-1.37l1.88-4.24l4.57-6.13
							l3.13-5.87l-17.83-11.05l-4.09,5.15l-4.32,5.44L417.69,346.92z"/>
						<path class="st6" d="M459.42,337.37c-8.79,8.42-14.7,19.58-23.79,18.92c-9.09-0.65-13.88-9.06-13.98-13.99
							c-0.1-4.93,7.36-19.13,8.49-22.8c1.27-4.15,14.03-12.64,23.8-5.15C463.7,321.85,463.8,333.17,459.42,337.37z"/>
						<g>
							<path class="st13" d="M463.11,320.52c0.34,5.71-10.61,3.13-17.58-0.4c-4.18-2.12-7.26-5.97-8.73-5.15
								c-4.33,2.4-6.51,9.4-7.47,7.35c-0.96-2.05,4.77-14.53,15.2-14.39C454.96,308.07,462.78,315.11,463.11,320.52z"/>
							<path class="st13" d="M458.67,322.34c0.72,3.33,1.01,6.43-1.5,12.47c-2.5,6.04,0.3,5.38,1.54,4.47
								c1.23-0.91,9.22-9.33,7.07-15.53C463.64,317.56,458.67,322.34,458.67,322.34z"/>
						</g>
						<path class="st6" d="M455.95,339.36c2.33,0.18,4.86,0.15,3.23,2.98c-1.63,2.83-6.57,8.7-9.18,7.16
							c-2.62-1.54-2.13-3.36-2.13-3.36L455.95,339.36z"/>
						<path class="st6" d="M429.84,324.72c-0.21-1.57-0.31-5.55-2.1-4.52c-3.7,2.13-6.02,11.37-4.83,12.71
							c1.19,1.34,2.7,1.25,2.7,1.25L429.84,324.72z"/>
					</g>
				</g>
				<path class="st14" d="M446.03,336.49c-0.27,0.41-0.16,0.97,0.26,1.24c0.41,0.27,0.97,0.16,1.24-0.26
					c0.27-0.41,0.16-0.97-0.26-1.24C446.85,335.96,446.3,336.08,446.03,336.49z"/>
				<path class="st14" d="M435.67,329.69c-0.27,0.41-0.16,0.97,0.26,1.24c0.41,0.27,0.97,0.16,1.24-0.26
					c0.27-0.41,0.16-0.97-0.26-1.24C436.49,329.17,435.94,329.28,435.67,329.69z"/>
				<g>
					<path class="st15" d="M438.03,340.83c-0.06,0-0.13-0.02-0.18-0.05l-1.81-1.19c-0.15-0.1-0.19-0.3-0.09-0.46
						c0.1-0.15,0.3-0.19,0.46-0.1l1.5,0.99l3.24-6.36c0.08-0.16,0.28-0.23,0.44-0.14c0.16,0.08,0.23,0.28,0.14,0.44l-3.41,6.69
						c-0.04,0.08-0.12,0.14-0.21,0.17C438.09,340.82,438.06,340.83,438.03,340.83z"/>
				</g>
				<g>
					<path class="st16" d="M451.57,336.04c-0.09,0-0.19-0.04-0.25-0.12c-1.34-1.65-3.46-2.74-5.81-3.01
						c-0.18-0.02-0.31-0.18-0.29-0.36c0.02-0.18,0.19-0.31,0.36-0.29c2.52,0.29,4.8,1.47,6.25,3.24c0.11,0.14,0.09,0.34-0.05,0.46
						C451.72,336.02,451.65,336.04,451.57,336.04z"/>
				</g>
				<g>
					<path class="st16" d="M440.67,328.89c-0.09,0-0.19-0.04-0.25-0.12c-1.34-1.65-3.46-2.74-5.81-3.01
						c-0.18-0.02-0.31-0.18-0.29-0.36c0.02-0.18,0.19-0.31,0.36-0.29c2.52,0.29,4.8,1.47,6.25,3.24c0.11,0.14,0.09,0.34-0.05,0.46
						C440.81,328.87,440.74,328.89,440.67,328.89z"/>
				</g>
				<path class="st17" d="M431.58,339.87c-1.56,5.72,3.61,9.1,8.23,5.39"/>
				<g>
					<path class="st13" d="M441.01,349.34c0.32-1.62-1.14-6.67-4.19-7c-3.05-0.33-2.47,2.84-0.66,4.52
						C437.97,348.52,441.01,349.34,441.01,349.34z"/>
					<path class="st13" d="M427.38,340.4c1.36-0.94,6.57-1.62,8.09,1.05c1.52,2.67-1.62,3.4-3.88,2.4
						C429.33,342.86,427.38,340.4,427.38,340.4z"/>
				</g>
			</g>
			<g>
				<g>
					<path class="st18" d="M446.23,403.3c-0.27,0-0.49-0.22-0.49-0.49c0-0.09-0.11-8.54-4.03-10.27c-0.25-0.11-0.36-0.4-0.25-0.64
						c0.11-0.25,0.4-0.36,0.64-0.25c4.5,1.98,4.61,10.78,4.61,11.15C446.72,403.07,446.51,403.29,446.23,403.3
						C446.24,403.3,446.24,403.3,446.23,403.3z"/>
				</g>
				<g>
					<path class="st18" d="M471.68,428.98c-0.17,0-0.34-0.09-0.43-0.25c-1.15-2.09-4.75-2.58-4.78-2.59
						c-0.2-0.03-0.37-0.17-0.41-0.37c-0.05-0.2,0.03-0.4,0.2-0.52c0.06-0.04,6.41-4.22,10.91-0.01c0.2,0.18,0.21,0.49,0.02,0.69
						c-0.18,0.2-0.49,0.21-0.69,0.02c-2.88-2.7-6.72-1.4-8.59-0.5c1.33,0.37,3.3,1.17,4.2,2.8c0.13,0.24,0.04,0.53-0.19,0.66
						C471.84,428.96,471.76,428.98,471.68,428.98z"/>
				</g>
				<g>
					<path class="st18" d="M412.51,344.88c-0.07,0-0.13-0.02-0.19-0.06c-2.15-1.57-0.67-7.48-0.4-8.5c-0.04-0.05-0.08-0.08-0.1-0.08
						c-0.01,0-0.71,0.08-1.54,4.88c-0.03,0.18-0.2,0.3-0.38,0.27c-0.18-0.03-0.3-0.2-0.27-0.38c0.8-4.66,1.54-5.34,2.09-5.42
						c0.43-0.06,0.72,0.31,0.83,0.54c0.03,0.07,0.04,0.15,0.02,0.23c-0.51,1.81-1.49,6.76,0.12,7.93c0.15,0.11,0.18,0.31,0.07,0.46
						C412.71,344.83,412.61,344.88,412.51,344.88z"/>
				</g>
			</g>
		</g>
		<g id="woman_3_" class="st27">
			<g>
				<path class="st6" d="M625.55,349.95l-18.57,28.85l-6.53-30.16c2.51-3.14,1.28-7.85,0.61-11.42l21-0.73
					C622.99,340.66,623.29,349.02,625.55,349.95z"/>
			</g>
			<path class="st6" d="M651.19,614.82c-0.07,9.11-2.19,26.38-2.68,33.9c-0.53,8.1-1.78,14.05-4.76,15.23
				c-3.5,1.39-5.2,4.58-7.03-3.28c-0.41-1.78-0.81-5.02-1.19-8.75c-0.62-6.19-4.23-33.74-4.65-38.01
				C629.32,597.86,651.19,614.82,651.19,614.82z"/>
			<path class="st6" d="M616.27,615.34c0.41,10.64-1.11,28.62-0.63,35.83c0.49,7.43-0.12,9.23-4.35,11.15
				c-1.59,0.72-6.08-0.17-7.57-2.22c-4.86-6.68-6.12-25.68-8.51-41.37C592.45,600.67,616.27,615.34,616.27,615.34z"/>
			<g>
				<path class="st9" d="M587.09,660.08c1.21-0.65,2.4-1.27,3.43-2.04c2.39-1.79,4.72-4.78,6.45-8.24c1.3-2.6,1.86-3.16,3.92-2.42
					s5.44,0.24,5.35,1.52c-0.02,0.33-0.27,0.83-0.71,1.43c2.76,0.67,7.9,1.09,10.09,0.09c1.49-0.68,2.98,7.51,3.05,11.58
					c0.09,5.23-2.16,6.09-5.7,6.54c0,0-33.84,5.56-35.47,1.76C574.75,663.87,581.25,663.19,587.09,660.08z"/>
			</g>
			<path class="st9" d="M635.29,655.28c0.33-2.26,0.75-1.58,2.85-1.18c0.01-0.59,0.04-1.07,0.06-1.38c0.07-1.12,3.12,0.06,6.87-0.69
				c1.5-0.3,1.57-0.04,1.8,1.19c0.35-0.18,0.53-0.29,0.97-0.23c0.83,0.12,2.64,5.21,4.07,8.64c1.43,3.42,3.87,7.32,3.97,10.07
				c0.13,3.43-1.14,7.82-9.02,7.92c-7.89,0.1-10.18-3.56-10.72-7.54C635.7,668.83,634.58,660.06,635.29,655.28z"/>
			<path class="st8" d="M660.65,447.16c-7.14-19.71-17.05,14.3-37.72,13.73c-20.67-0.57-38.52-10.91-42.35,2.32
				c-9.23,31.9-0.91,65.09,2.06,91.04c2.58,22.57,7.88,86.59,7.93,87.26c0.3,3.94,27.13,1.4,27.66-2.92
				c0.08-0.61,1.88-137.99,4.85-137.25c2.98,0.73,4.81,136.69,4.85,137.13c0.56,5.49,26.19,5.86,26.64,0.74
				C654.65,638.38,667.75,466.78,660.65,447.16z"/>
			<path class="st7" d="M630.47,498.99c-5.12,0.17-8.32,0.66-14.87,2.83c-0.46,0.15-0.26,0.88,0.2,0.73
				c4.78-1.59,9.61-2.63,14.67-2.8C630.95,499.73,630.95,498.97,630.47,498.99z"/>
			
				<ellipse transform="matrix(0.3401 -0.9404 0.9404 0.3401 77.5357 789.702)" class="st13" cx="601.43" cy="339.61" rx="13.52" ry="11.25"/>
			<g>
				<path class="st19" d="M621.42,339.56c12.33,7.73,38.04,47.47,37.62,73.32c-0.43,26.02,3.42,30.23,2.61,39.35
					c-0.37,4.1-17.41,15.93-38.03,18.42c-20.61,2.49-40.69-4.83-44.6-13.25c-9.64-20.78,11.78-21.47-6.53-45.05
					c-16.84-21.69-17.03-32.8-5.92-41.42C577.67,362.3,614.25,335.07,621.42,339.56z"/>
				<path class="st6" d="M604.49,462.42c0.82,0.28,1.26,1.18,0.98,2l0,0c-0.28,0.82-1.18,1.26-2,0.98l-9.68-3.31
					c-0.33-0.11-0.69,0.06-0.8,0.39l0,0c-0.11,0.33,0.06,0.69,0.39,0.8l12.06,4.13c0.82,0.28,1.26,1.18,0.98,2l0,0
					c-0.28,0.82-1.18,1.26-2,0.98l-12.06-4.13c-0.33-0.11-0.69,0.06-0.8,0.39l0,0c-0.11,0.33,0.06,0.69,0.39,0.8l9.68,3.31
					c0.82,0.28,1.26,1.18,0.98,2l0,0c-0.28,0.82-1.18,1.26-2,0.98l-10.27-3.52c-0.33-0.11-0.69,0.06-0.8,0.39l0,0
					c-0.11,0.33,0.06,0.69,0.39,0.8l6.11,2.09c0.82,0.28,1.26,1.18,0.98,2l0,0c-0.28,0.82-1.18,1.26-2,0.98l-12.27-4.2
					c0,0-11.07-3.65-17.84-8.66c-3.38-2.49,1.37-15.91,5.17-15.58C577.3,448.68,604.49,462.42,604.49,462.42z"/>
				<g>
					<g>
						<g>
							<path class="st6" d="M596.95,262.83c-6.55-1.3-7.55-11.08-12.29-15.66c-1.78-1.72-7.75-3.75-9.99-5.41
								c-3.72-2.77-4.6-5.48-1.58-4.58c2.08,0.62,9.82,1.05,15.74,4.78c7.88,4.97,15.81,10.88,14.91,12.9
								C602.15,258.4,596.95,262.83,596.95,262.83z"/>
						</g>
						<path class="st19" d="M634.7,364.44c5.62-16.29,25.79-66.12,17-73.78c-13.64-11.88-50.35-46.45-53.52-42.06
							c-3.16,4.4-13.41,8.32-3.77,16.55c9.64,8.24,30.78,35.17,30.12,38.01c-0.66,2.84-15.03,43.38-18.76,51.82
							C601.36,364.96,634.7,364.44,634.7,364.44z"/>
					</g>
					<path class="st19" d="M566.57,370.92c-16.16,6.09-61.88,51.14-50.67,63.35c12.7,13.84,52.54,32.51,52.54,32.51l6.69-17.14
						c4.01-1.07-30.4-19.03-29.71-22.05c1.55-6.88,28.05-20.33,28.97-27.67C575.31,392.59,566.57,370.92,566.57,370.92z"/>
					<g>
						<path class="st6" d="M581.31,360.4c-6.89,6.01,4.55,13.92,15.9,10.28c12.26-3.93,15.86-20.42,8.18-21.39
							C597.71,348.32,581.31,360.4,581.31,360.4z"/>
					</g>
					<g>
						<path class="st20" d="M568.58,407.48c-0.02,0-0.04,0-0.07,0c-0.27-0.04-0.47-0.29-0.43-0.56c0.05-0.38,1.29-9.29,6.1-10.72
							c0.26-0.08,0.54,0.07,0.62,0.34c0.08,0.26-0.07,0.54-0.34,0.62c-4.19,1.24-5.38,9.8-5.39,9.89
							C569.04,407.3,568.83,407.48,568.58,407.48z"/>
					</g>
					<g>
						<path class="st20" d="M539.5,430.27c-0.1,0-0.2-0.03-0.29-0.1c-0.22-0.16-0.27-0.47-0.11-0.7c1.12-1.54,3.22-2.1,4.62-2.3
							c-1.77-1.15-5.5-2.96-8.77-0.59c-0.22,0.16-0.54,0.11-0.7-0.11c-0.16-0.22-0.11-0.54,0.11-0.7c5.09-3.69,10.99,1.35,11.05,1.4
							c0.16,0.14,0.21,0.36,0.14,0.55c-0.07,0.2-0.26,0.32-0.47,0.33c-0.04,0-3.76,0.05-5.18,2.01
							C539.81,430.19,539.66,430.27,539.5,430.27z"/>
					</g>
					<g>
						<path class="st20" d="M612.81,352.79c-0.06,0-0.13-0.01-0.19-0.04c-0.26-0.1-0.38-0.39-0.28-0.65
							c0.65-1.62-2.36-5.89-4.42-8.19c-0.07-0.08-0.11-0.17-0.12-0.27c-0.05-0.4,0.09-0.9,0.52-1.09c0.61-0.27,1.67-0.06,4.94,3.6
							c0.18,0.21,0.17,0.52-0.04,0.71c-0.21,0.18-0.52,0.17-0.71-0.04c-2.23-2.5-3.22-3.14-3.6-3.3c1.17,1.35,5.36,6.46,4.36,8.96
							C613.2,352.67,613.01,352.79,612.81,352.79z"/>
					</g>
				</g>
			</g>
			<g>
				
					<ellipse transform="matrix(0.9425 -0.3342 0.3342 0.9425 -75.2585 208.2393)" class="st13" cx="567.47" cy="322.8" rx="13.7" ry="13.7"/>
				
					<ellipse transform="matrix(0.9306 -0.3661 0.3661 0.9306 -75.1436 235.8396)" class="st13" cx="584.35" cy="316.08" rx="13.7" ry="13.7"/>
				
					<ellipse transform="matrix(0.4488 -0.8936 0.8936 0.4488 0.6251 704.2797)" class="st13" cx="571.25" cy="351.63" rx="11.25" ry="13.52"/>
			</g>
			<g>
				<path class="st12" d="M594.02,332.74l7.36,19.86c-1.58,4.1-4.37,7.51-8.27,8.96c-0.8,0.3-1.61,0.5-2.44,0.61
					c-2.79,0.4-5.72-0.17-8.46-1.42l-7.7-20.78L594.02,332.74z"/>
				<path class="st6" d="M595.12,319.15l5.26,14.18c3.19,8.61,0.01,21.43-8.61,24.62c-0.8,0.3-1.61,0.5-2.44,0.61
					c-8.1,1.15-17.24-5.86-20.13-13.68l-5.26-14.18c-1.43-3.85,0.54-8.12,4.38-9.54l17.26-6.4
					C589.43,313.34,593.7,315.3,595.12,319.15z"/>
				<path class="st14" d="M578.55,338.77c0.19,0.51-0.07,1.08-0.58,1.27c-0.51,0.19-1.08-0.07-1.27-0.58
					c-0.19-0.51,0.07-1.08,0.58-1.27C577.79,338,578.36,338.26,578.55,338.77z"/>
				<path class="st14" d="M590.31,333.89c0.19,0.51-0.07,1.08-0.58,1.27c-0.51,0.19-1.08-0.07-1.27-0.58
					c-0.19-0.51,0.07-1.08,0.58-1.27S590.12,333.38,590.31,333.89z"/>
				<path class="st9" d="M583.96,348.74c2.83,3.58,8.6,1.45,8.41-3.12"/>
				
					<ellipse transform="matrix(0.929 -0.3701 0.3701 0.929 -77.381 235.8913)" class="st13" cx="575.96" cy="319.57" rx="17.03" ry="10.19"/>
				
					<ellipse transform="matrix(0.9946 -0.1034 0.1034 0.9946 -31.7747 59.6844)" class="st13" cx="559.54" cy="336.19" rx="9.33" ry="11.84"/>
				
					<ellipse transform="matrix(0.7932 -0.6089 0.6089 0.7932 -71.1823 431.1348)" class="st13" cx="599.23" cy="320.38" rx="9.33" ry="11.84"/>
				<g>
					<path class="st15" d="M586.48,343.87c-0.59,0-1.12-0.37-1.32-0.94l-2.6-7.13c-0.07-0.18,0.03-0.38,0.21-0.45
						c0.18-0.07,0.38,0.03,0.45,0.21l2.6,7.13c0.11,0.33,0.45,0.52,0.78,0.46l0.93-0.16c0.19-0.03,0.37,0.1,0.4,0.29
						c0.03,0.19-0.09,0.37-0.29,0.4l-0.93,0.16C586.64,343.86,586.56,343.87,586.48,343.87z"/>
				</g>
			</g>
		</g>
		<g id="cat_3_" class="st27">
			<g>
				<path class="st21" d="M705.19,646.83c-0.92-0.13-1.87-0.31-2.85-0.54l0.94-3.95c5.04,1.2,8.74,0.76,11.3-1.37
					c5.91-4.9,5.27-18.1,4.75-28.71c-0.44-9.17-0.59-14.49,1.93-16.77c3.4-3.07,4.15,1.68,2.81,3.02c-0.02,0.02-0.74,0.87-0.9,3.94
					c-0.13,2.58,0.04,6,0.21,9.62c0.56,11.51,1.25,25.84-6.22,32.03C714.17,646.59,710.15,647.5,705.19,646.83z"/>
			</g>
			<g>
				<path class="st9" d="M682.03,647.13c-10.65-12.99-4.04-15.68,0.46-11.89c-2.2-7.19,4.29-18.49,4.29-18.49l8.6,0.31l8.6-0.31
					c0,0,6.49,11.29,4.29,18.49c4.5-3.79,11.11-1.1,0.46,11.89c0,0,5.13,1.09,2.64,3.57c-2.48,0-6.55,0-10.5,0c0,0-5.35,0-10.98,0
					c-3.94,0-8.02,0-10.5,0C676.91,648.22,682.03,647.13,682.03,647.13z"/>
				<g>
					<path class="st9" d="M704.17,637.55l-3.93,13.07h0.31c1.75,0,3.2,1.28,3.5,2.95h-6.85h-0.34v-11.99"/>
					<path class="st9" d="M693.48,641.59v11.99h-0.34h-6.85c0.29-1.67,1.73-2.95,3.5-2.95h0.3l-3.93-13.07"/>
				</g>
				<g>
					<path class="st9" d="M704.17,637.55l-3.93,13.07h0.31c1.75,0,3.2,1.28,3.5,2.95h-6.85h-0.34v-11.99"/>
					<path class="st9" d="M693.48,641.59v11.99h-0.34h-6.85c0.29-1.67,1.73-2.95,3.5-2.95h0.3l-3.93-13.07"/>
				</g>
			</g>
			<path class="st9" d="M681.89,595.84l-1.21-12.54l9.86,8.12c1.59-0.37,3.25-0.58,4.98-0.58c1.92,0,3.75,0.26,5.49,0.71l-0.05-0.03
				l9.98-8.22l-1.25,13.02c2.63,2.61,4.21,5.96,4.21,9.62c0,8.34-8.23,16.49-18.38,16.49s-18.38-8.15-18.38-16.49
				C677.14,602.04,678.95,598.51,681.89,595.84z"/>
			<g>
				<g>
					<path class="st22" d="M698.02,609.92c-1.64,0-2.97-1.03-2.97-2.31v-0.92h0.93v0.92c0,0.75,0.93,1.37,2.04,1.37V609.92z"/>
				</g>
				<g>
					<path class="st22" d="M693.02,609.92v-0.93c1.1,0,2.04-0.63,2.04-1.37v-1.85h0.93v1.85
						C695.99,608.89,694.65,609.92,693.02,609.92z"/>
				</g>
			</g>
			<g>
				<g>
					<g>
						<path class="st13" d="M686.78,604.95c-0.04,0-0.08-0.01-0.12-0.02l-12.64-4.33c-0.2-0.07-0.31-0.29-0.24-0.49
							c0.07-0.2,0.29-0.31,0.49-0.24l12.64,4.33c0.2,0.07,0.31,0.29,0.24,0.49C687.09,604.85,686.94,604.95,686.78,604.95z"/>
					</g>
					<g>
						<path class="st13" d="M673.85,610.37c-0.17,0-0.32-0.11-0.37-0.28c-0.06-0.2,0.06-0.42,0.27-0.48l12.93-3.67
							c0.2-0.06,0.42,0.06,0.48,0.27c0.06,0.2-0.06,0.42-0.27,0.48l-12.93,3.67C673.92,610.36,673.88,610.37,673.85,610.37z"/>
					</g>
				</g>
				<g>
					<g>
						<path class="st13" d="M704.26,604.95c-0.16,0-0.31-0.1-0.36-0.26c-0.07-0.2,0.04-0.42,0.24-0.49l12.64-4.33
							c0.2-0.07,0.42,0.04,0.49,0.24c0.07,0.2-0.04,0.42-0.24,0.49l-12.64,4.33C704.35,604.95,704.31,604.95,704.26,604.95z"/>
					</g>
					<g>
						<path class="st13" d="M717.19,610.37c-0.03,0-0.07,0-0.11-0.01l-12.93-3.67c-0.2-0.06-0.32-0.27-0.27-0.48
							c0.06-0.2,0.27-0.32,0.48-0.27l12.93,3.67c0.2,0.06,0.32,0.27,0.27,0.48C717.51,610.26,717.36,610.37,717.19,610.37z"/>
					</g>
				</g>
			</g>
			<g>
				<path class="st8" d="M688.11,601.17c0.04-0.91,0.75-1.63,1.63-1.63c0.88,0,1.59,0.72,1.63,1.63H688.11z"/>
				<path class="st8" d="M700.59,601.17c0.03-0.91,0.75-1.63,1.63-1.63c0.88,0,1.59,0.72,1.63,1.63H700.59z"/>
			</g>
			<path class="st19" d="M697.61,604.28c-0.04-0.47-0.44-0.85-0.95-0.88c-0.53-0.04-0.99,0.31-1.14,0.79
				c-0.16-0.48-0.61-0.83-1.14-0.79c-0.51,0.03-0.91,0.41-0.95,0.88c-0.05,0.62,0.36,1.33,0.92,1.93c0.63,0.67,1.71,0.67,2.34,0
				C697.25,605.61,697.66,604.89,697.61,604.28z"/>
		</g>
	</g>
</g>
</svg>
