<?xml version="1.0" encoding="utf-8"?>
<!-- Generator: Adobe Illustrator 25.0.0, SVG Export Plug-In . SVG Version: 6.00 Build 0)  -->
<svg version="1.1" xmlns="http://www.w3.org/2000/svg" xmlns:xlink="http://www.w3.org/1999/xlink" x="0px" y="0px"
	 viewBox="0 0 3765.43 700.33" style="enable-background:new 0 0 3765.43 700.33;" xml:space="preserve">
<style type="text/css">
	.st0{display:none;}
	.st1{display:inline;fill:#FFD7C4;}
	.st2{display:inline;}
	.st3{fill:#FFD7C4;}
	.st4{clip-path:url(#SVGID_2_);}
	.st5{fill:#FF8100;}
	.st6{clip-path:url(#SVGID_2_);fill:#FF8100;}
	.st7{fill:#F39C95;}
	.st8{fill:#332B6C;}
	.st9{fill:#3E3482;}
	.st10{fill:#FFFFFF;}
	.st11{fill:#EBEAF5;}
	.st12{fill:#4B4E9D;}
	.st13{fill:#F29187;}
	.st14{fill:#D7D1E9;}
	.st15{fill:#2A3C5D;}
	.st16{fill:#EC8278;}
	.st17{fill:#D9D7ED;}
	.st18{fill:#DE7C72;}
	.st19{fill:#464095;}
	.st20{fill:#EB5949;}
	.st21{fill:#D95345;}
	.st22{clip-path:url(#SVGID_4_);}
	.st23{fill:#64B3FF;}
	.st24{clip-path:url(#SVGID_4_);fill:#64B3FF;}
	.st25{fill:#FAF9FB;}
	.st26{fill:#DFE2F3;}
	.st27{fill:#FFA199;}
	.st28{fill:#342D6B;}
	.st29{fill:#3F3782;}
	.st30{fill:#EDEDFF;}
	.st31{fill:#574BCF;}
	.st32{fill:#F2938A;}
	.st33{fill:#D8D3F0;}
	.st34{fill:#2A3D5C;}
	.st35{fill:#EB847A;}
	.st36{fill:#DBDBFF;}
	.st37{fill:#DE7C74;}
	.st38{fill:#473DA8;}
	.st39{fill:#EB5A4E;}
	.st40{fill:#D95348;}
	.st41{fill:#FBFAFF;}
	.st42{fill:#E0E5FF;}
	.st43{fill-rule:evenodd;clip-rule:evenodd;fill:#574BCF;}
	.st44{fill-rule:evenodd;clip-rule:evenodd;fill:#EB5A4E;}
	.st45{clip-path:url(#SVGID_6_);}
	.st46{clip-path:url(#SVGID_8_);}
	.st47{fill:none;stroke:#FF8100;stroke-width:25;stroke-miterlimit:10;}
	.st48{fill:none;stroke:#64B3FF;stroke-width:25;stroke-miterlimit:10;}
	.st49{font-family:'Staatliches-Regular';}
	.st50{font-size:489.6164px;}
</style>
<g id="Background" class="st0">
	<g class="st2">
		<defs>
			<rect id="SVGID_1_" x="354.66" y="59.78" width="301.14" height="620.96"/>
		</defs>
		<clipPath id="SVGID_2_">
			<use xlink:href="#SVGID_1_"  style="overflow:visible;"/>
		</clipPath>
		<g id="birdhouse_2_" class="st4">
			<g>
				<g>
					
						<rect x="401.43" y="467.75" transform="matrix(0.0872 -0.9962 0.9962 0.0872 81.4245 1025.7538)" class="st5" width="398.07" height="1.4"/>
				</g>
				<g>
					<polygon class="st5" points="654.98,281.9 354.25,61.21 53.52,281.9 52.7,280.77 354.25,59.48 354.66,59.78 655.8,280.77 					
						"/>
				</g>
				<g>
					<rect x="103.84" y="666.69" class="st5" width="500.81" height="1.4"/>
				</g>
				<g>
					
						<rect x="107.33" y="269.41" transform="matrix(0.9962 -0.0872 0.0872 0.9962 -40.4376 11.205)" class="st5" width="1.4" height="398.07"/>
				</g>
			</g>
			<g>
				<path class="st5" d="M354.25,223.62c-22.84,0-41.42-18.58-41.42-41.42s18.58-41.42,41.42-41.42c22.84,0,41.42,18.58,41.42,41.42
					S377.09,223.62,354.25,223.62z M354.25,142.17c-22.07,0-40.03,17.96-40.03,40.03s17.96,40.03,40.03,40.03
					c22.07,0,40.03-17.96,40.03-40.03S376.32,142.17,354.25,142.17z"/>
			</g>
			<g>
				<path class="st5" d="M354.05,223.9c-22.84,0-41.42-18.58-41.42-41.42s18.58-41.42,41.42-41.42c22.84,0,41.42,18.58,41.42,41.42
					S376.89,223.9,354.05,223.9z M354.05,142.45c-22.07,0-40.03,17.96-40.03,40.03s17.96,40.03,40.03,40.03
					c22.07,0,40.03-17.96,40.03-40.03S376.12,142.45,354.05,142.45z"/>
			</g>
		</g>
		<polygon id="bottom_2_" class="st6" points="582.88,667.26 125.15,667.26 120.6,612.1 587.9,612.1 		"/>
		<g id="man_2_" class="st4">
			<g>
				<path class="st7" d="M261.9,607.97c1.68,7.7,0.64,19.25,3.05,21.96c2.41,2.71,18.72,10.95,28.27,12.38
					c8.43,1.27,10.1-6.01,4.39-8.42c-5.71-2.41-16.91-11.61-17.35-20.54C279.81,604.44,261.9,607.97,261.9,607.97z"/>
				<path class="st7" d="M198.34,613.43c-1.13,10.52-3.5,18.84-5.07,20.88c-1.57,2.04-11.2,1.27-15.84,6.34
					c-1.81,1.98-21.06,5.48-23.06,0.95c-2-4.53,0.78-2.59,6.54-8.13c5.76-5.54,17.38-7.2,18.15-16.45
					C179.89,607.13,198.34,613.43,198.34,613.43z"/>
				<path class="st7" d="M280.35,503.35c3.02,12.92,1.19,24.77,1.19,31.23s2.34,83.57-2.61,88.52c-4.95,4.95-8.2,10.14-14.66-3.22
					c-6.46-13.35-14.71-41.69-16.47-76.37c-0.75-14.76-5.05-24.79-5.05-24.79L280.35,503.35z"/>
				<path class="st7" d="M213.85,523.11c4.97,21.97-14.86,86.53-17.16,96.63c-2.3,10.11-9.84,8.97-14.83,8.08
					c-4.99-0.89-6.79-35.63-7.11-58.92s2.38-53.16,2.38-53.16L213.85,523.11z"/>
				<path class="st8" d="M282.09,611.45c-0.18,3.21,0.92,5.31-3.16,5.7c-4.08,0.4-16.16,2.2-17.02-0.15
					c-0.86-2.35-0.81-4.53-0.81-4.53L282.09,611.45z"/>
				<path class="st8" d="M199.67,611.88c-0.66,4.56,0.66,4.34-2.87,5.02c-3.53,0.68-20.85,2.64-21.78-0.21c-0.93-2.85,0-4.82,0-4.82
					H199.67z"/>
				<path class="st9" d="M279.43,415.87c2.78,0,7.34,56.34,10.13,107.73c2.5,45.93-1.27,86.24-6.78,89.77
					c-3.83,2.45-21.6,4.29-24.25,0c-7.87-12.75-11.01-49.88-16.8-83.76c-5.34-31.22-9.34-57.44-10.62-53.23
					c-0.25,0.82-3.54,28.09-8.14,58.85c-6.09,40.7-16.82,78.79-23.47,79.6c-8.23,1.01-24.61,2.34-26.95-3.37
					c-1.93-4.72-0.81-41.74,2.18-82.74c2.46-33.76,7.69-68.51,12.03-91.02c4.34-22.47,11.65-28.47,11.65-28.47L279.43,415.87z"/>
				<g>
					<path class="st10" d="M281.52,618.65c-1.88-1.29-6.66-0.63-7.66,2.95c-1,3.58-1.74,5.21-3.94,2.43
						c-2.21-2.78-7.69-5.67-8.39-3.46c-0.7,2.21,1.21,12.11,2.51,14.12c1.31,2.01,27.35,12.79,35.37,10.27
						c9.2-2.89,9.08-7.3-0.42-12.68c-9.49-5.38-13.25-7.74-14.54-9.42C283.17,621.19,281.52,618.65,281.52,618.65z"/>
					<path class="st11" d="M264.43,630.64c2.2,2.63,5.82,4.99,11.57,5.79c5.75,0.8,12.38,5.33,17.99,4.26
						c5.61-1.07,3.93-2.62,8.34-3.16c3.87-0.47,3.58,0.76,3.58,0.76c1.15,2.69,0.97,5.33-4.51,7.05c-3.24,1.01-9.34,0.45-15.91-1.48
						c-9.7-2.86-21.56-7.11-22.34-8.3c-0.46-0.7-1.26-4.56-0.87-6.54C262.41,629.16,264.29,630.48,264.43,630.64z"/>
				</g>
				<g>
					<path class="st10" d="M176.88,619.46c1.84-1.36,6.63-0.85,7.75,2.69c1.12,3.54,1.91,5.15,4.02,2.3
						c2.11-2.85,7.5-5.93,8.27-3.74c0.77,2.18-0.79,12.15-2.03,14.19c-1.24,2.05-26.9,13.71-35,11.46
						c-9.3-2.57-9.32-6.99-0.01-12.69c9.31-5.7,12.98-8.18,14.21-9.91C175.32,622.05,176.88,619.46,176.88,619.46z"/>
					<path class="st11" d="M194.37,630.87c-2.11,2.71-5.65,5.18-11.37,6.18c-5.72,1-12.19,5.75-17.84,4.87
						c-5.65-0.88-4.02-2.49-8.44-2.87c-3.89-0.34-3.55,0.88-3.55,0.88c-1.06,2.72-0.79,5.36,4.75,6.89
						c3.27,0.9,9.35,0.13,15.85-2.02c9.6-3.19,21.3-7.83,22.04-9.06c0.43-0.71,1.1-4.6,0.64-6.56
						C196.34,629.32,194.5,630.69,194.37,630.87z"/>
				</g>
			</g>
			<g>
				<g>
					<path class="st8" d="M234.87,456.21c-0.18,0-0.35-0.1-0.44-0.26c-1.71-3.15,0.87-11.84,1.08-12.54c0.09-0.48,0.4-0.89,0.84-1.1
						c0.46-0.22,0.99-0.19,1.42,0.07l1.04,0.62c0.24,0.14,0.32,0.45,0.17,0.69c-0.14,0.24-0.45,0.32-0.69,0.17l-1.04-0.62
						c-0.15-0.09-0.32-0.1-0.47-0.02c-0.15,0.07-0.26,0.21-0.28,0.38c0,0.02-0.01,0.05-0.02,0.07c-0.76,2.48-2.45,9.43-1.17,11.79
						c0.13,0.24,0.04,0.55-0.2,0.68C235.04,456.19,234.95,456.21,234.87,456.21z"/>
				</g>
				<g>
					<g>
						<path class="st8" d="M238.91,443.94c-5.2,0-11.57-1.63-13.71-4.76c-0.16-0.23-0.1-0.54,0.13-0.7c0.23-0.16,0.54-0.1,0.7,0.13
							c1.95,2.84,7.94,4.32,12.88,4.32c0.02,0,0.03,0,0.05,0c2.88-0.01,5.11-0.55,5.68-1.39c0.16-0.23,0.47-0.29,0.7-0.13
							c0.23,0.16,0.29,0.47,0.13,0.7c-1.12,1.64-4.93,1.83-6.51,1.83C238.94,443.94,238.93,443.94,238.91,443.94z"/>
					</g>
					<g>
						<path class="st8" d="M230.02,455.13c-0.22,0-0.42-0.14-0.48-0.36c-1.01-3.45,3.35-11.38,3.71-12.02
							c0.19-0.45,0.58-0.79,1.06-0.9c0.49-0.11,1.01,0.02,1.38,0.37l0.88,0.83c0.2,0.19,0.21,0.51,0.02,0.71
							c-0.19,0.2-0.51,0.21-0.71,0.02l-0.88-0.83c-0.12-0.12-0.29-0.16-0.46-0.12c-0.17,0.04-0.3,0.15-0.36,0.31
							c-0.01,0.02-0.02,0.05-0.03,0.07c-1.27,2.26-4.39,8.7-3.64,11.28c0.08,0.27-0.08,0.55-0.34,0.63
							C230.11,455.12,230.06,455.13,230.02,455.13z"/>
					</g>
				</g>
			</g>
			<path class="st12" d="M256.31,313.73c-17.43,6.92-41.38,23-53.07,68.41c-6.24,24.24-9.24,22.44-9.56,31.38
				c-0.15,4.03,17.57,17.43,37.28,22.38c19.71,4.95,50.52,1.65,51.23-7.41c1.33-16.97-15.11-22.29,5.56-42.95
				c19.01-19.01,20.55-29.77,10.82-39.5C288.85,336.31,260.88,311.92,256.31,313.73z"/>
			<g>
				<g>
					<path class="st7" d="M269.41,235.44c6.36-0.2,8.82-9.24,14-12.8c1.94-1.34,7.87-2.31,10.23-3.53c3.93-2.02,5.18-4.43,2.2-4.06
						c-2.05,0.26-9.39-0.54-15.54,2.04c-8.18,3.44-16.56,7.75-16.02,9.8C265.22,230.47,269.41,235.44,269.41,235.44z"/>
				</g>
				<path class="st12" d="M229.72,330.85c-3.53-14.64-20.07-60.13-11.73-67.47c12.93-11.4,47.71-44.55,50.75-40.38
					c3.04,4.17,12.82,7.85,3.69,15.75c-9.14,7.9-29.12,33.68-28.48,36.39c0.65,2.7,14.57,41.24,18.18,49.26
					C266.38,333.88,229.72,330.85,229.72,330.85z"/>
			</g>
			<g>
				<path class="st7" d="M250.55,430.25c-0.83,0.17-1.37,0.99-1.2,1.82l0,0c0.17,0.83,0.99,1.37,1.82,1.2l9.81-2.03
					c0.33-0.07,0.66,0.14,0.73,0.48l0,0c0.07,0.33-0.14,0.66-0.48,0.73l-12.22,2.53c-0.83,0.17-1.37,0.99-1.2,1.82l0,0
					c0.17,0.83,0.99,1.37,1.82,1.2l12.22-2.53c0.33-0.07,0.66,0.14,0.73,0.48l0,0c0.07,0.33-0.14,0.66-0.48,0.73l-9.81,2.03
					c-0.83,0.17-1.37,0.99-1.2,1.82l0,0c0.17,0.83,0.99,1.37,1.82,1.2l10.41-2.16c0.33-0.07,0.66,0.14,0.73,0.48l0,0
					c0.07,0.33-0.14,0.66-0.48,0.73l-6.19,1.28c-0.83,0.17-1.37,0.99-1.2,1.82v0c0.17,0.83,0.99,1.37,1.82,1.2l12.43-2.58
					c0,0,11.2-2.19,18.39-6.22c3.58-2.01,0.61-15.62-3.11-15.76C278.64,420.24,250.55,430.25,250.55,430.25z"/>
				<path class="st12" d="M298.58,346.04c14.95,7.9,53.83,57.24,41.45,67.73c-14.03,11.88-55,25.13-55,25.13l-4.4-17.47
					c-3.76-1.53,31.85-14.76,31.56-17.77c-0.67-6.87-24.75-23.17-24.75-30.41C287.43,366.01,298.58,346.04,298.58,346.04z"/>
			</g>
			<g>
				<path class="st7" d="M283.38,334.53c5.96,6.68-3.95,12.44-14.53,7.52c-11.43-5.32-12.9-21.77-5.32-21.77
					C271.11,320.28,283.38,334.53,283.38,334.53z"/>
				<g>
					<g>
						<path class="st13" d="M263.67,324.94c0.16,4.94,4.94,13.24,13.98,13.89c2.19,0.16,4.19-0.37,6.08-1.37l1.88-4.24l4.57-6.13
							l3.13-5.87l-17.83-11.05l-4.09,5.15l-4.32,5.44L263.67,324.94z"/>
						<path class="st7" d="M305.39,315.38c-8.79,8.42-14.7,19.58-23.79,18.92c-9.09-0.65-13.88-9.06-13.98-13.99
							c-0.1-4.93,7.36-19.13,8.49-22.8c1.27-4.15,14.03-12.64,23.8-5.15C309.67,299.87,309.77,311.19,305.39,315.38z"/>
						<g>
							<path class="st14" d="M309.08,298.53c0.34,5.71-10.61,3.13-17.58-0.4c-4.18-2.12-7.26-5.97-8.73-5.15
								c-4.33,2.4-6.51,9.4-7.47,7.35c-0.96-2.05,4.77-14.53,15.2-14.39C300.93,286.08,308.76,293.12,309.08,298.53z"/>
							<path class="st14" d="M304.64,300.36c0.72,3.33,1.01,6.43-1.5,12.47c-2.5,6.04,0.3,5.38,1.54,4.47
								c1.23-0.91,9.22-9.33,7.07-15.53C309.61,295.57,304.64,300.36,304.64,300.36z"/>
						</g>
						<path class="st7" d="M301.92,317.37c2.33,0.18,4.86,0.15,3.23,2.98c-1.63,2.83-6.57,8.7-9.18,7.16
							c-2.62-1.54-2.13-3.36-2.13-3.36L301.92,317.37z"/>
						<path class="st7" d="M275.82,302.73c-0.21-1.57-0.31-5.55-2.1-4.52c-3.7,2.13-6.02,11.37-4.83,12.71
							c1.19,1.34,2.7,1.25,2.7,1.25L275.82,302.73z"/>
					</g>
				</g>
				<path class="st15" d="M292,314.5c-0.27,0.41-0.16,0.97,0.26,1.24c0.41,0.27,0.97,0.16,1.24-0.26c0.27-0.41,0.16-0.97-0.26-1.24
					C292.82,313.97,292.27,314.09,292,314.5z"/>
				<path class="st15" d="M281.64,307.71c-0.27,0.41-0.16,0.97,0.26,1.24c0.41,0.27,0.97,0.16,1.24-0.26s0.16-0.97-0.26-1.24
					S281.91,307.29,281.64,307.71z"/>
				<g>
					<path class="st16" d="M284.01,318.84c-0.06,0-0.13-0.02-0.18-0.05l-1.81-1.19c-0.15-0.1-0.19-0.3-0.1-0.46
						c0.1-0.15,0.3-0.19,0.46-0.09l1.5,0.99l3.24-6.36c0.08-0.16,0.28-0.23,0.44-0.14c0.16,0.08,0.23,0.28,0.14,0.44l-3.41,6.69
						c-0.04,0.08-0.12,0.14-0.21,0.17C284.06,318.84,284.04,318.84,284.01,318.84z"/>
				</g>
				<g>
					<path class="st17" d="M297.55,314.05c-0.09,0-0.19-0.04-0.25-0.12c-1.34-1.65-3.46-2.74-5.81-3.01
						c-0.18-0.02-0.31-0.18-0.29-0.36c0.02-0.18,0.19-0.31,0.36-0.29c2.52,0.29,4.8,1.47,6.25,3.24c0.11,0.14,0.09,0.34-0.05,0.46
						C297.69,314.03,297.62,314.05,297.55,314.05z"/>
				</g>
				<g>
					<path class="st17" d="M286.64,306.9c-0.09,0-0.19-0.04-0.25-0.12c-1.34-1.65-3.46-2.74-5.81-3.01
						c-0.18-0.02-0.31-0.18-0.29-0.36c0.02-0.18,0.19-0.31,0.36-0.29c2.52,0.28,4.8,1.47,6.25,3.24c0.11,0.14,0.09,0.34-0.05,0.46
						C286.79,306.88,286.71,306.9,286.64,306.9z"/>
				</g>
				<path class="st18" d="M277.56,317.89c-1.56,5.72,3.61,9.1,8.23,5.39"/>
				<g>
					<path class="st14" d="M286.98,327.35c0.32-1.62-1.14-6.67-4.19-7c-3.05-0.33-2.47,2.84-0.66,4.52
						C283.94,326.54,286.98,327.35,286.98,327.35z"/>
					<path class="st14" d="M273.35,318.41c1.36-0.94,6.57-1.62,8.09,1.05c1.52,2.67-1.62,3.4-3.88,2.4
						C275.3,320.87,273.35,318.41,273.35,318.41z"/>
				</g>
			</g>
			<g>
				<g>
					<path class="st19" d="M292.21,381.31c-0.27,0-0.49-0.22-0.49-0.49c0-0.09-0.11-8.54-4.03-10.27c-0.25-0.11-0.36-0.4-0.25-0.64
						c0.11-0.25,0.4-0.36,0.64-0.25c4.5,1.98,4.61,10.78,4.61,11.15C292.7,381.08,292.48,381.3,292.21,381.31
						C292.21,381.31,292.21,381.31,292.21,381.31z"/>
				</g>
				<g>
					<path class="st19" d="M317.66,406.99c-0.17,0-0.34-0.09-0.43-0.25c-1.15-2.09-4.75-2.58-4.78-2.59
						c-0.2-0.03-0.37-0.17-0.41-0.37c-0.05-0.2,0.03-0.4,0.2-0.52c0.06-0.04,6.41-4.22,10.91-0.01c0.2,0.18,0.21,0.49,0.02,0.69
						c-0.18,0.2-0.49,0.21-0.69,0.02c-2.88-2.7-6.72-1.4-8.59-0.5c1.33,0.37,3.3,1.17,4.2,2.8c0.13,0.24,0.04,0.53-0.19,0.66
						C317.82,406.97,317.74,406.99,317.66,406.99z"/>
				</g>
				<g>
					<path class="st19" d="M258.48,322.89c-0.07,0-0.13-0.02-0.19-0.06c-2.15-1.57-0.67-7.48-0.4-8.5c-0.04-0.05-0.08-0.08-0.1-0.08
						c-0.01,0-0.71,0.08-1.54,4.88c-0.03,0.18-0.2,0.3-0.38,0.27c-0.18-0.03-0.3-0.2-0.27-0.38c0.8-4.66,1.54-5.34,2.09-5.42
						c0.43-0.06,0.72,0.31,0.83,0.54c0.03,0.07,0.04,0.15,0.02,0.23c-0.51,1.81-1.49,6.76,0.12,7.93c0.15,0.11,0.18,0.31,0.07,0.46
						C258.68,322.85,258.58,322.89,258.48,322.89z"/>
				</g>
			</g>
		</g>
		<g id="woman_2_" class="st4">
			<g>
				<path class="st7" d="M471.52,327.97l-18.57,28.85l-6.53-30.16c2.51-3.14,1.28-7.85,0.61-11.42l21-0.73
					C468.96,318.67,469.27,327.04,471.52,327.97z"/>
			</g>
			<path class="st7" d="M497.16,592.83c-0.07,9.11-2.19,26.38-2.68,33.9c-0.53,8.1-1.78,14.05-4.76,15.23
				c-3.5,1.39-5.2,4.58-7.03-3.28c-0.41-1.78-0.81-5.02-1.19-8.75c-0.62-6.19-4.23-33.74-4.65-38.01
				C475.3,575.87,497.16,592.83,497.16,592.83z"/>
			<path class="st7" d="M462.24,593.36c0.41,10.64-1.11,28.62-0.63,35.83c0.49,7.43-0.12,9.23-4.36,11.15
				c-1.59,0.72-6.08-0.17-7.57-2.22c-4.86-6.68-6.12-25.68-8.51-41.37C438.43,578.68,462.24,593.36,462.24,593.36z"/>
			<g>
				<path class="st10" d="M433.06,638.09c1.21-0.65,2.4-1.27,3.43-2.04c2.39-1.79,4.72-4.78,6.45-8.24c1.3-2.6,1.86-3.16,3.92-2.42
					c2.07,0.74,5.44,0.24,5.35,1.52c-0.02,0.33-0.27,0.83-0.71,1.43c2.76,0.67,7.9,1.09,10.09,0.09c1.49-0.68,2.98,7.51,3.05,11.58
					c0.09,5.23-2.16,6.09-5.7,6.54c0,0-33.84,5.56-35.47,1.76C420.72,641.88,427.23,641.21,433.06,638.09z"/>
			</g>
			<path class="st10" d="M481.26,633.29c0.33-2.26,0.75-1.58,2.85-1.18c0.01-0.59,0.04-1.07,0.06-1.38
				c0.07-1.12,3.12,0.06,6.87-0.69c1.5-0.3,1.57-0.04,1.8,1.19c0.35-0.18,0.53-0.29,0.97-0.23c0.83,0.12,2.64,5.21,4.07,8.64
				c1.43,3.42,3.87,7.32,3.97,10.07c0.13,3.43-1.14,7.82-9.02,7.92c-7.89,0.1-10.18-3.56-10.72-7.54
				C481.68,646.84,480.56,638.07,481.26,633.29z"/>
			<path class="st9" d="M506.62,425.17c-7.14-19.71-17.05,14.3-37.72,13.73c-20.67-0.57-38.52-10.91-42.35,2.32
				c-9.23,31.9-0.91,65.09,2.06,91.04c2.58,22.57,7.88,86.59,7.93,87.26c0.3,3.94,27.13,1.4,27.66-2.92
				c0.08-0.61,1.88-137.99,4.85-137.25c2.98,0.73,4.81,136.69,4.85,137.13c0.56,5.49,26.19,5.86,26.64,0.74
				C500.63,616.39,513.73,444.79,506.62,425.17z"/>
			<path class="st8" d="M476.44,477c-5.12,0.17-8.32,0.66-14.87,2.83c-0.46,0.15-0.26,0.88,0.2,0.73c4.78-1.59,9.61-2.63,14.67-2.8
				C476.93,477.74,476.93,476.99,476.44,477z"/>
			
				<ellipse transform="matrix(0.3401 -0.9404 0.9404 0.3401 -3.433 630.3446)" class="st14" cx="447.41" cy="317.62" rx="13.52" ry="11.25"/>
			<g>
				<path class="st20" d="M467.39,317.57c12.33,7.73,38.04,47.47,37.62,73.32c-0.43,26.02,3.42,30.23,2.61,39.35
					c-0.37,4.1-17.41,15.93-38.03,18.42c-20.61,2.49-40.69-4.83-44.6-13.25c-9.64-20.78,11.78-21.47-6.53-45.05
					c-16.84-21.69-17.03-32.8-5.92-41.42C423.65,340.32,460.23,313.08,467.39,317.57z"/>
				<path class="st7" d="M450.46,440.43c0.82,0.28,1.26,1.18,0.98,2l0,0c-0.28,0.82-1.18,1.26-2,0.98l-9.68-3.31
					c-0.33-0.11-0.69,0.06-0.8,0.39l0,0c-0.11,0.33,0.06,0.69,0.39,0.8l12.06,4.13c0.82,0.28,1.26,1.18,0.98,2l0,0
					c-0.28,0.82-1.18,1.26-2,0.98l-12.06-4.13c-0.33-0.11-0.69,0.06-0.8,0.39l0,0c-0.11,0.33,0.06,0.69,0.39,0.8l9.68,3.31
					c0.82,0.28,1.26,1.18,0.98,2l0,0c-0.28,0.82-1.18,1.26-2,0.98l-10.27-3.52c-0.33-0.11-0.69,0.06-0.8,0.39l0,0
					c-0.11,0.33,0.06,0.69,0.39,0.8l6.11,2.09c0.82,0.28,1.26,1.18,0.98,2l0,0c-0.28,0.82-1.18,1.26-2,0.98l-12.27-4.2
					c0,0-11.07-3.65-17.84-8.66c-3.38-2.49,1.37-15.91,5.17-15.58C423.27,426.69,450.46,440.43,450.46,440.43z"/>
				<g>
					<g>
						<g>
							<path class="st7" d="M442.93,240.84c-6.55-1.3-7.55-11.08-12.29-15.66c-1.78-1.72-7.75-3.75-9.99-5.41
								c-3.72-2.77-4.6-5.48-1.58-4.58c2.08,0.62,9.82,1.05,15.74,4.78c7.88,4.97,15.81,10.88,14.91,12.9
								C448.13,236.41,442.93,240.84,442.93,240.84z"/>
						</g>
						<path class="st20" d="M480.68,342.45c5.62-16.29,25.79-66.12,17-73.78c-13.64-11.88-50.35-46.45-53.52-42.06
							c-3.16,4.4-13.41,8.32-3.77,16.55c9.64,8.24,30.78,35.17,30.12,38.01c-0.66,2.84-15.03,43.38-18.76,51.82
							C447.33,342.97,480.68,342.45,480.68,342.45z"/>
					</g>
					<path class="st20" d="M412.54,348.93c-16.16,6.09-61.88,51.14-50.67,63.35c12.7,13.84,52.54,32.51,52.54,32.51l6.69-17.14
						c4.01-1.07-30.4-19.03-29.71-22.05c1.55-6.88,28.05-20.33,28.97-27.67C421.29,370.6,412.54,348.93,412.54,348.93z"/>
					<g>
						<path class="st7" d="M427.28,338.41c-6.89,6.01,4.55,13.92,15.9,10.28c12.26-3.93,15.86-20.42,8.18-21.39
							C443.68,326.33,427.28,338.41,427.28,338.41z"/>
					</g>
					<g>
						<path class="st21" d="M414.56,385.5c-0.02,0-0.04,0-0.07,0c-0.27-0.04-0.47-0.29-0.43-0.56c0.05-0.38,1.29-9.29,6.1-10.72
							c0.26-0.08,0.54,0.07,0.62,0.34c0.08,0.26-0.07,0.54-0.34,0.62c-4.19,1.24-5.38,9.8-5.39,9.89
							C415.02,385.31,414.8,385.5,414.56,385.5z"/>
					</g>
					<g>
						<path class="st21" d="M385.48,408.28c-0.1,0-0.2-0.03-0.29-0.1c-0.22-0.16-0.27-0.47-0.11-0.7c1.12-1.54,3.22-2.1,4.62-2.3
							c-1.77-1.15-5.5-2.96-8.77-0.59c-0.22,0.16-0.54,0.11-0.7-0.11c-0.16-0.22-0.11-0.54,0.11-0.7c5.09-3.69,10.99,1.35,11.05,1.4
							c0.16,0.14,0.21,0.36,0.14,0.55c-0.07,0.2-0.26,0.32-0.46,0.33c-0.04,0-3.76,0.05-5.18,2.01
							C385.78,408.21,385.63,408.28,385.48,408.28z"/>
					</g>
					<g>
						<path class="st21" d="M458.79,330.8c-0.06,0-0.13-0.01-0.19-0.04c-0.26-0.1-0.38-0.39-0.28-0.65
							c0.65-1.62-2.36-5.89-4.42-8.19c-0.07-0.08-0.11-0.17-0.12-0.27c-0.05-0.4,0.09-0.9,0.52-1.09c0.61-0.27,1.67-0.06,4.94,3.6
							c0.18,0.21,0.17,0.52-0.04,0.71c-0.21,0.18-0.52,0.17-0.71-0.04c-2.23-2.5-3.22-3.14-3.6-3.3c1.17,1.35,5.36,6.46,4.36,8.96
							C459.17,330.68,458.98,330.8,458.79,330.8z"/>
					</g>
				</g>
			</g>
			<g>
				
					<ellipse transform="matrix(0.9425 -0.3342 0.3342 0.9425 -76.7677 155.4919)" class="st14" cx="413.44" cy="300.82" rx="13.7" ry="13.7"/>
				
					<ellipse transform="matrix(0.9306 -0.3661 0.3661 0.9306 -77.785 177.9318)" class="st14" cx="430.32" cy="294.09" rx="13.7" ry="13.7"/>
				
					<ellipse transform="matrix(0.4488 -0.8936 0.8936 0.4488 -64.6189 554.5206)" class="st14" cx="417.22" cy="329.64" rx="11.25" ry="13.52"/>
			</g>
			<g>
				<path class="st13" d="M439.99,310.75l7.36,19.86c-1.58,4.1-4.37,7.51-8.27,8.96c-0.8,0.3-1.61,0.5-2.44,0.61
					c-2.79,0.4-5.72-0.17-8.46-1.42l-7.7-20.78L439.99,310.75z"/>
				<path class="st7" d="M441.1,297.16l5.26,14.18c3.19,8.61,0.01,21.43-8.61,24.62c-0.8,0.3-1.61,0.5-2.44,0.61
					c-8.1,1.15-17.24-5.86-20.13-13.68l-5.26-14.18c-1.43-3.85,0.54-8.12,4.38-9.54l17.26-6.4
					C435.4,291.35,439.67,293.31,441.1,297.16z"/>
				<path class="st15" d="M424.52,316.78c0.19,0.51-0.07,1.08-0.58,1.27c-0.51,0.19-1.08-0.07-1.27-0.58
					c-0.19-0.51,0.07-1.08,0.58-1.27C423.77,316.01,424.33,316.27,424.52,316.78z"/>
				<path class="st15" d="M436.28,311.9c0.19,0.51-0.07,1.08-0.58,1.27c-0.51,0.19-1.08-0.07-1.27-0.58
					c-0.19-0.51,0.07-1.08,0.58-1.27C435.52,311.13,436.09,311.39,436.28,311.9z"/>
				<path class="st10" d="M429.94,326.76c2.83,3.58,8.6,1.45,8.41-3.12"/>
				
					<ellipse transform="matrix(0.929 -0.3701 0.3701 0.929 -80.1822 177.3165)" class="st14" cx="421.94" cy="297.59" rx="17.03" ry="10.19"/>
				
					<ellipse transform="matrix(0.9946 -0.1034 0.1034 0.9946 -30.3265 43.6335)" class="st14" cx="405.52" cy="314.2" rx="9.33" ry="11.84"/>
				
					<ellipse transform="matrix(0.7932 -0.6089 0.6089 0.7932 -89.6422 332.7961)" class="st14" cx="445.2" cy="298.39" rx="9.33" ry="11.84"/>
				<g>
					<path class="st16" d="M432.46,321.88c-0.59,0-1.12-0.37-1.32-0.94l-2.6-7.13c-0.07-0.18,0.03-0.38,0.21-0.45
						c0.18-0.07,0.38,0.03,0.45,0.21l2.6,7.13c0.12,0.33,0.45,0.52,0.78,0.46l0.93-0.16c0.19-0.03,0.37,0.09,0.4,0.29
						c0.03,0.19-0.1,0.37-0.29,0.4l-0.93,0.16C432.62,321.87,432.54,321.88,432.46,321.88z"/>
				</g>
			</g>
		</g>
	</g>
	<g class="st2">
		<defs>
			<rect id="SVGID_3_" x="15.35" y="59.23" width="301.14" height="621.5"/>
		</defs>
		<clipPath id="SVGID_4_">
			<use xlink:href="#SVGID_3_"  style="overflow:visible;"/>
		</clipPath>
		<g id="birdhouse_3_" class="st22">
			<g>
				<g>
					
						<rect x="364.37" y="467.2" transform="matrix(0.0872 -0.9962 0.9962 0.0872 48.1441 988.3381)" class="st23" width="398.07" height="1.4"/>
				</g>
				<g>
					<polygon class="st23" points="617.92,281.35 317.19,60.66 16.46,281.35 15.64,280.23 317.19,58.93 317.6,59.23 618.74,280.23 
											"/>
				</g>
				<g>
					<rect x="66.78" y="666.15" class="st23" width="500.81" height="1.4"/>
				</g>
				<g>
					
						<rect x="70.27" y="268.86" transform="matrix(0.9962 -0.0872 0.0872 0.9962 -40.5311 7.9714)" class="st23" width="1.4" height="398.07"/>
				</g>
			</g>
			<g>
				<path class="st23" d="M317.19,223.08c-22.84,0-41.42-18.58-41.42-41.42s18.58-41.42,41.42-41.42
					c22.84,0,41.42,18.58,41.42,41.42S340.03,223.08,317.19,223.08z M317.19,141.62c-22.07,0-40.03,17.96-40.03,40.03
					s17.96,40.03,40.03,40.03c22.07,0,40.03-17.96,40.03-40.03S339.26,141.62,317.19,141.62z"/>
			</g>
			<g>
				<path class="st23" d="M316.99,223.36c-22.84,0-41.42-18.58-41.42-41.42s18.58-41.42,41.42-41.42
					c22.84,0,41.42,18.58,41.42,41.42S339.83,223.36,316.99,223.36z M316.99,141.9c-22.07,0-40.03,17.96-40.03,40.03
					s17.96,40.03,40.03,40.03c22.07,0,40.03-17.96,40.03-40.03S339.06,141.9,316.99,141.9z"/>
			</g>
		</g>
		<polygon id="bottom_3_" class="st24" points="545.82,666.72 88.1,666.72 83.54,611.56 550.84,611.56 		"/>
		<g id="man_3_" class="st22">
			<g>
				<path class="st7" d="M224.85,607.43c1.68,7.7,0.64,19.25,3.05,21.96c2.41,2.71,18.72,10.95,28.27,12.38
					c8.43,1.27,10.1-6.01,4.39-8.42c-5.71-2.41-16.91-11.61-17.35-20.54C242.75,603.89,224.85,607.43,224.85,607.43z"/>
				<path class="st7" d="M161.29,612.88c-1.13,10.52-3.5,18.84-5.07,20.88c-1.57,2.04-11.2,1.27-15.84,6.34
					c-1.81,1.98-21.06,5.48-23.06,0.95c-2-4.53,0.78-2.59,6.54-8.13c5.76-5.54,17.38-7.2,18.15-16.45
					C142.83,606.58,161.29,612.88,161.29,612.88z"/>
				<path class="st7" d="M243.29,502.8c3.02,12.92,1.19,24.77,1.19,31.23s2.34,83.57-2.61,88.52c-4.95,4.95-8.2,10.14-14.66-3.22
					c-6.46-13.35-14.71-41.69-16.47-76.37c-0.75-14.76-5.05-24.79-5.05-24.79L243.29,502.8z"/>
				<path class="st7" d="M176.79,522.56c4.97,21.97-14.86,86.53-17.16,96.63c-2.3,10.11-9.84,8.97-14.83,8.08
					c-4.99-0.89-6.79-35.63-7.11-58.92c-0.32-23.28,2.38-53.16,2.38-53.16L176.79,522.56z"/>
				<path class="st8" d="M245.03,610.9c-0.18,3.21,0.92,5.31-3.16,5.7c-4.08,0.4-16.16,2.2-17.02-0.15
					c-0.86-2.35-0.81-4.53-0.81-4.53L245.03,610.9z"/>
				<path class="st8" d="M162.61,611.33c-0.66,4.56,0.66,4.34-2.87,5.02c-3.53,0.68-20.85,2.64-21.78-0.21c-0.93-2.85,0-4.82,0-4.82
					H162.61z"/>
				<path class="st9" d="M242.37,415.32c2.78,0,7.34,56.34,10.13,107.73c2.5,45.93-1.27,86.24-6.78,89.77
					c-3.83,2.45-21.6,4.29-24.25,0c-7.87-12.75-11.01-49.88-16.8-83.76c-5.34-31.22-9.34-57.44-10.62-53.23
					c-0.25,0.82-3.54,28.09-8.14,58.85c-6.09,40.7-16.82,78.79-23.47,79.6c-8.23,1.01-24.61,2.34-26.95-3.37
					c-1.93-4.72-0.81-41.74,2.18-82.74c2.46-33.76,7.69-68.51,12.03-91.02c4.34-22.47,11.65-28.47,11.65-28.47L242.37,415.32z"/>
				<g>
					<path class="st10" d="M244.47,618.11c-1.88-1.29-6.66-0.63-7.66,2.95c-1,3.58-1.74,5.21-3.94,2.43
						c-2.21-2.78-7.69-5.67-8.39-3.46c-0.7,2.21,1.21,12.11,2.51,14.12c1.31,2.01,27.35,12.79,35.37,10.27
						c9.2-2.89,9.08-7.3-0.42-12.68c-9.49-5.38-13.25-7.74-14.54-9.42C246.11,620.64,244.47,618.11,244.47,618.11z"/>
					<path class="st11" d="M227.37,630.1c2.2,2.63,5.82,4.99,11.57,5.79c5.75,0.8,12.38,5.33,17.99,4.26
						c5.61-1.07,3.93-2.62,8.34-3.16c3.87-0.47,3.58,0.76,3.58,0.76c1.15,2.69,0.97,5.33-4.51,7.05c-3.24,1.01-9.34,0.45-15.91-1.48
						c-9.7-2.86-21.56-7.11-22.34-8.3c-0.46-0.7-1.26-4.56-0.87-6.54C225.36,628.62,227.23,629.93,227.37,630.1z"/>
				</g>
				<g>
					<path class="st10" d="M139.82,618.91c1.84-1.36,6.63-0.85,7.75,2.69c1.12,3.54,1.91,5.15,4.02,2.3
						c2.11-2.85,7.5-5.93,8.27-3.74c0.77,2.18-0.79,12.15-2.03,14.19c-1.24,2.05-26.9,13.71-35,11.46
						c-9.3-2.57-9.32-6.99-0.01-12.69c9.31-5.7,12.98-8.18,14.21-9.91S139.82,618.91,139.82,618.91z"/>
					<path class="st11" d="M157.31,630.32c-2.11,2.71-5.65,5.18-11.37,6.18c-5.72,1-12.19,5.75-17.84,4.87
						c-5.65-0.88-4.02-2.49-8.44-2.87c-3.89-0.34-3.55,0.88-3.55,0.88c-1.06,2.72-0.79,5.36,4.75,6.89
						c3.27,0.9,9.35,0.13,15.85-2.02c9.6-3.19,21.3-7.83,22.04-9.06c0.43-0.71,1.1-4.6,0.64-6.56
						C159.28,628.77,157.44,630.15,157.31,630.32z"/>
				</g>
			</g>
			<g>
				<g>
					<path class="st8" d="M197.81,455.66c-0.18,0-0.35-0.1-0.44-0.26c-1.71-3.15,0.87-11.84,1.08-12.54c0.09-0.48,0.4-0.89,0.84-1.1
						c0.46-0.22,0.99-0.19,1.42,0.07l1.04,0.62c0.24,0.14,0.32,0.45,0.17,0.69c-0.14,0.24-0.45,0.32-0.69,0.17l-1.04-0.62
						c-0.15-0.09-0.32-0.1-0.47-0.02c-0.15,0.07-0.26,0.21-0.28,0.38c0,0.02-0.01,0.05-0.02,0.07c-0.76,2.48-2.45,9.43-1.17,11.79
						c0.13,0.24,0.04,0.55-0.2,0.68C197.98,455.64,197.89,455.66,197.81,455.66z"/>
				</g>
				<g>
					<g>
						<path class="st8" d="M201.85,443.39c-5.2,0-11.57-1.63-13.71-4.76c-0.16-0.23-0.1-0.54,0.13-0.7c0.23-0.16,0.54-0.1,0.7,0.13
							c1.95,2.84,7.94,4.32,12.88,4.32c0.02,0,0.03,0,0.05,0c2.88-0.01,5.11-0.55,5.68-1.39c0.16-0.23,0.47-0.29,0.7-0.13
							c0.23,0.16,0.29,0.47,0.13,0.7c-1.12,1.64-4.93,1.83-6.51,1.83C201.89,443.39,201.87,443.39,201.85,443.39z"/>
					</g>
					<g>
						<path class="st8" d="M192.96,454.58c-0.22,0-0.42-0.14-0.48-0.36c-1.01-3.45,3.35-11.38,3.71-12.02
							c0.19-0.45,0.58-0.79,1.06-0.9c0.49-0.11,1.01,0.02,1.38,0.37l0.88,0.83c0.2,0.19,0.21,0.51,0.02,0.71
							c-0.19,0.2-0.51,0.21-0.71,0.02l-0.88-0.83c-0.12-0.12-0.29-0.16-0.46-0.12c-0.17,0.04-0.3,0.15-0.36,0.31
							c-0.01,0.02-0.02,0.05-0.03,0.07c-1.27,2.26-4.39,8.7-3.64,11.28c0.08,0.27-0.08,0.55-0.34,0.63
							C193.05,454.57,193.01,454.58,192.96,454.58z"/>
					</g>
				</g>
			</g>
			<path class="st12" d="M219.25,313.18c-17.43,6.92-41.38,23-53.07,68.41c-6.24,24.24-9.24,22.44-9.56,31.38
				c-0.15,4.03,17.57,17.43,37.28,22.38c19.71,4.95,50.52,1.65,51.23-7.41c1.33-16.97-15.11-22.29,5.56-42.95
				c19.01-19.01,20.55-29.77,10.82-39.5C251.79,335.77,223.82,311.37,219.25,313.18z"/>
			<g>
				<g>
					<path class="st7" d="M232.35,234.9c6.36-0.2,8.82-9.24,14-12.8c1.94-1.34,7.87-2.31,10.23-3.53c3.93-2.02,5.18-4.43,2.2-4.06
						c-2.05,0.26-9.39-0.54-15.54,2.04c-8.18,3.44-16.56,7.75-16.02,9.8C228.16,229.92,232.35,234.9,232.35,234.9z"/>
				</g>
				<path class="st12" d="M192.66,330.3c-3.53-14.64-20.07-60.13-11.73-67.47c12.93-11.4,47.71-44.55,50.75-40.38
					c3.04,4.17,12.82,7.85,3.69,15.75c-9.14,7.9-29.12,33.68-28.48,36.39c0.65,2.7,14.57,41.24,18.18,49.26
					C229.32,333.33,192.66,330.3,192.66,330.3z"/>
			</g>
			<g>
				<path class="st7" d="M213.49,429.7c-0.83,0.17-1.37,0.99-1.2,1.82l0,0c0.17,0.83,0.99,1.37,1.82,1.2l9.81-2.03
					c0.33-0.07,0.66,0.14,0.73,0.48l0,0c0.07,0.33-0.14,0.66-0.48,0.73l-12.22,2.53c-0.83,0.17-1.37,0.99-1.2,1.82l0,0
					c0.17,0.83,0.99,1.37,1.82,1.2l12.22-2.53c0.33-0.07,0.66,0.14,0.73,0.48l0,0c0.07,0.33-0.14,0.66-0.48,0.73l-9.81,2.03
					c-0.83,0.17-1.37,0.99-1.2,1.82l0,0c0.17,0.83,0.99,1.37,1.82,1.2l10.41-2.16c0.33-0.07,0.66,0.14,0.73,0.48l0,0
					c0.07,0.33-0.14,0.66-0.48,0.73l-6.19,1.28c-0.83,0.17-1.37,0.99-1.2,1.82v0c0.17,0.83,0.99,1.37,1.82,1.2l12.43-2.58
					c0,0,11.2-2.19,18.39-6.22c3.58-2.01,0.61-15.62-3.11-15.76C241.58,419.69,213.49,429.7,213.49,429.7z"/>
				<path class="st12" d="M261.52,345.5c14.95,7.9,53.83,57.24,41.45,67.73c-14.03,11.88-55,25.13-55,25.13l-4.4-17.47
					c-3.76-1.53,31.85-14.76,31.56-17.77c-0.67-6.87-24.75-23.17-24.75-30.41C250.38,365.46,261.52,345.5,261.52,345.5z"/>
			</g>
			<g>
				<path class="st7" d="M246.32,333.99c5.96,6.68-3.95,12.44-14.53,7.52c-11.43-5.32-12.9-21.77-5.32-21.77
					C234.05,319.73,246.32,333.99,246.32,333.99z"/>
				<g>
					<g>
						<path class="st13" d="M226.61,324.39c0.16,4.94,4.94,13.24,13.98,13.89c2.19,0.16,4.19-0.37,6.08-1.37l1.88-4.24l4.57-6.13
							l3.13-5.87l-17.83-11.05l-4.09,5.15l-4.32,5.44L226.61,324.39z"/>
						<path class="st7" d="M268.33,314.83c-8.79,8.42-14.7,19.58-23.79,18.92c-9.09-0.65-13.88-9.06-13.98-13.99
							c-0.1-4.93,7.36-19.13,8.49-22.8c1.27-4.15,14.03-12.64,23.8-5.15C272.61,299.32,272.72,310.64,268.33,314.83z"/>
						<g>
							<path class="st14" d="M272.02,297.98c0.34,5.71-10.61,3.13-17.58-0.4c-4.18-2.12-7.26-5.97-8.73-5.15
								c-4.33,2.4-6.51,9.4-7.47,7.35c-0.96-2.05,4.77-14.53,15.2-14.39C263.87,285.53,271.7,292.57,272.02,297.98z"/>
							<path class="st14" d="M267.58,299.81c0.72,3.33,1.01,6.43-1.5,12.47c-2.5,6.04,0.3,5.38,1.54,4.47
								c1.23-0.91,9.22-9.33,7.07-15.53C272.55,295.02,267.58,299.81,267.58,299.81z"/>
						</g>
						<path class="st7" d="M264.86,316.82c2.33,0.18,4.86,0.15,3.23,2.98c-1.63,2.83-6.57,8.7-9.18,7.16
							c-2.62-1.54-2.13-3.36-2.13-3.36L264.86,316.82z"/>
						<path class="st7" d="M238.76,302.19c-0.21-1.57-0.31-5.55-2.1-4.52c-3.7,2.13-6.02,11.37-4.83,12.71
							c1.19,1.34,2.7,1.25,2.7,1.25L238.76,302.19z"/>
					</g>
				</g>
				<path class="st15" d="M254.94,313.95c-0.27,0.41-0.16,0.97,0.26,1.24c0.41,0.27,0.97,0.16,1.24-0.26
					c0.27-0.41,0.16-0.97-0.26-1.24C255.76,313.43,255.21,313.54,254.94,313.95z"/>
				<path class="st15" d="M244.58,307.16c-0.27,0.41-0.16,0.97,0.26,1.24c0.41,0.27,0.97,0.16,1.24-0.26
					c0.27-0.41,0.16-0.97-0.26-1.24S244.85,306.75,244.58,307.16z"/>
				<g>
					<path class="st16" d="M246.95,318.29c-0.06,0-0.13-0.02-0.18-0.05l-1.81-1.19c-0.15-0.1-0.19-0.3-0.09-0.46
						c0.1-0.15,0.3-0.19,0.46-0.1l1.5,0.99l3.24-6.36c0.08-0.16,0.28-0.23,0.44-0.14c0.16,0.08,0.23,0.28,0.14,0.44l-3.41,6.69
						c-0.04,0.08-0.12,0.14-0.21,0.17C247.01,318.29,246.98,318.29,246.95,318.29z"/>
				</g>
				<g>
					<path class="st17" d="M260.49,313.51c-0.09,0-0.19-0.04-0.25-0.12c-1.34-1.65-3.46-2.74-5.81-3.01
						c-0.18-0.02-0.31-0.18-0.29-0.36c0.02-0.18,0.19-0.31,0.36-0.29c2.52,0.28,4.8,1.47,6.25,3.24c0.11,0.14,0.09,0.34-0.05,0.46
						C260.64,313.48,260.56,313.51,260.49,313.51z"/>
				</g>
				<g>
					<path class="st17" d="M249.58,306.36c-0.09,0-0.19-0.04-0.25-0.12c-1.34-1.65-3.46-2.74-5.81-3.01
						c-0.18-0.02-0.31-0.18-0.29-0.36c0.02-0.18,0.19-0.31,0.36-0.29c2.52,0.29,4.8,1.47,6.25,3.24c0.11,0.14,0.09,0.34-0.05,0.46
						C249.73,306.33,249.66,306.36,249.58,306.36z"/>
				</g>
				<path class="st18" d="M240.5,317.34c-1.56,5.72,3.61,9.1,8.23,5.39"/>
				<g>
					<path class="st14" d="M249.92,326.8c0.32-1.62-1.14-6.67-4.19-7c-3.05-0.33-2.47,2.84-0.66,4.52
						C246.88,325.99,249.92,326.8,249.92,326.8z"/>
					<path class="st14" d="M236.29,317.86c1.36-0.94,6.57-1.62,8.09,1.05c1.52,2.67-1.62,3.4-3.88,2.4
						C238.25,320.33,236.29,317.86,236.29,317.86z"/>
				</g>
			</g>
			<g>
				<g>
					<path class="st19" d="M255.15,380.76c-0.27,0-0.49-0.22-0.49-0.49c0-0.09-0.11-8.54-4.03-10.27c-0.25-0.11-0.36-0.4-0.25-0.64
						c0.11-0.25,0.4-0.36,0.64-0.25c4.5,1.98,4.61,10.78,4.61,11.15C255.64,380.54,255.42,380.76,255.15,380.76
						C255.15,380.76,255.15,380.76,255.15,380.76z"/>
				</g>
				<g>
					<path class="st19" d="M280.6,406.44c-0.17,0-0.34-0.09-0.43-0.25c-1.15-2.09-4.75-2.58-4.78-2.59
						c-0.2-0.03-0.37-0.17-0.41-0.37c-0.05-0.2,0.03-0.4,0.2-0.52c0.06-0.04,6.41-4.22,10.91-0.01c0.2,0.18,0.21,0.49,0.02,0.69
						c-0.18,0.2-0.49,0.21-0.69,0.02c-2.88-2.7-6.72-1.4-8.59-0.5c1.33,0.37,3.3,1.17,4.2,2.8c0.13,0.24,0.04,0.53-0.19,0.66
						C280.76,406.42,280.68,406.44,280.6,406.44z"/>
				</g>
				<g>
					<path class="st19" d="M221.42,322.35c-0.07,0-0.13-0.02-0.19-0.06c-2.15-1.57-0.67-7.48-0.4-8.5c-0.04-0.05-0.08-0.08-0.1-0.08
						c-0.01,0-0.71,0.08-1.54,4.88c-0.03,0.18-0.2,0.3-0.38,0.27c-0.18-0.03-0.3-0.2-0.27-0.38c0.8-4.66,1.54-5.34,2.09-5.42
						c0.43-0.06,0.72,0.31,0.83,0.54c0.03,0.07,0.04,0.15,0.02,0.23c-0.51,1.81-1.49,6.76,0.12,7.93c0.15,0.11,0.18,0.31,0.07,0.46
						C221.62,322.3,221.52,322.35,221.42,322.35z"/>
				</g>
			</g>
		</g>
		<g id="woman_3_" class="st22">
			<g>
				<path class="st7" d="M434.46,327.42l-18.57,28.85l-6.53-30.16c2.51-3.14,1.28-7.85,0.61-11.42l21-0.73
					C431.9,318.12,432.21,326.49,434.46,327.42z"/>
			</g>
			<path class="st7" d="M460.11,592.29c-0.07,9.11-2.19,26.38-2.68,33.9c-0.53,8.1-1.78,14.05-4.76,15.23
				c-3.5,1.39-5.2,4.58-7.03-3.28c-0.41-1.78-0.81-5.02-1.19-8.75c-0.62-6.19-4.23-33.74-4.65-38.01
				C438.24,575.32,460.11,592.29,460.11,592.29z"/>
			<path class="st7" d="M425.18,592.81c0.41,10.64-1.11,28.62-0.63,35.83c0.49,7.43-0.12,9.23-4.36,11.15
				c-1.59,0.72-6.08-0.17-7.57-2.22c-4.86-6.68-6.12-25.68-8.51-41.37C401.37,578.13,425.18,592.81,425.18,592.81z"/>
			<g>
				<path class="st10" d="M396.01,637.54c1.21-0.65,2.4-1.27,3.43-2.04c2.39-1.79,4.72-4.78,6.45-8.24c1.3-2.6,1.86-3.16,3.92-2.42
					c2.07,0.74,5.44,0.24,5.35,1.52c-0.02,0.33-0.27,0.83-0.71,1.43c2.76,0.67,7.9,1.09,10.09,0.09c1.49-0.68,2.98,7.51,3.05,11.58
					c0.09,5.23-2.16,6.09-5.7,6.54c0,0-33.84,5.56-35.47,1.76C383.67,641.34,390.17,640.66,396.01,637.54z"/>
			</g>
			<path class="st10" d="M444.21,632.75c0.33-2.26,0.75-1.58,2.85-1.18c0.01-0.59,0.04-1.07,0.06-1.38
				c0.07-1.12,3.12,0.06,6.87-0.69c1.5-0.3,1.57-0.04,1.8,1.19c0.35-0.18,0.53-0.29,0.97-0.23c0.83,0.12,2.64,5.21,4.07,8.64
				c1.43,3.42,3.87,7.32,3.97,10.07c0.13,3.43-1.14,7.82-9.02,7.92c-7.89,0.1-10.18-3.56-10.72-7.54
				C444.62,646.29,443.5,637.53,444.21,632.75z"/>
			<path class="st9" d="M469.56,424.63c-7.14-19.71-17.05,14.3-37.72,13.73c-20.67-0.57-38.52-10.91-42.35,2.32
				c-9.23,31.9-0.91,65.09,2.06,91.04c2.58,22.57,7.88,86.59,7.93,87.26c0.3,3.94,27.13,1.4,27.66-2.92
				c0.08-0.61,1.88-137.99,4.85-137.25c2.98,0.73,4.81,136.69,4.85,137.13c0.56,5.49,26.19,5.86,26.64,0.74
				C463.57,615.84,476.67,444.24,469.56,424.63z"/>
			<path class="st8" d="M439.38,476.45c-5.12,0.17-8.32,0.66-14.87,2.83c-0.46,0.15-0.26,0.88,0.2,0.73
				c4.78-1.59,9.61-2.63,14.67-2.8C439.87,477.19,439.87,476.44,439.38,476.45z"/>
			
				<ellipse transform="matrix(0.3401 -0.9404 0.9404 0.3401 -27.3745 595.1345)" class="st14" cx="410.35" cy="317.07" rx="13.52" ry="11.25"/>
			<g>
				<path class="st20" d="M430.33,317.02c12.33,7.73,38.04,47.47,37.62,73.32c-0.43,26.02,3.42,30.23,2.61,39.35
					c-0.37,4.1-17.41,15.93-38.03,18.42c-20.61,2.49-40.69-4.83-44.6-13.25c-9.64-20.78,11.78-21.47-6.53-45.05
					c-16.84-21.69-17.03-32.8-5.92-41.42C386.59,339.77,423.17,312.53,430.33,317.02z"/>
				<path class="st7" d="M413.4,439.88c0.82,0.28,1.26,1.18,0.98,2l0,0c-0.28,0.82-1.18,1.26-2,0.98l-9.68-3.31
					c-0.33-0.11-0.69,0.06-0.8,0.39l0,0c-0.11,0.33,0.06,0.69,0.39,0.8l12.06,4.13c0.82,0.28,1.26,1.18,0.98,2l0,0
					c-0.28,0.82-1.18,1.26-2,0.98l-12.06-4.13c-0.33-0.11-0.69,0.06-0.8,0.39l0,0c-0.11,0.33,0.06,0.69,0.39,0.8l9.68,3.31
					c0.82,0.28,1.26,1.18,0.98,2l0,0c-0.28,0.82-1.18,1.26-2,0.98l-10.27-3.52c-0.33-0.11-0.69,0.06-0.8,0.39l0,0
					c-0.11,0.33,0.06,0.69,0.39,0.8l6.11,2.09c0.82,0.28,1.26,1.18,0.98,2l0,0c-0.28,0.82-1.18,1.26-2,0.98l-12.27-4.2
					c0,0-11.07-3.65-17.84-8.66c-3.38-2.49,1.37-15.91,5.17-15.58C386.21,426.14,413.4,439.88,413.4,439.88z"/>
				<g>
					<g>
						<g>
							<path class="st7" d="M405.87,240.3c-6.55-1.3-7.55-11.08-12.29-15.66c-1.78-1.72-7.75-3.75-9.99-5.41
								c-3.72-2.77-4.6-5.48-1.58-4.58c2.08,0.62,9.82,1.05,15.74,4.78c7.88,4.97,15.81,10.88,14.91,12.9
								C411.07,235.87,405.87,240.3,405.87,240.3z"/>
						</g>
						<path class="st20" d="M443.62,341.91c5.62-16.29,25.79-66.12,17-73.78c-13.64-11.88-50.35-46.45-53.52-42.06
							c-3.16,4.4-13.41,8.32-3.77,16.55c9.64,8.24,30.78,35.17,30.12,38.01c-0.66,2.84-15.03,43.38-18.76,51.82
							C410.27,342.43,443.62,341.91,443.62,341.91z"/>
					</g>
					<path class="st20" d="M375.48,348.39c-16.16,6.09-61.88,51.14-50.67,63.35c12.7,13.84,52.54,32.51,52.54,32.51l6.69-17.14
						c4.01-1.07-30.4-19.03-29.71-22.05c1.55-6.88,28.05-20.33,28.97-27.67C384.23,370.05,375.48,348.39,375.48,348.39z"/>
					<g>
						<path class="st7" d="M390.22,337.86c-6.89,6.01,4.55,13.92,15.9,10.28c12.26-3.93,15.86-20.42,8.18-21.39
							C406.62,325.78,390.22,337.86,390.22,337.86z"/>
					</g>
					<g>
						<path class="st21" d="M377.5,384.95c-0.02,0-0.04,0-0.07,0c-0.27-0.04-0.47-0.29-0.43-0.56c0.05-0.38,1.29-9.29,6.1-10.72
							c0.26-0.08,0.54,0.07,0.62,0.34c0.08,0.26-0.07,0.54-0.34,0.62c-4.19,1.24-5.38,9.8-5.39,9.89
							C377.96,384.77,377.75,384.95,377.5,384.95z"/>
					</g>
					<g>
						<path class="st21" d="M348.42,407.73c-0.1,0-0.2-0.03-0.29-0.1c-0.22-0.16-0.27-0.47-0.11-0.7c1.12-1.54,3.22-2.1,4.62-2.3
							c-1.77-1.15-5.5-2.96-8.77-0.59c-0.22,0.16-0.54,0.11-0.7-0.11c-0.16-0.22-0.11-0.54,0.11-0.7c5.09-3.69,10.99,1.35,11.05,1.4
							c0.16,0.14,0.21,0.36,0.14,0.55c-0.07,0.2-0.26,0.32-0.46,0.33c-0.04,0-3.76,0.05-5.18,2.01
							C348.73,407.66,348.57,407.73,348.42,407.73z"/>
					</g>
					<g>
						<path class="st21" d="M421.73,330.25c-0.06,0-0.13-0.01-0.19-0.04c-0.26-0.1-0.38-0.39-0.28-0.65
							c0.65-1.62-2.36-5.89-4.42-8.19c-0.07-0.08-0.11-0.17-0.12-0.27c-0.05-0.4,0.09-0.9,0.52-1.09c0.61-0.27,1.67-0.06,4.94,3.6
							c0.18,0.21,0.17,0.52-0.04,0.71c-0.21,0.18-0.52,0.17-0.71-0.04c-2.23-2.5-3.22-3.14-3.6-3.3c1.17,1.35,5.36,6.46,4.36,8.96
							C422.11,330.14,421.92,330.25,421.73,330.25z"/>
					</g>
				</g>
			</g>
			<g>
				
					<ellipse transform="matrix(0.9425 -0.3342 0.3342 0.9425 -78.7163 143.074)" class="st14" cx="376.38" cy="300.27" rx="13.7" ry="13.7"/>
				
					<ellipse transform="matrix(0.9306 -0.3661 0.3661 0.9306 -80.1569 164.3288)" class="st14" cx="393.27" cy="293.54" rx="13.7" ry="13.7"/>
				
					<ellipse transform="matrix(0.4488 -0.8936 0.8936 0.4488 -84.5552 521.1038)" class="st14" cx="380.16" cy="329.1" rx="11.25" ry="13.52"/>
			</g>
			<g>
				<path class="st13" d="M402.94,310.2l7.36,19.86c-1.58,4.1-4.37,7.51-8.27,8.96c-0.8,0.3-1.61,0.5-2.44,0.61
					c-2.79,0.4-5.72-0.17-8.46-1.42l-7.7-20.78L402.94,310.2z"/>
				<path class="st7" d="M404.04,296.61l5.26,14.18c3.19,8.61,0.01,21.43-8.61,24.62c-0.8,0.3-1.61,0.5-2.44,0.61
					c-8.1,1.15-17.24-5.86-20.13-13.68l-5.26-14.18c-1.43-3.85,0.54-8.12,4.38-9.54l17.26-6.4
					C398.34,290.8,402.61,292.77,404.04,296.61z"/>
				<path class="st15" d="M387.47,316.23c0.19,0.51-0.07,1.08-0.58,1.27c-0.51,0.19-1.08-0.07-1.27-0.58
					c-0.19-0.51,0.07-1.08,0.58-1.27C386.71,315.46,387.28,315.72,387.47,316.23z"/>
				<path class="st15" d="M399.22,311.36c0.19,0.51-0.07,1.08-0.58,1.27c-0.51,0.19-1.08-0.07-1.27-0.58
					c-0.19-0.51,0.07-1.08,0.58-1.27C398.47,310.58,399.03,310.84,399.22,311.36z"/>
				<path class="st10" d="M392.88,326.21c2.83,3.58,8.6,1.45,8.41-3.12"/>
				
					<ellipse transform="matrix(0.929 -0.3701 0.3701 0.929 -82.612 163.5606)" class="st14" cx="384.88" cy="297.04" rx="17.03" ry="10.19"/>
				
					<ellipse transform="matrix(0.9946 -0.1034 0.1034 0.9946 -30.4687 39.7971)" class="st14" cx="368.46" cy="313.65" rx="9.33" ry="11.84"/>
				
					<ellipse transform="matrix(0.7932 -0.6089 0.6089 0.7932 -96.9721 310.1172)" class="st14" cx="408.14" cy="297.84" rx="9.33" ry="11.84"/>
				<g>
					<path class="st16" d="M395.4,321.33c-0.59,0-1.12-0.37-1.32-0.94l-2.6-7.13c-0.07-0.18,0.03-0.38,0.21-0.45
						c0.18-0.07,0.38,0.03,0.45,0.21l2.6,7.13c0.12,0.33,0.45,0.52,0.78,0.46l0.93-0.16c0.19-0.03,0.37,0.1,0.4,0.29
						c0.03,0.19-0.1,0.37-0.29,0.4l-0.93,0.16C395.56,321.32,395.48,321.33,395.4,321.33z"/>
				</g>
			</g>
		</g>
		<g id="cat_3_" class="st22">
			<g>
				<path class="st25" d="M514.11,624.29c-0.92-0.13-1.87-0.31-2.85-0.54l0.94-3.95c5.04,1.2,8.74,0.76,11.3-1.37
					c5.91-4.9,5.27-18.1,4.75-28.71c-0.44-9.17-0.59-14.49,1.93-16.77c3.4-3.07,4.15,1.68,2.81,3.02c-0.02,0.02-0.74,0.87-0.9,3.94
					c-0.13,2.58,0.04,6,0.21,9.62c0.56,11.51,1.25,25.84-6.22,32.03C523.08,624.05,519.06,624.97,514.11,624.29z"/>
			</g>
			<g>
				<path class="st10" d="M490.95,624.6c-10.65-12.99-4.04-15.68,0.46-11.89c-2.2-7.19,4.29-18.49,4.29-18.49l8.6,0.31l8.6-0.31
					c0,0,6.49,11.29,4.29,18.49c4.5-3.79,11.11-1.1,0.46,11.89c0,0,5.13,1.09,2.64,3.57c-2.48,0-6.55,0-10.5,0c0,0-5.35,0-10.98,0
					c-3.94,0-8.02,0-10.5,0C485.82,625.68,490.95,624.6,490.95,624.6z"/>
				<g>
					<path class="st10" d="M513.08,615.02l-3.93,13.07h0.31c1.75,0,3.2,1.28,3.5,2.95h-6.85h-0.34v-11.99"/>
					<path class="st10" d="M502.4,619.05v11.99h-0.34h-6.85c0.29-1.67,1.73-2.95,3.5-2.95h0.3l-3.93-13.07"/>
				</g>
				<g>
					<path class="st10" d="M513.08,615.02l-3.93,13.07h0.31c1.75,0,3.2,1.28,3.5,2.95h-6.85h-0.34v-11.99"/>
					<path class="st10" d="M502.4,619.05v11.99h-0.34h-6.85c0.29-1.67,1.73-2.95,3.5-2.95h0.3l-3.93-13.07"/>
				</g>
			</g>
			<path class="st10" d="M490.8,573.3l-1.21-12.54l9.86,8.12c1.59-0.37,3.25-0.58,4.98-0.58c1.92,0,3.75,0.26,5.49,0.71l-0.05-0.03
				l9.98-8.22l-1.25,13.02c2.63,2.61,4.21,5.96,4.21,9.62c0,8.34-8.23,16.49-18.38,16.49s-18.38-8.15-18.38-16.49
				C486.06,579.51,487.86,575.98,490.8,573.3z"/>
			<g>
				<g>
					<path class="st26" d="M506.94,587.39c-1.64,0-2.97-1.03-2.97-2.31v-0.92h0.93v0.92c0,0.75,0.93,1.37,2.04,1.37V587.39z"/>
				</g>
				<g>
					<path class="st26" d="M501.93,587.39v-0.93c1.1,0,2.04-0.63,2.04-1.37v-1.85h0.93v1.85
						C504.9,586.35,503.57,587.39,501.93,587.39z"/>
				</g>
			</g>
			<g>
				<g>
					<g>
						<path class="st14" d="M495.69,582.42c-0.04,0-0.08-0.01-0.12-0.02l-12.64-4.33c-0.2-0.07-0.31-0.29-0.24-0.49
							c0.07-0.2,0.29-0.31,0.49-0.24l12.64,4.33c0.2,0.07,0.31,0.29,0.24,0.49C496,582.32,495.85,582.42,495.69,582.42z"/>
					</g>
					<g>
						<path class="st14" d="M482.76,587.83c-0.17,0-0.32-0.11-0.37-0.28c-0.06-0.2,0.06-0.42,0.27-0.48l12.93-3.67
							c0.2-0.06,0.42,0.06,0.48,0.27c0.06,0.2-0.06,0.42-0.27,0.48l-12.93,3.67C482.83,587.83,482.8,587.83,482.76,587.83z"/>
					</g>
				</g>
				<g>
					<g>
						<path class="st14" d="M513.18,582.42c-0.16,0-0.31-0.1-0.36-0.26c-0.07-0.2,0.04-0.42,0.24-0.49l12.64-4.33
							c0.2-0.07,0.42,0.04,0.49,0.24c0.07,0.2-0.04,0.42-0.24,0.49l-12.64,4.33C513.26,582.41,513.22,582.42,513.18,582.42z"/>
					</g>
					<g>
						<path class="st14" d="M526.11,587.83c-0.03,0-0.07,0-0.11-0.01l-12.93-3.67c-0.2-0.06-0.32-0.27-0.27-0.48
							c0.06-0.2,0.27-0.32,0.48-0.27l12.93,3.67c0.2,0.06,0.32,0.27,0.27,0.48C526.43,587.72,526.28,587.83,526.11,587.83z"/>
					</g>
				</g>
			</g>
			<g>
				<path class="st9" d="M497.02,578.64c0.04-0.91,0.75-1.63,1.63-1.63c0.88,0,1.59,0.72,1.63,1.63H497.02z"/>
				<path class="st9" d="M509.51,578.64c0.03-0.91,0.75-1.63,1.63-1.63c0.88,0,1.59,0.72,1.63,1.63H509.51z"/>
			</g>
			<path class="st20" d="M506.53,581.74c-0.04-0.47-0.44-0.85-0.95-0.88c-0.53-0.04-0.99,0.31-1.14,0.79
				c-0.16-0.48-0.61-0.83-1.14-0.79c-0.51,0.03-0.91,0.41-0.95,0.88c-0.05,0.62,0.36,1.33,0.92,1.93c0.63,0.67,1.71,0.67,2.34,0
				C506.17,583.07,506.58,582.36,506.53,581.74z"/>
		</g>
	</g>
</g>
<g id="Characters" class="st0">
</g>
<g id="Laag_3" class="st0">
	<g class="st2">
		<defs>
			<rect id="SVGID_5_" x="371.67" y="42.23" width="301.14" height="620.96"/>
		</defs>
		<clipPath id="SVGID_6_">
			<use xlink:href="#SVGID_5_"  style="overflow:visible;"/>
		</clipPath>
		<g id="birdhouse_4_" class="st45">
			<g>
				<g>
					
						<rect x="418.44" y="450.19" transform="matrix(0.0872 -0.9962 0.9962 0.0872 114.4311 1026.6753)" class="st5" width="398.07" height="1.4"/>
				</g>
				<g>
					<polygon class="st5" points="671.98,264.35 371.26,43.66 70.53,264.35 69.7,263.22 371.26,41.92 371.67,42.23 672.81,263.22 
											"/>
				</g>
				<g>
					<rect x="120.85" y="649.14" class="st5" width="500.81" height="1.4"/>
				</g>
				<g>
					
						<rect x="124.34" y="251.86" transform="matrix(0.9962 -0.0872 0.0872 0.9962 -38.8424 12.6211)" class="st5" width="1.4" height="398.07"/>
				</g>
			</g>
			<g>
				<path class="st5" d="M371.26,206.07c-22.84,0-41.42-18.58-41.42-41.42s18.58-41.42,41.42-41.42c22.84,0,41.42,18.58,41.42,41.42
					S394.1,206.07,371.26,206.07z M371.26,124.62c-22.07,0-40.03,17.96-40.03,40.03s17.96,40.03,40.03,40.03
					c22.07,0,40.03-17.96,40.03-40.03S393.33,124.62,371.26,124.62z"/>
			</g>
			<g>
				<path class="st5" d="M371.06,206.35c-22.84,0-41.42-18.58-41.42-41.42s18.58-41.42,41.42-41.42c22.84,0,41.42,18.58,41.42,41.42
					S393.9,206.35,371.06,206.35z M371.06,124.9c-22.07,0-40.03,17.96-40.03,40.03s17.96,40.03,40.03,40.03
					c22.07,0,40.03-17.96,40.03-40.03S393.13,124.9,371.06,124.9z"/>
			</g>
		</g>
		<g id="man_4_" class="st45">
			<g>
				<path class="st7" d="M278.91,590.42c1.68,7.7,0.64,19.25,3.05,21.96s18.72,10.95,28.27,12.38c8.43,1.27,10.1-6.01,4.39-8.42
					c-5.71-2.41-16.91-11.61-17.35-20.54C296.81,586.89,278.91,590.42,278.91,590.42z"/>
				<path class="st7" d="M215.35,595.88c-1.13,10.52-3.5,18.84-5.07,20.88c-1.57,2.04-11.2,1.27-15.84,6.34
					c-1.81,1.98-21.06,5.48-23.06,0.95c-2-4.53,0.78-2.59,6.54-8.13c5.76-5.54,17.38-7.2,18.15-16.45
					C196.89,589.58,215.35,595.88,215.35,595.88z"/>
				<path class="st7" d="M297.35,485.8c3.02,12.92,1.19,24.77,1.19,31.23c0,6.46,2.34,83.57-2.61,88.52
					c-4.95,4.95-8.2,10.14-14.66-3.22c-6.46-13.35-14.71-41.69-16.47-76.37c-0.75-14.76-5.05-24.79-5.05-24.79L297.35,485.8z"/>
				<path class="st7" d="M230.85,505.56c4.97,21.97-14.86,86.53-17.16,96.63c-2.3,10.11-9.84,8.97-14.83,8.08
					c-4.99-0.89-6.79-35.63-7.11-58.92c-0.32-23.28,2.38-53.16,2.38-53.16L230.85,505.56z"/>
				<path class="st8" d="M299.09,593.9c-0.18,3.21,0.92,5.31-3.16,5.7c-4.08,0.4-16.16,2.2-17.02-0.15
					c-0.86-2.35-0.81-4.53-0.81-4.53L299.09,593.9z"/>
				<path class="st8" d="M216.67,594.33c-0.66,4.56,0.66,4.34-2.87,5.02c-3.53,0.68-20.85,2.64-21.78-0.21c-0.93-2.85,0-4.82,0-4.82
					H216.67z"/>
				<path class="st9" d="M296.43,398.31c2.78,0,7.34,56.34,10.13,107.73c2.5,45.93-1.27,86.24-6.78,89.77
					c-3.83,2.45-21.6,4.29-24.25,0c-7.87-12.75-11.01-49.88-16.8-83.76c-5.34-31.22-9.34-57.44-10.62-53.23
					c-0.25,0.82-3.54,28.09-8.14,58.85c-6.09,40.7-16.82,78.79-23.47,79.6c-8.23,1.01-24.61,2.34-26.95-3.37
					c-1.93-4.72-0.81-41.74,2.18-82.74c2.46-33.76,7.69-68.51,12.03-91.02c4.34-22.47,11.65-28.47,11.65-28.47L296.43,398.31z"/>
				<g>
					<path class="st10" d="M298.53,601.1c-1.88-1.29-6.66-0.63-7.66,2.95c-1,3.58-1.74,5.21-3.94,2.43
						c-2.21-2.78-7.69-5.67-8.39-3.46c-0.7,2.21,1.21,12.11,2.51,14.12c1.31,2.01,27.35,12.79,35.37,10.27
						c9.2-2.89,9.08-7.3-0.42-12.68c-9.49-5.38-13.25-7.74-14.54-9.42C300.17,603.63,298.53,601.1,298.53,601.1z"/>
					<path class="st11" d="M281.44,613.09c2.2,2.63,5.82,4.99,11.57,5.79c5.75,0.8,12.38,5.33,17.99,4.26
						c5.61-1.07,3.93-2.62,8.34-3.16c3.87-0.47,3.58,0.76,3.58,0.76c1.15,2.69,0.97,5.33-4.51,7.05c-3.24,1.01-9.34,0.45-15.91-1.48
						c-9.7-2.86-21.56-7.11-22.34-8.3c-0.46-0.7-1.26-4.56-0.87-6.54C279.42,611.61,281.3,612.93,281.44,613.09z"/>
				</g>
				<g>
					<path class="st10" d="M193.89,601.91c1.84-1.36,6.63-0.85,7.75,2.69c1.12,3.54,1.91,5.15,4.02,2.3
						c2.11-2.85,7.5-5.93,8.27-3.74c0.77,2.18-0.79,12.15-2.03,14.19c-1.24,2.05-26.9,13.71-35,11.46
						c-9.3-2.57-9.32-6.99-0.01-12.69c9.31-5.7,12.98-8.18,14.21-9.91C192.33,604.5,193.89,601.91,193.89,601.91z"/>
					<path class="st11" d="M211.37,613.31c-2.11,2.71-5.65,5.18-11.37,6.18c-5.72,1-12.19,5.75-17.84,4.87
						c-5.65-0.88-4.02-2.49-8.44-2.87c-3.89-0.34-3.55,0.88-3.55,0.88c-1.06,2.72-0.79,5.36,4.75,6.89
						c3.27,0.9,9.35,0.13,15.85-2.02c9.6-3.19,21.3-7.83,22.04-9.06c0.43-0.71,1.1-4.6,0.64-6.56
						C213.34,611.77,211.51,613.14,211.37,613.31z"/>
				</g>
			</g>
			<g>
				<g>
					<path class="st7" d="M286.42,217.89c6.36-0.2,8.82-9.24,14-12.8c1.94-1.34,7.87-2.31,10.23-3.53c3.93-2.02,5.18-4.43,2.2-4.06
						c-2.05,0.26-9.39-0.54-15.54,2.04c-8.18,3.44-16.56,7.75-16.02,9.8C282.22,212.92,286.42,217.89,286.42,217.89z"/>
				</g>
				<path class="st12" d="M246.72,313.3c-3.53-14.64-20.07-60.13-11.73-67.47c12.93-11.4,47.71-44.55,50.75-40.38
					c3.04,4.17,12.82,7.85,3.69,15.75c-9.14,7.9-29.12,33.68-28.48,36.39c0.65,2.7,14.57,41.24,18.18,49.26
					C283.38,316.33,246.72,313.3,246.72,313.3z"/>
			</g>
			<g>
				<path class="st7" d="M267.56,412.7c-0.83,0.17-1.37,0.99-1.2,1.82l0,0c0.17,0.83,0.99,1.37,1.82,1.2l9.81-2.03
					c0.33-0.07,0.66,0.14,0.73,0.48l0,0c0.07,0.33-0.14,0.66-0.48,0.73l-12.22,2.53c-0.83,0.17-1.37,0.99-1.2,1.82l0,0
					c0.17,0.83,0.99,1.37,1.82,1.2l12.22-2.53c0.33-0.07,0.66,0.14,0.73,0.48l0,0c0.07,0.33-0.14,0.66-0.48,0.73l-9.81,2.03
					c-0.83,0.17-1.37,0.99-1.2,1.82l0,0c0.17,0.83,0.99,1.37,1.82,1.2l10.41-2.16c0.33-0.07,0.66,0.14,0.73,0.48l0,0
					c0.07,0.33-0.14,0.66-0.48,0.73l-6.19,1.28c-0.83,0.17-1.37,0.99-1.2,1.82v0c0.17,0.83,0.99,1.37,1.82,1.2l12.43-2.58
					c0,0,11.2-2.19,18.39-6.22c3.58-2.01,0.61-15.62-3.11-15.76C295.65,402.69,267.56,412.7,267.56,412.7z"/>
				<path class="st12" d="M315.58,328.49c14.95,7.9,53.83,57.24,41.45,67.73c-14.03,11.88-55,25.13-55,25.13l-4.4-17.47
					c-3.76-1.53,31.85-14.76,31.56-17.77c-0.67-6.87-24.75-23.17-24.75-30.41C304.44,348.46,315.58,328.49,315.58,328.49z"/>
			</g>
			<g>
				<path class="st7" d="M300.39,316.98c5.96,6.68-3.95,12.44-14.53,7.52c-11.43-5.32-12.9-21.77-5.32-21.77
					C288.11,302.73,300.39,316.98,300.39,316.98z"/>
				<g>
					<g>
						<path class="st13" d="M280.67,307.38c0.16,4.94,4.94,13.24,13.98,13.89c2.19,0.16,4.19-0.37,6.08-1.37l1.88-4.24l4.57-6.13
							l3.13-5.87l-17.83-11.05l-4.09,5.15l-4.32,5.44L280.67,307.38z"/>
						<path class="st7" d="M322.39,297.83c-8.79,8.42-14.7,19.58-23.79,18.92c-9.09-0.65-13.88-9.06-13.98-13.99
							c-0.1-4.93,7.36-19.13,8.49-22.8c1.27-4.15,14.03-12.64,23.8-5.15C326.68,282.31,326.78,293.63,322.39,297.83z"/>
						<g>
							<path class="st14" d="M326.09,280.98c0.34,5.71-10.61,3.13-17.58-0.4c-4.18-2.12-7.26-5.97-8.73-5.15
								c-4.33,2.4-6.51,9.4-7.47,7.35c-0.96-2.05,4.77-14.53,15.2-14.39C317.94,268.53,325.76,275.57,326.09,280.98z"/>
							<path class="st14" d="M321.65,282.8c0.72,3.33,1.01,6.43-1.5,12.47c-2.5,6.04,0.3,5.38,1.54,4.47
								c1.23-0.91,9.22-9.33,7.07-15.53C326.62,278.02,321.65,282.8,321.65,282.8z"/>
						</g>
						<path class="st7" d="M318.93,299.82c2.33,0.18,4.86,0.15,3.23,2.98c-1.63,2.83-6.57,8.7-9.18,7.16
							c-2.62-1.54-2.13-3.36-2.13-3.36L318.93,299.82z"/>
						<path class="st7" d="M292.82,285.18c-0.21-1.57-0.31-5.55-2.1-4.52c-3.7,2.13-6.02,11.37-4.83,12.71
							c1.19,1.34,2.7,1.25,2.7,1.25L292.82,285.18z"/>
					</g>
				</g>
				<path class="st15" d="M309,296.95c-0.27,0.41-0.16,0.97,0.26,1.24c0.41,0.27,0.97,0.16,1.24-0.26c0.27-0.41,0.16-0.97-0.26-1.24
					C309.83,296.42,309.28,296.54,309,296.95z"/>
				<path class="st15" d="M298.64,290.16c-0.27,0.41-0.16,0.97,0.26,1.24c0.41,0.27,0.97,0.16,1.24-0.26
					c0.27-0.41,0.16-0.97-0.26-1.24S298.92,289.74,298.64,290.16z"/>
				<g>
					<path class="st16" d="M301.01,301.29c-0.06,0-0.13-0.02-0.18-0.05l-1.81-1.19c-0.15-0.1-0.19-0.3-0.1-0.46
						c0.1-0.15,0.3-0.19,0.46-0.09l1.5,0.99l3.24-6.36c0.08-0.16,0.28-0.23,0.44-0.14c0.16,0.08,0.23,0.28,0.14,0.44l-3.41,6.69
						c-0.04,0.08-0.12,0.14-0.21,0.17C301.07,301.29,301.04,301.29,301.01,301.29z"/>
				</g>
				<g>
					<path class="st17" d="M314.55,296.5c-0.09,0-0.19-0.04-0.25-0.12c-1.34-1.65-3.46-2.74-5.81-3.01
						c-0.18-0.02-0.31-0.18-0.29-0.36c0.02-0.18,0.19-0.31,0.36-0.29c2.52,0.29,4.8,1.47,6.25,3.24c0.11,0.14,0.09,0.34-0.05,0.46
						C314.7,296.48,314.63,296.5,314.55,296.5z"/>
				</g>
				<g>
					<path class="st17" d="M303.65,289.35c-0.09,0-0.19-0.04-0.25-0.12c-1.34-1.65-3.46-2.74-5.81-3.01
						c-0.18-0.02-0.31-0.18-0.29-0.36c0.02-0.18,0.19-0.31,0.36-0.29c2.52,0.29,4.8,1.47,6.25,3.24c0.11,0.14,0.09,0.34-0.05,0.46
						C303.79,289.33,303.72,289.35,303.65,289.35z"/>
				</g>
				<path class="st18" d="M294.56,300.33c-1.56,5.72,3.61,9.1,8.23,5.39"/>
				<g>
					<path class="st14" d="M303.99,309.8c0.32-1.62-1.14-6.67-4.19-7c-3.05-0.33-2.47,2.84-0.66,4.52
						C300.95,308.99,303.99,309.8,303.99,309.8z"/>
					<path class="st14" d="M290.35,300.86c1.36-0.94,6.57-1.62,8.09,1.05c1.52,2.67-1.62,3.4-3.88,2.4
						C292.31,303.32,290.35,300.86,290.35,300.86z"/>
				</g>
			</g>
			<g>
				<g>
					<path class="st19" d="M309.21,363.76c-0.27,0-0.49-0.22-0.49-0.49c0-0.09-0.11-8.54-4.03-10.27c-0.25-0.11-0.36-0.4-0.25-0.64
						c0.11-0.25,0.4-0.36,0.64-0.25c4.5,1.98,4.61,10.78,4.61,11.15C309.7,363.53,309.49,363.75,309.21,363.76
						C309.22,363.76,309.21,363.76,309.21,363.76z"/>
				</g>
				<g>
					<path class="st19" d="M334.66,389.44c-0.17,0-0.34-0.09-0.43-0.25c-1.15-2.09-4.75-2.58-4.78-2.59
						c-0.2-0.03-0.37-0.17-0.41-0.37c-0.05-0.2,0.03-0.4,0.2-0.52c0.06-0.04,6.41-4.22,10.91-0.01c0.2,0.18,0.21,0.49,0.02,0.69
						c-0.18,0.2-0.49,0.21-0.69,0.02c-2.88-2.7-6.72-1.4-8.59-0.5c1.33,0.37,3.3,1.17,4.2,2.8c0.13,0.24,0.04,0.53-0.19,0.66
						C334.82,389.42,334.74,389.44,334.66,389.44z"/>
				</g>
				<g>
					<path class="st19" d="M275.49,305.34c-0.07,0-0.13-0.02-0.19-0.06c-2.15-1.57-0.67-7.48-0.4-8.5c-0.04-0.05-0.08-0.08-0.1-0.08
						c-0.01,0-0.71,0.08-1.54,4.88c-0.03,0.18-0.2,0.3-0.38,0.27c-0.18-0.03-0.3-0.2-0.27-0.38c0.8-4.66,1.54-5.34,2.09-5.42
						c0.43-0.06,0.72,0.31,0.83,0.54c0.03,0.07,0.04,0.15,0.02,0.23c-0.51,1.81-1.49,6.76,0.12,7.93c0.15,0.11,0.18,0.31,0.07,0.46
						C275.69,305.29,275.59,305.34,275.49,305.34z"/>
				</g>
			</g>
		</g>
	</g>
	<g class="st2">
		<defs>
			<rect id="SVGID_7_" x="32.36" y="41.68" width="301.14" height="621.5"/>
		</defs>
		<clipPath id="SVGID_8_">
			<use xlink:href="#SVGID_7_"  style="overflow:visible;"/>
		</clipPath>
		<g id="birdhouse_1_" class="st46">
			<g>
				<g>
					
						<rect x="381.38" y="449.65" transform="matrix(0.0872 -0.9962 0.9962 0.0872 81.1507 989.2596)" class="st23" width="398.07" height="1.4"/>
				</g>
				<g>
					<polygon class="st23" points="634.92,263.8 334.2,43.11 33.47,263.8 32.64,262.68 334.2,41.38 334.61,41.68 635.75,262.68 
											"/>
				</g>
				<g>
					<rect x="83.79" y="648.6" class="st23" width="500.81" height="1.4"/>
				</g>
				<g>
					
						<rect x="87.28" y="251.31" transform="matrix(0.9962 -0.0872 0.0872 0.9962 -38.9359 9.3875)" class="st23" width="1.4" height="398.07"/>
				</g>
			</g>
			<g>
				<path class="st23" d="M334.2,205.52c-22.84,0-41.42-18.58-41.42-41.42s18.58-41.42,41.42-41.42c22.84,0,41.42,18.58,41.42,41.42
					S357.04,205.52,334.2,205.52z M334.2,124.07c-22.07,0-40.03,17.96-40.03,40.03s17.96,40.03,40.03,40.03
					c22.07,0,40.03-17.96,40.03-40.03S356.27,124.07,334.2,124.07z"/>
			</g>
			<g>
				<path class="st23" d="M334,205.8c-22.84,0-41.42-18.58-41.42-41.42s18.58-41.42,41.42-41.42c22.84,0,41.42,18.58,41.42,41.42
					S356.84,205.8,334,205.8z M334,124.35c-22.07,0-40.03,17.96-40.03,40.03s17.96,40.03,40.03,40.03
					c22.07,0,40.03-17.96,40.03-40.03S356.07,124.35,334,124.35z"/>
			</g>
		</g>
		<g id="woman_1_" class="st46">
			<g>
				<path class="st7" d="M451.47,309.87l-18.57,28.85l-6.53-30.16c2.51-3.14,1.28-7.85,0.61-11.42l21-0.73
					C448.91,300.57,449.21,308.94,451.47,309.87z"/>
			</g>
			<path class="st7" d="M477.11,574.73c-0.07,9.11-2.19,26.38-2.68,33.9c-0.53,8.1-1.78,14.05-4.76,15.23
				c-3.5,1.39-5.2,4.58-7.03-3.28c-0.41-1.78-0.81-5.02-1.19-8.75c-0.62-6.19-4.23-33.74-4.65-38.01
				C455.25,557.77,477.11,574.73,477.11,574.73z"/>
			<path class="st7" d="M442.19,575.26c0.41,10.64-1.11,28.62-0.63,35.83c0.49,7.43-0.12,9.23-4.36,11.15
				c-1.59,0.72-6.08-0.17-7.57-2.22c-4.86-6.68-6.12-25.68-8.51-41.37C418.37,560.58,442.19,575.26,442.19,575.26z"/>
			<g>
				<path class="st10" d="M413.01,619.99c1.21-0.65,2.4-1.27,3.43-2.04c2.39-1.79,4.72-4.78,6.45-8.24c1.3-2.6,1.86-3.16,3.92-2.42
					c2.07,0.74,5.44,0.24,5.35,1.52c-0.02,0.33-0.27,0.83-0.71,1.43c2.76,0.67,7.9,1.09,10.09,0.09c1.49-0.68,2.98,7.51,3.05,11.58
					c0.09,5.23-2.16,6.09-5.7,6.54c0,0-33.84,5.56-35.47,1.76C400.67,623.78,407.18,623.11,413.01,619.99z"/>
			</g>
			<path class="st10" d="M461.21,615.2c0.33-2.26,0.75-1.58,2.85-1.18c0.01-0.59,0.04-1.07,0.06-1.38c0.07-1.12,3.12,0.06,6.87-0.69
				c1.5-0.3,1.57-0.04,1.8,1.19c0.35-0.18,0.53-0.29,0.97-0.23c0.83,0.12,2.64,5.21,4.07,8.64c1.43,3.42,3.87,7.32,3.97,10.07
				c0.13,3.43-1.14,7.82-9.02,7.92c-7.89,0.1-10.18-3.56-10.72-7.54C461.62,628.74,460.5,619.97,461.21,615.2z"/>
			<path class="st9" d="M486.57,407.08c-7.14-19.71-17.05,14.3-37.72,13.73c-20.67-0.57-38.52-10.91-42.35,2.32
				c-9.23,31.9-0.91,65.09,2.06,91.04c2.58,22.57,7.88,86.59,7.93,87.26c0.3,3.94,27.13,1.4,27.66-2.92
				c0.08-0.61,1.88-137.99,4.85-137.25c2.98,0.73,4.81,136.69,4.85,137.13c0.56,5.49,26.19,5.86,26.64,0.74
				C480.57,598.29,493.68,426.69,486.57,407.08z"/>
			<path class="st8" d="M456.39,458.9c-5.12,0.17-8.32,0.66-14.87,2.83c-0.46,0.15-0.26,0.88,0.2,0.73
				c4.78-1.59,9.61-2.63,14.67-2.8C456.87,459.64,456.88,458.89,456.39,458.9z"/>
			
				<ellipse transform="matrix(0.3401 -0.9404 0.9404 0.3401 0.3533 599.5447)" class="st14" cx="427.35" cy="299.52" rx="13.52" ry="11.25"/>
			<g>
				<path class="st20" d="M447.34,299.47c12.33,7.73,38.04,47.47,37.62,73.32c-0.43,26.02,3.42,30.23,2.61,39.35
					c-0.37,4.1-17.41,15.93-38.03,18.42c-20.61,2.49-40.69-4.83-44.6-13.25c-9.64-20.78,11.78-21.47-6.53-45.05
					c-16.84-21.69-17.03-32.8-5.92-41.42C403.6,322.22,440.17,294.98,447.34,299.47z"/>
				<path class="st7" d="M430.41,422.33c0.82,0.28,1.26,1.18,0.98,2l0,0c-0.28,0.82-1.18,1.26-2,0.98l-9.68-3.31
					c-0.33-0.11-0.69,0.06-0.8,0.39l0,0c-0.11,0.33,0.06,0.69,0.39,0.8l12.06,4.13c0.82,0.28,1.26,1.18,0.98,2l0,0
					c-0.28,0.82-1.18,1.26-2,0.98l-12.06-4.13c-0.33-0.11-0.69,0.06-0.8,0.39l0,0c-0.11,0.33,0.06,0.69,0.39,0.8l9.68,3.31
					c0.82,0.28,1.26,1.18,0.98,2l0,0c-0.28,0.82-1.18,1.26-2,0.98l-10.27-3.52c-0.33-0.11-0.69,0.06-0.8,0.39l0,0
					c-0.11,0.33,0.06,0.69,0.39,0.8l6.11,2.09c0.82,0.28,1.26,1.18,0.98,2l0,0c-0.28,0.82-1.18,1.26-2,0.98l-12.27-4.2
					c0,0-11.07-3.65-17.84-8.66c-3.38-2.49,1.37-15.91,5.17-15.58C403.22,408.59,430.41,422.33,430.41,422.33z"/>
				<g>
					<g>
						<g>
							<path class="st7" d="M422.87,222.75c-6.55-1.3-7.55-11.08-12.29-15.66c-1.78-1.72-7.75-3.75-9.99-5.41
								c-3.72-2.77-4.6-5.48-1.58-4.58c2.08,0.62,9.82,1.05,15.74,4.78c7.88,4.97,15.81,10.88,14.91,12.9
								C428.07,218.32,422.87,222.75,422.87,222.75z"/>
						</g>
						<path class="st20" d="M460.62,324.35c5.62-16.29,25.79-66.12,17-73.78c-13.64-11.88-50.35-46.45-53.52-42.06
							c-3.16,4.4-13.41,8.32-3.77,16.55c9.64,8.24,30.78,35.17,30.12,38.01c-0.66,2.84-15.03,43.38-18.76,51.82
							C427.28,324.88,460.62,324.35,460.62,324.35z"/>
					</g>
					<path class="st20" d="M392.49,330.84c-16.16,6.09-61.88,51.14-50.67,63.35c12.7,13.84,52.54,32.51,52.54,32.51l6.69-17.14
						c4.01-1.07-30.4-19.03-29.71-22.05c1.55-6.88,28.05-20.33,28.97-27.67C401.23,352.5,392.49,330.84,392.49,330.84z"/>
					<g>
						<path class="st7" d="M407.23,320.31c-6.89,6.01,4.55,13.92,15.9,10.28c12.26-3.93,15.86-20.42,8.18-21.39
							C423.63,308.23,407.23,320.31,407.23,320.31z"/>
					</g>
					<g>
						<path class="st21" d="M394.5,367.4c-0.02,0-0.04,0-0.07,0c-0.27-0.04-0.47-0.29-0.43-0.56c0.05-0.38,1.29-9.29,6.1-10.72
							c0.26-0.08,0.54,0.07,0.62,0.34c0.08,0.26-0.07,0.54-0.34,0.62c-4.19,1.24-5.38,9.8-5.39,9.89
							C394.97,367.22,394.75,367.4,394.5,367.4z"/>
					</g>
					<g>
						<path class="st21" d="M365.43,390.18c-0.1,0-0.2-0.03-0.29-0.1c-0.22-0.16-0.27-0.47-0.11-0.7c1.12-1.54,3.22-2.1,4.62-2.3
							c-1.77-1.15-5.5-2.96-8.77-0.59c-0.22,0.16-0.54,0.11-0.7-0.11c-0.16-0.22-0.11-0.54,0.11-0.7c5.09-3.69,10.99,1.35,11.05,1.4
							c0.16,0.14,0.21,0.36,0.14,0.55c-0.07,0.2-0.26,0.32-0.46,0.33c-0.04,0-3.76,0.05-5.18,2.01
							C365.73,390.11,365.58,390.18,365.43,390.18z"/>
					</g>
					<g>
						<path class="st21" d="M438.73,312.7c-0.06,0-0.13-0.01-0.19-0.04c-0.26-0.1-0.38-0.39-0.28-0.65
							c0.65-1.62-2.36-5.89-4.42-8.19c-0.07-0.08-0.11-0.17-0.12-0.27c-0.05-0.4,0.09-0.9,0.52-1.09c0.61-0.27,1.67-0.06,4.94,3.6
							c0.18,0.21,0.17,0.52-0.04,0.71c-0.21,0.18-0.52,0.17-0.71-0.04c-2.23-2.5-3.22-3.14-3.6-3.3c1.17,1.35,5.36,6.46,4.36,8.96
							C439.12,312.59,438.93,312.7,438.73,312.7z"/>
					</g>
				</g>
			</g>
			<g>
				
					<ellipse transform="matrix(0.9425 -0.3342 0.3342 0.9425 -71.8718 147.7488)" class="st14" cx="393.39" cy="282.72" rx="13.7" ry="13.7"/>
				
					<ellipse transform="matrix(0.9306 -0.3661 0.3661 0.9306 -72.552 169.3358)" class="st14" cx="410.27" cy="275.99" rx="13.7" ry="13.7"/>
				
					<ellipse transform="matrix(0.4488 -0.8936 0.8936 0.4488 -59.4983 526.6273)" class="st14" cx="397.17" cy="311.55" rx="11.25" ry="13.52"/>
			</g>
			<g>
				<path class="st13" d="M419.94,292.65l7.36,19.86c-1.58,4.1-4.37,7.51-8.27,8.96c-0.8,0.3-1.61,0.5-2.44,0.61
					c-2.79,0.4-5.72-0.17-8.46-1.42l-7.7-20.78L419.94,292.65z"/>
				<path class="st7" d="M421.05,279.06l5.26,14.18c3.19,8.61,0.01,21.43-8.61,24.62c-0.8,0.3-1.61,0.5-2.44,0.61
					c-8.1,1.15-17.24-5.86-20.13-13.68l-5.26-14.18c-1.43-3.85,0.54-8.12,4.38-9.54l17.26-6.4
					C415.35,273.25,419.62,275.21,421.05,279.06z"/>
				<path class="st15" d="M404.47,298.68c0.19,0.51-0.07,1.08-0.58,1.27c-0.51,0.19-1.08-0.07-1.27-0.58
					c-0.19-0.51,0.07-1.08,0.58-1.27C403.71,297.91,404.28,298.17,404.47,298.68z"/>
				<path class="st15" d="M416.23,293.81c0.19,0.51-0.07,1.08-0.58,1.27c-0.51,0.19-1.08-0.07-1.27-0.58
					c-0.19-0.51,0.07-1.08,0.58-1.27C415.47,293.03,416.04,293.29,416.23,293.81z"/>
				<path class="st10" d="M409.88,308.66c2.83,3.58,8.6,1.45,8.41-3.12"/>
				
					<ellipse transform="matrix(0.929 -0.3701 0.3701 0.929 -74.9076 168.6088)" class="st14" cx="401.88" cy="279.49" rx="17.03" ry="10.19"/>
				
					<ellipse transform="matrix(0.9946 -0.1034 0.1034 0.9946 -28.562 41.4621)" class="st14" cx="385.47" cy="296.1" rx="9.33" ry="11.84"/>
				
					<ellipse transform="matrix(0.7932 -0.6089 0.6089 0.7932 -82.7682 316.8437)" class="st14" cx="425.15" cy="280.29" rx="9.33" ry="11.84"/>
				<g>
					<path class="st16" d="M412.4,303.78c-0.59,0-1.12-0.37-1.32-0.94l-2.6-7.13c-0.07-0.18,0.03-0.38,0.21-0.45
						c0.18-0.07,0.38,0.03,0.45,0.21l2.6,7.13c0.12,0.33,0.45,0.52,0.78,0.46l0.93-0.16c0.19-0.03,0.37,0.1,0.4,0.29
						c0.03,0.19-0.1,0.37-0.29,0.4l-0.93,0.16C412.56,303.77,412.48,303.78,412.4,303.78z"/>
				</g>
			</g>
		</g>
		<g id="cat_1_" class="st46">
			<g>
				<path class="st25" d="M531.11,606.74c-0.92-0.13-1.87-0.31-2.85-0.54l0.94-3.95c5.04,1.2,8.74,0.76,11.3-1.37
					c5.91-4.9,5.27-18.1,4.75-28.71c-0.44-9.17-0.59-14.49,1.93-16.77c3.4-3.07,4.15,1.68,2.81,3.02c-0.02,0.02-0.74,0.87-0.9,3.94
					c-0.13,2.58,0.04,6,0.21,9.62c0.56,11.51,1.25,25.84-6.22,32.03C540.09,606.5,536.07,607.42,531.11,606.74z"/>
			</g>
			<g>
				<path class="st10" d="M507.96,607.05c-10.65-12.99-4.04-15.68,0.46-11.89c-2.2-7.19,4.29-18.49,4.29-18.49l8.6,0.31l8.6-0.31
					c0,0,6.49,11.29,4.29,18.49c4.5-3.79,11.11-1.1,0.46,11.89c0,0,5.13,1.09,2.64,3.57c-2.48,0-6.55,0-10.5,0c0,0-5.35,0-10.98,0
					c-3.94,0-8.02,0-10.5,0C502.83,608.13,507.96,607.05,507.96,607.05z"/>
				<g>
					<path class="st10" d="M530.09,597.46l-3.93,13.07h0.31c1.75,0,3.2,1.28,3.5,2.95h-6.85h-0.34V601.5"/>
					<path class="st10" d="M519.41,601.5v11.99h-0.34h-6.85c0.29-1.67,1.73-2.95,3.5-2.95h0.3l-3.93-13.07"/>
				</g>
				<g>
					<path class="st10" d="M530.09,597.46l-3.93,13.07h0.31c1.75,0,3.2,1.28,3.5,2.95h-6.85h-0.34V601.5"/>
					<path class="st10" d="M519.41,601.5v11.99h-0.34h-6.85c0.29-1.67,1.73-2.95,3.5-2.95h0.3l-3.93-13.07"/>
				</g>
			</g>
			<path class="st10" d="M507.81,555.75l-1.21-12.54l9.86,8.12c1.59-0.37,3.25-0.58,4.98-0.58c1.92,0,3.75,0.26,5.49,0.71
				l-0.05-0.03l9.98-8.22l-1.25,13.02c2.63,2.61,4.21,5.96,4.21,9.62c0,8.34-8.23,16.49-18.38,16.49s-18.38-8.15-18.38-16.49
				C503.07,561.96,504.87,558.43,507.81,555.75z"/>
			<g>
				<g>
					<path class="st26" d="M523.94,569.83c-1.64,0-2.97-1.03-2.97-2.31v-0.92h0.93v0.92c0,0.75,0.93,1.37,2.04,1.37V569.83z"/>
				</g>
				<g>
					<path class="st26" d="M518.94,569.83v-0.93c1.1,0,2.04-0.63,2.04-1.37v-1.85h0.93v1.85
						C521.91,568.8,520.58,569.83,518.94,569.83z"/>
				</g>
			</g>
			<g>
				<g>
					<g>
						<path class="st14" d="M512.7,564.87c-0.04,0-0.08-0.01-0.12-0.02l-12.64-4.33c-0.2-0.07-0.31-0.29-0.24-0.49
							c0.07-0.2,0.29-0.31,0.49-0.24l12.64,4.33c0.2,0.07,0.31,0.29,0.24,0.49C513.01,564.77,512.86,564.87,512.7,564.87z"/>
					</g>
					<g>
						<path class="st14" d="M499.77,570.28c-0.17,0-0.32-0.11-0.37-0.28c-0.06-0.2,0.06-0.42,0.27-0.48l12.93-3.67
							c0.2-0.06,0.42,0.06,0.48,0.27c0.06,0.2-0.06,0.42-0.27,0.48l-12.93,3.67C499.84,570.28,499.8,570.28,499.77,570.28z"/>
					</g>
				</g>
				<g>
					<g>
						<path class="st14" d="M530.19,564.87c-0.16,0-0.31-0.1-0.36-0.26c-0.07-0.2,0.04-0.42,0.24-0.49l12.64-4.33
							c0.2-0.07,0.42,0.04,0.49,0.24c0.07,0.2-0.04,0.42-0.24,0.49l-12.64,4.33C530.27,564.86,530.23,564.87,530.19,564.87z"/>
					</g>
					<g>
						<path class="st14" d="M543.11,570.28c-0.03,0-0.07,0-0.11-0.01l-12.93-3.67c-0.2-0.06-0.32-0.27-0.27-0.48
							c0.06-0.2,0.27-0.32,0.48-0.27l12.93,3.67c0.2,0.06,0.32,0.27,0.27,0.48C543.44,570.17,543.28,570.28,543.11,570.28z"/>
					</g>
				</g>
			</g>
			<g>
				<path class="st9" d="M514.03,561.08c0.04-0.91,0.75-1.63,1.63-1.63c0.88,0,1.59,0.72,1.63,1.63H514.03z"/>
				<path class="st9" d="M526.52,561.09c0.03-0.91,0.75-1.63,1.63-1.63c0.88,0,1.59,0.72,1.63,1.63H526.52z"/>
			</g>
			<path class="st20" d="M523.53,564.19c-0.04-0.47-0.44-0.85-0.95-0.88c-0.53-0.04-0.99,0.31-1.14,0.79
				c-0.16-0.48-0.61-0.83-1.14-0.79c-0.51,0.03-0.91,0.41-0.95,0.88c-0.05,0.62,0.36,1.33,0.92,1.93c0.63,0.67,1.71,0.67,2.34,0
				C523.17,565.52,523.58,564.81,523.53,564.19z"/>
		</g>
	</g>
</g>
<g id="Laag_4">
	<line class="st47" x1="372.61" y1="21.42" x2="695.4" y2="258.3"/>
	<line class="st47" x1="654.78" y1="245.64" x2="617.52" y2="671.28"/>
	<line class="st47" x1="372.61" y1="672.82" x2="641.39" y2="671.32"/>
	<path class="st47" d="M372.4,139.86c0,0,44.42,3.06,44.42,44.42"/>
	<path class="st47" d="M416.82,183.2c0,0-3.06,44.42-44.42,44.42"/>
	<path class="st48" d="M332.09,139.86c0,0-44.42,3.06-44.42,44.42"/>
	<path class="st48" d="M287.67,183.2c0,0,3.06,44.42,44.42,44.42"/>
	<line class="st48" x1="332.84" y1="20.83" x2="10.05" y2="257.71"/>
	<line class="st48" x1="332.09" y1="672.82" x2="64.06" y2="672.23"/>
	<line class="st48" x1="49.18" y1="245.18" x2="87.15" y2="670.77"/>
	<text transform="matrix(1 0 0 1 830.2514 526.0266)"><tspan x="0" y="0" class="st23 st49 st50">GOOGLE </tspan><tspan x="1360.62" y="0" class="st5 st49 st50">HOME FIT</tspan></text>
</g>
</svg>
